<svg width="24" height="24" viewBox="0 0 24 24" fill="none" xmlns="http://www.w3.org/2000/svg">
<mask id="mask0_7636_93558" style="mask-type:alpha" maskUnits="userSpaceOnUse" x="0" y="0" width="24" height="24">
<circle cx="12" cy="12" r="12" fill="#C4C4C4"/>
</mask>
<g mask="url(#mask0_7636_93558)">
<circle cx="12" cy="12" r="12" fill="white"/>
<path d="M13.0252 9.13171C12.6967 9.08135 12.3475 9.02344 11.9984 9.02344C11.6493 9.02344 11.3002 9.08135 10.9716 9.13171L9.55713 9.34826L11.9958 12.0627L14.4346 9.34826L13.0252 9.13171Z" fill="url(#paint0_linear_7636_93558)"/>
<path d="M22.1511 7.2609C22.1896 7.30622 22.1973 7.37672 22.1434 7.43212L20.118 9.41884C19.8562 9.67568 19.5147 9.84187 19.1476 9.89223L17.361 10.1365C17.0811 10.1743 16.8193 10.285 16.5985 10.4563L15.7437 11.1185L14.9248 10.6753V9.91741L16.3213 9.25013L19.0398 9.03862L22.0921 7.25586L22.1511 7.2609Z" fill="url(#paint1_linear_7636_93558)"/>
<path d="M1.84575 7.26105C1.80724 7.30637 1.79954 7.37688 1.85345 7.43227L3.87887 9.419C4.14071 9.67583 4.48213 9.84202 4.84922 9.89238L6.63591 10.1366C6.91572 10.1744 7.17756 10.2852 7.39833 10.4564L8.25316 11.1187L9.07206 10.6755V9.91756L7.67557 9.25029L4.95704 9.03877L1.90736 7.25098L1.84575 7.26105Z" fill="url(#paint2_linear_7636_93558)"/>
<path d="M21.9894 7.23067L20.0179 8.29328C19.5481 8.54508 19.0244 8.67854 18.4905 8.67854H16.7295C16.2084 8.67854 15.6898 8.77422 15.2046 8.96056L12.2166 10.1063C12.0779 10.1591 11.9213 10.1591 11.7827 10.1063L8.79722 8.95804C8.31204 8.7717 7.79349 8.67602 7.27237 8.67602H5.51136C4.97741 8.67602 4.45116 8.54508 3.98395 8.29076L2.00987 7.22815C1.94826 7.19542 1.88408 7.21556 1.84814 7.25837L4.25093 8.99329C4.47169 9.15193 4.73097 9.24509 5.00308 9.26524L7.10551 9.4138C7.41613 9.43646 7.71648 9.52963 7.98089 9.68827L8.40445 9.94259C8.66886 10.1012 8.64062 10.4865 8.35568 10.6073L8.20679 10.6703L7.8628 10.8138L11.3207 17.9021C11.7648 18.0103 12.2268 18.0103 12.6709 17.9021L16.1313 10.8163L15.7874 10.6728L15.6385 10.6099C15.3535 10.489 15.3253 10.1037 15.5897 9.9451L16.0133 9.69078C16.2802 9.53215 16.5806 9.43898 16.8886 9.41632L18.9911 9.26775C19.2632 9.24761 19.525 9.15444 19.7432 8.99581L22.1511 7.26089C22.1152 7.21808 22.0536 7.19794 21.9894 7.23067Z" fill="url(#paint3_linear_7636_93558)"/>
<path d="M16.6913 11.8438C16.8941 11.5089 16.7503 11.0758 16.3858 10.9222L16.1317 10.8164L14.0344 12.4405C13.8778 12.5614 13.77 12.7301 13.7263 12.919L12.6738 17.9046L12.9023 17.8492C13.0152 17.8215 13.1128 17.751 13.1744 17.6528L16.6913 11.8438Z" fill="url(#paint4_linear_7636_93558)"/>
<path d="M7.30582 11.8438C7.10302 11.5089 7.24677 11.0758 7.6113 10.9222L7.86544 10.8164L9.96274 12.4405C10.1193 12.5614 10.2271 12.7301 10.2708 12.919L11.3233 17.9046L11.0948 17.8492C10.9819 17.8215 10.8843 17.751 10.8227 17.6528L7.30582 11.8438Z" fill="url(#paint5_linear_7636_93558)"/>
<path d="M16.1343 10.832L16.3808 10.9352C16.5502 11.0057 16.6811 11.1467 16.7376 11.3179C16.7941 11.4892 16.7735 11.678 16.6786 11.8341L16.4167 12.2672L16.4501 12.2698L16.7042 11.8492C16.8043 11.6856 16.8249 11.4892 16.7658 11.3079C16.7068 11.1266 16.5682 10.9805 16.391 10.9075L16.16 10.8118L16.6067 10.4669L16.5887 10.4442L16.1292 10.7992L15.6466 10.5978C15.5182 10.5449 15.4335 10.4291 15.4258 10.2931C15.4155 10.1571 15.4823 10.0312 15.6004 9.96073L15.585 9.93555C15.4566 10.0136 15.3847 10.1471 15.395 10.2956C15.4053 10.4442 15.4951 10.5676 15.6363 10.6255L16.1035 10.8219" fill="#11192A"/>
<path d="M12.6608 17.8923C12.4452 17.9426 12.2219 17.9703 11.9985 17.9703V18.0005C12.227 18.0005 12.4555 17.9729 12.6762 17.92L12.9047 17.8646C13.0202 17.8369 13.1229 17.7613 13.1845 17.6606L13.1589 17.6455C13.1024 17.7412 13.0048 17.8092 12.897 17.8369L12.6916 17.8872L12.6608 17.8923Z" fill="#11192A"/>
<path d="M3.97363 8.30602C4.44341 8.55782 4.97479 8.69128 5.50874 8.69128H7.26976V8.66106H5.50874C4.97736 8.66106 4.45111 8.52761 3.98647 8.27832L3.97363 8.30602Z" fill="#11192A"/>
<path d="M4.24072 9.00858C4.46406 9.16973 4.7259 9.26542 5.00058 9.28304L7.10301 9.43161C7.40849 9.45427 7.71141 9.54744 7.97325 9.70355L7.98865 9.67837C7.72167 9.51974 7.41619 9.42405 7.10558 9.40139L5.00314 9.25283C4.7336 9.23268 4.47689 9.13952 4.25869 8.9834L4.24072 9.00858Z" fill="#11192A"/>
<path d="M7.86815 10.7987L7.40865 10.4437C7.18531 10.2725 6.91833 10.1591 6.63852 10.1214L4.85184 9.87712C4.48988 9.82676 4.14846 9.66057 3.88919 9.40625L3.86865 9.42639C4.13049 9.68323 4.47962 9.85446 4.84671 9.90482L6.63339 10.1491C6.90807 10.1868 7.16991 10.2951 7.38811 10.4663L7.83478 10.8113L7.60374 10.907C7.42661 10.9825 7.28799 11.1286 7.22895 11.3074L7.25719 11.3174C7.31366 11.1462 7.44458 11.0052 7.61401 10.9347L7.86045 10.8315L9.95005 12.4505C10.1015 12.5689 10.2093 12.7351 10.253 12.9214L11.1335 17.0887L11.1643 17.0837L10.2838 12.9164C10.2401 12.725 10.1272 12.5513 9.97058 12.4279L8.26348 11.1059L7.89382 10.8214" fill="#11192A"/>
<path d="M10.3608 16.9152L10.8101 17.6581C10.8717 17.7588 10.9744 17.8343 11.0899 17.862C11.1464 17.8746 11.3184 17.9174 11.3184 17.9174C11.5391 17.9703 11.7676 17.998 11.9961 17.998L12.0089 17.9829L11.9961 17.9678C11.7727 17.9678 11.5494 17.9426 11.3338 17.8897L11.1643 17.0814L11.1489 17.0764L11.1361 17.0865L11.303 17.8822C11.303 17.8822 11.1489 17.8444 11.0976 17.8318C10.9898 17.8066 10.8922 17.7361 10.8357 17.6404L10.3839 16.8951L10.366 16.8926L10.3608 16.9152Z" fill="url(#paint6_radial_7636_93558)"/>
<path d="M7.26967 8.69135C7.79079 8.69135 8.3042 8.78703 8.78938 8.97337L11.7749 10.1216L11.7903 10.1115L11.7852 10.0939L9.79311 9.32589L10.974 9.14459L11.0458 9.13452C11.3539 9.08668 11.6827 9.03864 12.0036 9.03864L12.0059 9.02121L12.0088 9.01094C11.6853 9.01094 11.3513 9.05646 11.0407 9.10431L9.73663 9.30575L8.79965 8.94567C8.30934 8.75682 7.79592 8.66113 7.26967 8.66113L7.25684 8.67372L7.26967 8.69135Z" fill="url(#paint7_radial_7636_93558)"/>
<path d="M13.0769 9.75879L12.2092 10.0912C12.0732 10.144 11.9217 10.144 11.7857 10.0912L11.7754 10.1189C11.9191 10.1743 12.0783 10.1743 12.2195 10.1189L13.0846 9.78649L13.0769 9.75879Z" fill="url(#paint8_linear_7636_93558)"/>
<path d="M13.0868 9.78613L14.2651 9.33288L15.2073 8.9728C15.6924 8.78647 16.2058 8.69078 16.727 8.69078L16.7424 8.67568L16.727 8.66309C16.2007 8.66309 15.6847 8.75877 15.197 8.94762L14.26 9.3077L13.0278 9.11885L12.9559 9.10878C12.6453 9.06093 12.3244 9.01057 12.001 9.01057V9.04079C12.3244 9.04079 12.6427 9.09115 12.9508 9.13899L14.2061 9.33288L13.0766 9.75843L13.0868 9.78613Z" fill="url(#paint9_radial_7636_93558)"/>
<path d="M16.4163 12.2689L13.1587 17.6448L13.1664 17.6625L13.1844 17.66L16.4497 12.2714L16.4394 12.2588L16.4163 12.2689Z" fill="url(#paint10_linear_7636_93558)"/>
<path d="M12.6944 17.8845L13.7417 12.9215C13.7854 12.7351 13.8932 12.569 14.0447 12.4506L16.1343 10.8315L16.1291 10.8164L16.1035 10.8189L14.0267 12.4279C13.8701 12.5513 13.7571 12.7226 13.7135 12.9164L12.6636 17.8921L12.679 17.8996L12.6944 17.8845Z" fill="url(#paint11_linear_7636_93558)"/>
<path d="M7.23158 11.3101C7.17254 11.4914 7.19308 11.6878 7.29319 11.8515L10.3634 16.9178L10.3891 16.9002L7.31887 11.8364C7.22388 11.6803 7.20335 11.4914 7.25982 11.3202L7.24955 11.3076L7.23158 11.3101Z" fill="url(#paint12_linear_7636_93558)"/>
<path d="M16.7271 8.69105H18.4881C19.0246 8.69105 19.5534 8.5576 20.0232 8.30579L21.9973 7.24319C22.0512 7.21549 22.0974 7.2306 22.1282 7.2583L19.7383 8.98314C19.5201 9.13926 19.2633 9.23243 18.9938 9.25257L16.8914 9.40113C16.5807 9.4238 16.2753 9.51948 16.0083 9.67812L15.5847 9.93244L15.5796 9.95258L15.6027 9.95762L16.0263 9.7033C16.2881 9.54718 16.5884 9.4515 16.8965 9.43135L18.9989 9.28279C19.2736 9.26264 19.538 9.16696 19.7588 9.00832L22.1513 7.28348C22.177 7.32125 22.1821 7.37916 22.1359 7.42197L20.1105 9.40869C19.8512 9.66301 19.5098 9.8292 19.1478 9.87956L17.3611 10.1238C17.0788 10.1616 16.8144 10.2724 16.591 10.4461V10.4663L16.6116 10.4713C16.8298 10.3026 17.0916 10.1918 17.3663 10.154L19.153 9.90978C19.5226 9.85942 19.8692 9.69071 20.131 9.43135L22.1564 7.44463C22.2206 7.38168 22.2052 7.3011 22.1641 7.25326C22.1256 7.20794 22.0563 7.18276 21.9844 7.22053L20.0104 8.28313C19.5457 8.53242 19.0195 8.66587 18.4881 8.66587H16.7271V8.68098V8.69105Z" fill="url(#paint13_linear_7636_93558)"/>
<path d="M7.8964 10.8184L8.36361 10.622C8.50223 10.5641 8.59208 10.4407 8.60492 10.2921C8.61518 10.1436 8.54587 10.0101 8.41495 9.93206L7.98882 9.67773L7.97341 9.68529V9.70291L8.39698 9.95724C8.51764 10.0277 8.58181 10.1536 8.57154 10.2896C8.56128 10.4256 8.47913 10.5414 8.35078 10.5943L7.86816 10.7957V10.8159H7.8964V10.8184Z" fill="url(#paint14_linear_7636_93558)"/>
<path d="M3.88913 9.40617L1.86371 7.41945C1.81751 7.37413 1.82264 7.31873 1.84831 7.28096L4.24082 9.00581L4.25879 9.00329V8.98314L1.86885 7.2583C1.89709 7.2306 1.94586 7.21549 1.99977 7.24319L3.97385 8.3058L3.99182 8.29824L3.98925 8.28062L2.01517 7.21801C1.94329 7.18024 1.87398 7.20794 1.83548 7.25074C1.7944 7.29859 1.779 7.37916 1.84318 7.44211L3.8686 9.42884L3.88913 9.43135V9.40617Z" fill="url(#paint15_linear_7636_93558)"/>
</g>
<defs>
<linearGradient id="paint0_linear_7636_93558" x1="11.9984" y1="8.69592" x2="11.9984" y2="11.0558" gradientUnits="userSpaceOnUse">
<stop stop-color="#262626"/>
<stop offset="0.7666" stop-color="#030303"/>
</linearGradient>
<linearGradient id="paint1_linear_7636_93558" x1="23.4411" y1="5.5762" x2="15.9335" y2="10.9857" gradientUnits="userSpaceOnUse">
<stop stop-color="#262626"/>
<stop offset="0.1313" stop-color="#202020"/>
<stop offset="0.655" stop-color="#0B0B0B"/>
<stop offset="1" stop-color="#030303"/>
</linearGradient>
<linearGradient id="paint2_linear_7636_93558" x1="0.555743" y1="5.57635" x2="8.0634" y2="10.9859" gradientUnits="userSpaceOnUse">
<stop stop-color="#262626"/>
<stop offset="0.1313" stop-color="#202020"/>
<stop offset="0.655" stop-color="#0B0B0B"/>
<stop offset="1" stop-color="#030303"/>
</linearGradient>
<linearGradient id="paint3_linear_7636_93558" x1="11.9984" y1="7.14775" x2="11.9984" y2="17.6958" gradientUnits="userSpaceOnUse">
<stop stop-color="#262626"/>
<stop offset="0.5945" stop-color="#0E0E0E"/>
<stop offset="1" stop-color="#030303"/>
</linearGradient>
<linearGradient id="paint4_linear_7636_93558" x1="17.7423" y1="6.77496" x2="12.9584" y2="17.7484" gradientUnits="userSpaceOnUse">
<stop offset="0.1111" stop-color="#262626"/>
<stop offset="0.1159" stop-color="#262626"/>
<stop offset="0.3499" stop-color="#121212"/>
<stop offset="0.5887" stop-color="#070707"/>
<stop offset="0.8385" stop-color="#030303"/>
</linearGradient>
<linearGradient id="paint5_linear_7636_93558" x1="6.25482" y1="6.77496" x2="11.0387" y2="17.7484" gradientUnits="userSpaceOnUse">
<stop offset="0.1111" stop-color="#262626"/>
<stop offset="0.1159" stop-color="#262626"/>
<stop offset="0.3499" stop-color="#121212"/>
<stop offset="0.5887" stop-color="#070707"/>
<stop offset="0.8385" stop-color="#030303"/>
</linearGradient>
<radialGradient id="paint6_radial_7636_93558" cx="0" cy="0" r="1" gradientUnits="userSpaceOnUse" gradientTransform="translate(11.1459 17.846) scale(1.19584 1.17299)">
<stop stop-color="#C92739"/>
<stop offset="0.0427835" stop-color="#B72638"/>
<stop offset="0.1913" stop-color="#7C2133"/>
<stop offset="0.3282" stop-color="#4E1E2F"/>
<stop offset="0.449" stop-color="#2D1B2C"/>
<stop offset="0.5491" stop-color="#181A2B"/>
<stop offset="0.6161" stop-color="#11192A"/>
</radialGradient>
<radialGradient id="paint7_radial_7636_93558" cx="0" cy="0" r="1" gradientUnits="userSpaceOnUse" gradientTransform="translate(9.74381 9.32115) scale(2.11744 2.07698)">
<stop stop-color="#004787"/>
<stop offset="0.171" stop-color="#063767"/>
<stop offset="0.3798" stop-color="#0C2746"/>
<stop offset="0.5537" stop-color="#101D31"/>
<stop offset="0.6704" stop-color="#11192A"/>
</radialGradient>
<linearGradient id="paint8_linear_7636_93558" x1="11.7981" y1="10.164" x2="13.1612" y2="9.77921" gradientUnits="userSpaceOnUse">
<stop offset="0.025647" stop-color="#11192A"/>
<stop offset="0.4063" stop-color="#0EBEAE"/>
<stop offset="0.7144" stop-color="#106063"/>
<stop offset="0.9381" stop-color="#11192A"/>
</linearGradient>
<radialGradient id="paint9_radial_7636_93558" cx="0" cy="0" r="1" gradientUnits="userSpaceOnUse" gradientTransform="translate(14.2592 9.31608) scale(1.70051 1.66802)">
<stop stop-color="#C92739"/>
<stop offset="0.0465513" stop-color="#B72638"/>
<stop offset="0.2082" stop-color="#7C2133"/>
<stop offset="0.3571" stop-color="#4E1E2F"/>
<stop offset="0.4885" stop-color="#2D1B2C"/>
<stop offset="0.5974" stop-color="#181A2B"/>
<stop offset="0.6704" stop-color="#11192A"/>
</radialGradient>
<linearGradient id="paint10_linear_7636_93558" x1="16.4416" y1="12.2718" x2="13.2666" y2="17.6844" gradientUnits="userSpaceOnUse">
<stop offset="0.0195531" stop-color="#11192A"/>
<stop offset="0.0828614" stop-color="#101D32"/>
<stop offset="0.1805" stop-color="#0E2848"/>
<stop offset="0.3002" stop-color="#0B3A6B"/>
<stop offset="0.4375" stop-color="#07529C"/>
<stop offset="0.5877" stop-color="#0272DA"/>
<stop offset="0.6387" stop-color="#007DF1"/>
<stop offset="0.6594" stop-color="#0177E4"/>
<stop offset="0.8277" stop-color="#0A4581"/>
<stop offset="0.9448" stop-color="#0F2542"/>
<stop offset="1" stop-color="#11192A"/>
</linearGradient>
<linearGradient id="paint11_linear_7636_93558" x1="12.1288" y1="17.546" x2="15.4304" y2="10.6029" gradientUnits="userSpaceOnUse">
<stop offset="0.0195531" stop-color="#11192A"/>
<stop offset="0.0733003" stop-color="#111D2D"/>
<stop offset="0.1226" stop-color="#132836"/>
<stop offset="0.1703" stop-color="#163A46"/>
<stop offset="0.2168" stop-color="#19555C"/>
<stop offset="0.2622" stop-color="#1E7677"/>
<stop offset="0.2979" stop-color="#229692"/>
<stop offset="0.3057" stop-color="#219390"/>
<stop offset="0.4099" stop-color="#176979"/>
<stop offset="0.5044" stop-color="#0F4B68"/>
<stop offset="0.5851" stop-color="#0B395E"/>
<stop offset="0.6425" stop-color="#09325A"/>
<stop offset="1" stop-color="#11192A"/>
</linearGradient>
<linearGradient id="paint12_linear_7636_93558" x1="7.173" y1="11.4024" x2="10.4408" y2="17.4042" gradientUnits="userSpaceOnUse">
<stop offset="0.0810056" stop-color="#11192A"/>
<stop offset="0.1176" stop-color="#14192D"/>
<stop offset="0.1478" stop-color="#1E1A37"/>
<stop offset="0.1756" stop-color="#301B47"/>
<stop offset="0.202" stop-color="#481C5F"/>
<stop offset="0.2275" stop-color="#671E7D"/>
<stop offset="0.2523" stop-color="#8D20A2"/>
<stop offset="0.2759" stop-color="#BA22CC"/>
<stop offset="0.2925" stop-color="#DE24EF"/>
<stop offset="0.2971" stop-color="#D824E9"/>
<stop offset="0.3367" stop-color="#AA21BD"/>
<stop offset="0.3787" stop-color="#811F95"/>
<stop offset="0.4227" stop-color="#5E1D74"/>
<stop offset="0.4692" stop-color="#421C59"/>
<stop offset="0.5189" stop-color="#2C1A44"/>
<stop offset="0.5735" stop-color="#1D1A35"/>
<stop offset="0.6366" stop-color="#14192D"/>
<stop offset="0.7281" stop-color="#11192A"/>
</linearGradient>
<linearGradient id="paint13_linear_7636_93558" x1="22.0084" y1="7.04496" x2="19.1161" y2="8.75141" gradientUnits="userSpaceOnUse">
<stop stop-color="#DE24EF"/>
<stop offset="0.3066" stop-color="#1B5BC1"/>
<stop offset="0.3327" stop-color="#1A54B0"/>
<stop offset="0.4057" stop-color="#174288"/>
<stop offset="0.4806" stop-color="#153366"/>
<stop offset="0.5567" stop-color="#13284B"/>
<stop offset="0.6345" stop-color="#121F39"/>
<stop offset="0.715" stop-color="#111B2E"/>
<stop offset="0.8025" stop-color="#11192A"/>
</linearGradient>
<linearGradient id="paint14_linear_7636_93558" x1="8.23662" y1="9.68951" x2="8.23662" y2="10.8112" gradientUnits="userSpaceOnUse">
<stop offset="0.1121" stop-color="#11192A"/>
<stop offset="0.153" stop-color="#11323E"/>
<stop offset="0.2419" stop-color="#106466"/>
<stop offset="0.3259" stop-color="#0F8B85"/>
<stop offset="0.4027" stop-color="#0EA79C"/>
<stop offset="0.4698" stop-color="#0EB8A9"/>
<stop offset="0.5198" stop-color="#0EBEAE"/>
<stop offset="0.5755" stop-color="#0EA59A"/>
<stop offset="0.7218" stop-color="#10696A"/>
<stop offset="0.8465" stop-color="#103E47"/>
<stop offset="0.9431" stop-color="#112332"/>
<stop offset="1" stop-color="#11192A"/>
</linearGradient>
<linearGradient id="paint15_linear_7636_93558" x1="1.81841" y1="7.32634" x2="4.61445" y2="9.43049" gradientUnits="userSpaceOnUse">
<stop offset="0.155" stop-color="#1B5BC1"/>
<stop offset="0.2324" stop-color="#184997"/>
<stop offset="0.3173" stop-color="#163870"/>
<stop offset="0.4015" stop-color="#142A51"/>
<stop offset="0.4836" stop-color="#12213C"/>
<stop offset="0.5625" stop-color="#111B2E"/>
<stop offset="0.6347" stop-color="#11192A"/>
</linearGradient>
</defs>
</svg>
