<svg width="44" height="44" viewBox="0 0 44 44" fill="none" xmlns="http://www.w3.org/2000/svg">
<path d="M41.854 10.2421C41.6642 9.992 41.3516 9.92894 41.0908 10.0845L37.2864 12.3716C36.4389 12.8803 35.4801 13.1514 34.5137 13.1514H31.1177C30.0611 13.1514 29.0276 13.3659 28.0439 13.7884L26.32 14.5283L24.0343 14.1352L23.8943 14.11C23.2826 14.0049 22.6518 13.8956 21.9998 13.8956C21.3478 13.8956 20.717 14.0049 20.1053 14.11L17.6777 14.5262L15.9538 13.7863C14.9701 13.3638 13.9365 13.1493 12.88 13.1493H9.48593C8.51949 13.1493 7.56072 12.8803 6.71317 12.3695L2.90685 10.0845C2.64799 9.92894 2.33543 9.9941 2.14559 10.2421C1.9385 10.5154 1.95384 10.8938 2.18202 11.1439L6.08614 15.4238C6.64414 16.0355 7.38239 16.4391 8.16475 16.5568L11.6125 17.0824C12.0861 17.1538 12.5348 17.364 12.9087 17.6878L13.3325 18.0535C12.9337 18.2637 12.6307 18.6442 12.4926 19.1067C12.3469 19.5965 12.4006 20.1304 12.6403 20.5718L19.4265 33.0919C19.5895 33.3946 19.8637 33.6153 20.1743 33.6994L20.6134 33.8171C21.0679 33.939 21.5338 34 22.0017 34C22.4696 34 22.9356 33.939 23.39 33.8171L23.8291 33.6994C24.1398 33.6153 24.4121 33.3946 24.577 33.0919L31.3631 20.5718C31.6028 20.1304 31.6565 19.5944 31.5108 19.1067C31.3727 18.6442 31.0698 18.2637 30.6709 18.0535L31.0947 17.6878C31.4705 17.364 31.9173 17.1538 32.3909 17.0824L35.8387 16.5568C36.621 16.437 37.3593 16.0355 37.9173 15.4238L41.8214 11.1439C42.0458 10.8938 42.0611 10.5154 41.854 10.2421ZM20.0765 14.9193L20.2184 14.8941C20.8013 14.7932 21.4054 14.6881 21.9998 14.6881C22.5942 14.6881 23.1983 14.7932 23.7812 14.8941L24.9835 15.1001L22.2855 16.2583C22.1014 16.3382 21.8963 16.3382 21.7122 16.2583L19.0142 15.1001L20.0765 14.9193ZM11.7103 16.2983L8.26254 15.7728C7.63551 15.6782 7.04491 15.3544 6.5962 14.8646L4.84932 12.9496L6.84165 14.5577C7.32103 14.9445 7.88862 15.1737 8.48114 15.2199L12.5367 15.5415C13.0756 15.5836 13.6029 15.7685 14.065 16.0776L14.8819 16.6241C15.0046 16.7061 15.0717 16.8469 15.0602 17.0046C15.0506 17.1601 14.9663 17.2905 14.834 17.3535L14.0842 17.7046L13.3536 17.0718C12.88 16.6556 12.3124 16.3887 11.7103 16.2983ZM20.0477 32.6904L13.2616 20.1703C13.1293 19.9244 13.0986 19.628 13.1791 19.3568C13.2597 19.0857 13.4437 18.8649 13.6834 18.7535L13.9768 18.6169L14.5559 19.1193L17.8502 21.9697C18.0842 22.1715 18.2491 22.4574 18.3143 22.7748L20.2222 32.8796C20.1513 32.8333 20.0899 32.7682 20.0477 32.6904ZM21.0046 33.1045L19.0238 22.6109C19.0238 22.6088 19.0238 22.6067 19.0219 22.6046C18.9202 22.1085 18.6633 21.6628 18.2989 21.3475L14.7342 18.2616L15.1197 18.0809C15.4993 17.9022 15.7544 17.5112 15.7851 17.0592C15.8138 16.6073 15.6144 16.1806 15.2596 15.943L14.4428 15.3965C13.8829 15.0223 13.2424 14.7995 12.5904 14.7469L8.53483 14.4253C8.07846 14.3896 7.64126 14.213 7.27117 13.9145L5.81001 12.7352L6.36226 13.0674C7.3172 13.6412 8.39485 13.9439 9.48402 13.9439H12.88C13.8445 13.9439 14.7899 14.1394 15.6892 14.5241L21.4495 17.0004C21.8042 17.1538 22.1954 17.1538 22.5521 17.0004L26.4888 15.3103L28.3085 14.5283C29.2078 14.1436 30.1532 13.946 31.1177 13.946H34.5137C35.6009 13.946 36.6805 13.6433 37.6354 13.0695L38.1877 12.7373L36.7265 13.9166C36.3564 14.2151 35.9211 14.3917 35.4628 14.4274L31.4072 14.749C30.7553 14.8016 30.1148 15.0244 29.5549 15.3986L28.738 15.9451C28.3852 16.1806 28.1839 16.6073 28.2126 17.0613C28.2414 17.5133 28.4964 17.9043 28.878 18.083L29.2634 18.2637L25.7007 21.3454C25.3363 21.6607 25.0794 22.1064 24.9777 22.6025C24.9777 22.6046 24.9777 22.6067 24.9758 22.6088L22.995 33.1024C22.3392 33.2475 21.6604 33.2475 21.0046 33.1045ZM30.738 20.1703L23.9519 32.6904C23.9097 32.7682 23.8483 32.8333 23.7774 32.8775L25.6853 22.7727C25.7524 22.4553 25.9173 22.1694 26.1494 21.9676L30.0228 18.6148L30.3162 18.7514C30.5559 18.8628 30.7399 19.0836 30.8205 19.3547C30.901 19.628 30.8703 19.9244 30.738 20.1703ZM37.4015 14.8646C36.9547 15.3544 36.3622 15.6782 35.7351 15.7728L32.2874 16.2983C31.6872 16.3908 31.1177 16.6556 30.6421 17.0676L29.9116 17.7004L29.1618 17.3493C29.0295 17.2884 28.9451 17.158 28.9355 17.0004C28.926 16.8448 28.9911 16.7019 29.1139 16.6199L29.9307 16.0734C30.391 15.7664 30.9202 15.5794 31.459 15.5373L35.5146 15.2157C36.1091 15.1695 36.6747 14.9403 37.1541 14.5535L39.1464 12.9454L37.4015 14.8646Z" fill="white"/>
</svg>
