<svg width="24" height="24" viewBox="0 0 24 24" fill="none" xmlns="http://www.w3.org/2000/svg">
  <path d="M12 4.908c-.979 0-1.774.796-1.774 1.774s.795 1.773 1.773 1.773c.978 0 1.774-.795 1.774-1.773 0-.978-.796-1.774-1.774-1.774Zm0 2.661a.888.888 0 0 1 0-1.774.888.888 0 0 1 0 1.774Z" fill="#FFF"/>
  <path d="M21.307 10.227a.442.442 0 0 0 .443-.442V8.013a.442.442 0 0 0-.217-.381l-8.67-5.148-.01-.007a1.719 1.719 0 0 0-1.717.006l-8.67 5.149a.442.442 0 0 0-.216.38v1.773c0 .245.198.442.443.442h1.33v7.978c-.978 0-1.773.795-1.773 1.773v1.329c0 .245.198.443.443.443h18.614a.443.443 0 0 0 .443-.443v-1.33c0-.977-.795-1.772-1.773-1.772v-7.978h1.33Zm-.443 9.75v.887H3.136v-.887c0-.488.398-.886.887-.886H19.977c.489 0 .887.398.887.886ZM4.909 18.205v-7.978h1.773v7.978H4.909Zm2.66 0v-7.978h2.658v7.978H7.568Zm3.545 0v-7.978h1.772v7.978h-1.772Zm2.659 0v-7.978h2.659v7.978h-2.66Zm3.545 0v-7.978h1.773v7.978h-1.773ZM3.136 9.34V8.264l8.44-5.014a.844.844 0 0 1 .842-.003l8.446 5.017V9.34H3.136Z" fill="#FFF" stroke="#FFF" stroke-width=".5"/>
</svg>
