<svg viewBox="0 0 36 36" fill="none" xmlns="http://www.w3.org/2000/svg">
  <circle cx="18" cy="18" r="18" fill="#4D4D4D"/>
  <path d="M12.406 15.702 18 10.108l5.595 5.596 3.255-3.254L18 3.6l-8.848 8.847 3.255 3.254ZM3.6 18l3.254-3.255 3.254 3.254-3.254 3.254L3.6 18Zm8.806 2.298L18 25.891l5.595-5.596 3.256 3.253-.001.002L18 32.4l-8.848-8.848-.004-.004 3.259-3.25Zm13.485-2.297 3.254-3.255 3.255 3.255-3.255 3.254-3.254-3.254Z" fill="#F3BA2F"/>
  <path d="M21.3 17.998h.001L18 14.695l-2.44 2.44-.28.28-.58.58-.004.004.005.005 3.3 3.3L21.301 18l.001-.002-.003-.001" fill="#F3BA2F"/>
</svg>
