<svg width="36" height="36" viewBox="0 0 36 36" fill="none" xmlns="http://www.w3.org/2000/svg">
  <rect width="36" height="36" rx="12" fill="#2C81FC"/>
  <path d="M25.111 14.444a.889.889 0 1 0 0-1.777H13.035l1.15-1.15a.889.889 0 0 0-1.258-1.257l-2.667 2.667a.889.889 0 0 0 0 1.257l2.667 2.667a.889.889 0 0 0 1.257-1.257l-1.15-1.15h12.077ZM10.889 23.333a.889.889 0 1 1 0-1.777h12.076l-1.15-1.15a.889.889 0 0 1 1.258-1.257l2.667 2.667a.889.889 0 0 1 0 1.257l-2.667 2.667a.889.889 0 0 1-1.257-1.257l1.15-1.15H10.888Z" fill="#FFF"/>
</svg>
