<svg width="24" height="24" viewBox="0 0 24 24" fill="none" xmlns="http://www.w3.org/2000/svg">
  <path d="M12 20.474c4.632 0 8.467-3.835 8.467-8.467 0-4.624-3.843-8.467-8.475-8.467-4.624 0-8.459 3.843-8.459 8.467 0 4.632 3.843 8.467 8.467 8.467Zm-2.98-4.782a.703.703 0 0 1-.697-.705c0-.191.074-.357.207-.482l2.482-2.49-2.482-2.49a.633.633 0 0 1-.207-.482c0-.381.315-.689.697-.689.2 0 .357.075.481.208l2.49 2.482 2.508-2.49a.633.633 0 0 1 .481-.216c.39 0 .697.315.697.697 0 .191-.058.349-.207.482l-2.49 2.498 2.481 2.474a.683.683 0 0 1 .208.498.698.698 0 0 1-1.195.498l-2.482-2.49-2.474 2.49a.67.67 0 0 1-.498.207Z" fill="#8E99A4"/>
</svg>
