<svg width="24" height="24" viewBox="0 0 24 24" fill="none" xmlns="http://www.w3.org/2000/svg">
<path d="M7.41667 20.6888V23H6.5V20.6888C6.5 20.4466 6.70535 20.25 6.95833 20.25C7.21132 20.25 7.41667 20.4466 7.41667 20.6888Z" fill="#73C3FF"/>
<path d="M7.20861 20.5164V22.9893H6.26953V20.5164C6.26953 20.2572 6.4799 20.0469 6.73907 20.0469C6.99824 20.0469 7.20861 20.2572 7.20861 20.5164Z" fill="#73C3FF"/>
<path d="M14.2821 16.1666L10.3873 15.016C10.1843 14.9561 10.0466 14.7678 10.0509 14.5562C10.0552 14.3446 10.2005 14.162 10.4058 14.1103C12.3989 13.6089 13.6259 12.6996 14.1568 11.3305C14.3412 10.8554 14.89 10.5945 15.3805 10.7464C15.8806 10.9028 16.2919 11.2433 16.5388 11.7053C16.7859 12.1676 16.8403 12.6993 16.6919 13.2022C16.6919 13.2022 16.6919 13.2023 16.6919 13.2022L16.6472 13.3537C16.2842 14.5822 15.689 15.2581 14.7175 16.0755C14.5968 16.177 14.4333 16.2112 14.2821 16.1666Z" fill="#364A5F"/>
<path d="M19.738 15.5103C19.738 14.6991 19.078 14.0391 18.2668 14.0391H10.6997C10.6156 14.0391 10.533 14.0616 10.4607 14.1044C9.92952 14.4185 9.39317 14.677 8.96222 14.8848C8.8119 14.9573 8.66993 15.0258 8.5408 15.0903C8.38173 15.1699 8.28125 15.3324 8.28125 15.5103V21.5204C8.28125 21.6983 8.38173 21.8609 8.5408 21.9404C10.438 22.8889 12.0151 23.0036 13.8542 23.0036C14.139 23.0036 14.4303 23.0009 14.7298 22.998C15.061 22.9949 15.4035 22.9917 15.7626 22.9917H17.2469C18.0582 22.9917 18.7182 22.3317 18.7182 21.5204C18.7182 21.2477 18.6436 20.992 18.5137 20.7728C18.9364 20.514 19.219 20.048 19.219 19.517C19.219 19.2443 19.1445 18.9886 19.0145 18.7694C19.4372 18.5106 19.7199 18.0446 19.7199 17.5137C19.7199 17.1321 19.5739 16.784 19.3348 16.5223C19.5951 16.248 19.738 15.8901 19.738 15.5103Z" fill="#4C6176"/>
<path d="M8.5551 13.8359H2.61417C2.22989 13.8359 1.91797 14.0512 1.91797 14.3164V22.5161C1.91797 22.7816 2.22989 22.9965 2.61417 23.0026H7.06986C7.92338 22.9965 8.66369 22.6567 9.02157 22.1628C9.1687 21.9607 9.2513 21.7323 9.2513 21.4911V14.3164C9.2513 14.0512 8.93938 13.8359 8.5551 13.8359Z" fill="#6B8094"/>
<path d="M7.20861 20.4852V22.9894H6.26953V20.4852C6.26953 20.226 6.4799 20.0156 6.73907 20.0156C6.99824 20.0156 7.20861 20.226 7.20861 20.4852Z" fill="#4C6176"/>
<path d="M17.3579 6.71376C17.4602 6.71376 17.5616 6.67004 17.6322 6.58544C17.7583 6.43406 17.7378 6.2091 17.5865 6.08299C17.4351 5.95682 17.2093 5.97665 17.0832 6.12793C16.9571 6.27931 16.9767 6.50357 17.1281 6.62968L17.1297 6.63109C17.1964 6.68663 17.2774 6.71376 17.3579 6.71376Z" fill="#8E99A4"/>
<path d="M19.0197 11.5184C19.188 11.5184 19.3378 11.3988 19.3699 11.2274C19.4104 11.0346 19.2866 10.847 19.0937 10.8066C18.9009 10.7664 18.7115 10.8912 18.6711 11.0841C18.6706 11.0866 18.6691 11.0934 18.6687 11.0959C18.6324 11.2896 18.7599 11.476 18.9535 11.5123C18.9758 11.5164 18.9979 11.5184 19.0197 11.5184ZM19.1196 10.1892C19.126 10.1892 19.1326 10.189 19.139 10.1887C19.335 10.1781 19.4856 10.0124 19.4761 9.8164C19.4761 9.81471 19.4757 9.80862 19.4756 9.80698C19.4633 9.61037 19.2933 9.46101 19.0974 9.47319C18.9007 9.48552 18.7513 9.65485 18.7636 9.85145L18.7636 9.85248C18.7749 10.0419 18.9322 10.1892 19.1196 10.1892ZM18.8628 8.88436C18.9002 8.88436 18.9382 8.87846 18.9756 8.86599C19.1625 8.8037 19.2636 8.6019 19.2013 8.41499C19.2007 8.41312 19.1999 8.41087 19.1992 8.40899C19.1338 8.22317 18.9295 8.12358 18.7436 8.189C18.5578 8.25438 18.4595 8.45619 18.5249 8.64201L18.5259 8.64501C18.5771 8.79171 18.715 8.88436 18.8628 8.88436ZM18.2576 7.69911C18.3291 7.69911 18.4013 7.67764 18.4641 7.63302C18.6246 7.51881 18.6621 7.29605 18.5479 7.13554C18.4342 6.97581 18.2116 6.93579 18.051 7.0486C17.8905 7.16127 17.8498 7.38055 17.9614 7.54182C17.9623 7.54309 17.9657 7.54796 17.9666 7.54923C18.0362 7.64694 18.146 7.69911 18.2576 7.69911Z" fill="#8E99A4"/>
<path d="M18.5952 12.778C18.7281 12.778 18.8553 12.7034 18.9167 12.5763C19.0028 12.4006 18.9312 12.1879 18.7558 12.1002C18.5795 12.0122 18.3654 12.0835 18.2773 12.2596C18.2758 12.2627 18.2733 12.2678 18.2719 12.2709C18.1889 12.4496 18.2666 12.6617 18.4453 12.7447C18.4939 12.7673 18.545 12.778 18.5952 12.778Z" fill="#8E99A4"/>
<path d="M16.0005 1.42188L16.8331 2.25454C17.6379 3.05933 17.2651 4.73693 16.0005 6.0016C14.7358 7.26627 13.0582 7.63906 12.2534 6.83427L11.4207 6.0016L16.0005 1.42188Z" fill="#3B4C5E"/>
<path d="M11.426 6.00367C10.6214 5.19901 10.9941 3.52165 12.2586 2.25718C13.5231 0.992705 15.2004 0.61995 16.0051 1.42461C16.8097 2.22926 16.437 3.90662 15.1725 5.1711C13.908 6.43557 12.2307 6.80833 11.426 6.00367Z" fill="#3B4C5E"/>
<path d="M12.045 5.38465C11.5107 4.85033 11.8241 3.67063 12.745 2.74972C13.666 1.8288 14.8457 1.5154 15.38 2.04972C15.9143 2.58404 15.6009 3.76374 14.68 4.68465C13.7591 5.60557 12.5794 5.91897 12.045 5.38465Z" fill="#546575"/>
</svg>
