<svg width="24" height="24" viewBox="0 0 24 24" fill="none" xmlns="http://www.w3.org/2000/svg">
<path d="M7.41667 20.6888V23H6.5V20.6888C6.5 20.4466 6.70535 20.25 6.95833 20.25C7.21132 20.25 7.41667 20.4466 7.41667 20.6888Z" fill="#73C3FF"/>
<path d="M7.20861 20.5164V22.9893H6.26953V20.5164C6.26953 20.2572 6.4799 20.0469 6.73907 20.0469C6.99824 20.0469 7.20861 20.2572 7.20861 20.5164Z" fill="#73C3FF"/>
<path d="M14.2821 16.1666L10.3873 15.016C10.1843 14.9561 10.0466 14.7678 10.0509 14.5562C10.0552 14.3446 10.2005 14.162 10.4058 14.1103C12.3989 13.6089 13.6259 12.6996 14.1568 11.3305C14.3412 10.8554 14.89 10.5945 15.3805 10.7464C15.8806 10.9028 16.2919 11.2433 16.5388 11.7053C16.7859 12.1676 16.8403 12.6993 16.6919 13.2022C16.6919 13.2022 16.6919 13.2023 16.6919 13.2022L16.6472 13.3537C16.2842 14.5822 15.689 15.2581 14.7175 16.0755C14.5968 16.177 14.4333 16.2112 14.2821 16.1666Z" fill="#DAA870"/>
<path d="M19.736 15.5103C19.736 14.6991 19.0761 14.0391 18.2648 14.0391H10.6977C10.6136 14.0391 10.5311 14.0616 10.4587 14.1044C9.92756 14.4185 9.39122 14.677 8.96027 14.8848C8.80995 14.9573 8.66798 15.0258 8.53884 15.0903C8.37978 15.1699 8.2793 15.3324 8.2793 15.5103V21.5204C8.2793 21.6983 8.37978 21.8609 8.53884 21.9404C10.4361 22.8889 12.0132 23.0036 13.8523 23.0036C14.1371 23.0036 14.4283 23.0009 14.7278 22.998C15.0591 22.9949 15.4015 22.9917 15.7606 22.9917H17.245C18.0562 22.9917 18.7162 22.3317 18.7162 21.5204C18.7162 21.2477 18.6417 20.992 18.5117 20.7728C18.9344 20.514 19.2171 20.048 19.2171 19.517C19.2171 19.2443 19.1425 18.9886 19.0126 18.7694C19.4353 18.5106 19.7179 18.0446 19.7179 17.5137C19.7179 17.1321 19.5719 16.784 19.3329 16.5223C19.5932 16.248 19.736 15.8901 19.736 15.5103Z" fill="#FFCF99"/>
<path d="M8.5551 13.8359H2.61417C2.22989 13.8359 1.91797 14.0512 1.91797 14.3164V22.5161C1.91797 22.7816 2.22989 22.9965 2.61417 23.0026H7.06986C7.92338 22.9965 8.66369 22.6567 9.02157 22.1628C9.1687 21.9607 9.2513 21.7323 9.2513 21.4911V14.3164C9.2513 14.0512 8.93938 13.8359 8.5551 13.8359Z" fill="#44A4EC"/>
<path d="M7.20861 20.4852V22.9894H6.26953V20.4852C6.26953 20.226 6.4799 20.0156 6.73907 20.0156C6.99824 20.0156 7.20861 20.226 7.20861 20.4852Z" fill="#73C3FF"/>
<path d="M17.3579 6.71376C17.4602 6.71376 17.5616 6.67004 17.6322 6.58544C17.7583 6.43406 17.7378 6.2091 17.5865 6.08299C17.4351 5.95682 17.2093 5.97665 17.0832 6.12793C16.9571 6.27931 16.9767 6.50357 17.1281 6.62968L17.1297 6.63109C17.1964 6.68663 17.2774 6.71376 17.3579 6.71376Z" fill="#8E99A4"/>
<path d="M19.0178 11.5184C19.1861 11.5184 19.3358 11.3988 19.368 11.2274C19.4084 11.0346 19.2846 10.847 19.0918 10.8066C18.899 10.7664 18.7096 10.8912 18.6691 11.0841C18.6686 11.0866 18.6672 11.0934 18.6667 11.0959C18.6304 11.2896 18.758 11.476 18.9516 11.5123C18.9738 11.5164 18.996 11.5184 19.0178 11.5184ZM19.1177 10.1892C19.1241 10.1892 19.1306 10.189 19.1371 10.1887C19.333 10.1781 19.4837 10.0124 19.4742 9.8164C19.4741 9.81471 19.4738 9.80862 19.4737 9.80698C19.4614 9.61037 19.2913 9.46101 19.0954 9.47319C18.8988 9.48552 18.7493 9.65485 18.7616 9.85145L18.7617 9.85248C18.773 10.0419 18.9302 10.1892 19.1177 10.1892ZM18.8609 8.88436C18.8982 8.88436 18.9363 8.87846 18.9736 8.86599C19.1605 8.8037 19.2616 8.6019 19.1993 8.41499C19.1987 8.41312 19.1979 8.41087 19.1973 8.40899C19.1319 8.22317 18.9275 8.12358 18.7417 8.189C18.5558 8.25438 18.4575 8.45619 18.5229 8.64201L18.524 8.64501C18.5752 8.79171 18.7131 8.88436 18.8609 8.88436ZM18.2556 7.69911C18.3272 7.69911 18.3994 7.67764 18.4621 7.63302C18.6226 7.51881 18.6602 7.29605 18.5459 7.13554C18.4323 6.97581 18.2096 6.93579 18.0491 7.0486C17.8886 7.16127 17.8478 7.38055 17.9595 7.54182C17.9603 7.54309 17.9638 7.54796 17.9647 7.54923C18.0342 7.64694 18.1441 7.69911 18.2556 7.69911Z" fill="#8E99A4"/>
<path d="M18.5952 12.778C18.7281 12.778 18.8553 12.7034 18.9167 12.5763C19.0028 12.4006 18.9312 12.1879 18.7558 12.1002C18.5795 12.0122 18.3654 12.0835 18.2773 12.2596C18.2758 12.2627 18.2733 12.2678 18.2719 12.2709C18.1889 12.4496 18.2666 12.6617 18.4453 12.7447C18.4939 12.7673 18.545 12.778 18.5952 12.778Z" fill="#8E99A4"/>
<path d="M16.0005 1.42188L16.8331 2.25454C17.6379 3.05933 17.2651 4.73693 16.0005 6.0016C14.7358 7.26627 13.0582 7.63906 12.2534 6.83427L11.4207 6.0016L16.0005 1.42188Z" fill="#EFA734"/>
<path d="M11.4241 6.00367C10.6194 5.19901 10.9922 3.52165 12.2566 2.25718C13.5211 0.992705 15.1985 0.61995 16.0031 1.42461C16.8078 2.22926 16.435 3.90662 15.1706 5.1711C13.9061 6.43557 12.2287 6.80833 11.4241 6.00367Z" fill="#F6B44B"/>
<path d="M12.047 5.38465C11.5127 4.85033 11.8261 3.67063 12.747 2.74972C13.6679 1.8288 14.8476 1.5154 15.3819 2.04972C15.9162 2.58404 15.6028 3.76374 14.6819 4.68465C13.761 5.60557 12.5813 5.91897 12.047 5.38465Z" fill="#FFD05C"/>
</svg>
