<svg width="24" height="24" viewBox="0 0 24 24" fill="none" xmlns="http://www.w3.org/2000/svg">
<path d="M18.3281 16.5553L21.6601 16.686L21.5867 5.39062C21.5867 5.39062 20.8836 10.775 20.1429 12.9078C19.7258 14.108 18.8191 15.7205 18.3281 16.5553Z" fill="#EAA330"/>
<path d="M10.1996 10.861C9.5258 13.2625 7.64062 16.6969 7.64062 16.6969L17.9965 17.1032C17.9965 17.1032 19.5559 14.5938 20.1434 12.9032C20.884 10.7704 21.5871 5.38597 21.5871 5.38597L11.232 4.9797C11.232 4.9797 10.8731 8.45937 10.1996 10.861Z" fill="#FFD15C"/>
<path d="M17.6459 13.1703C16.9709 12.9766 15.9966 12.7922 15.1677 12.6547C16.2932 12.1891 17.6354 11.4407 17.8544 10.4586C17.9432 10.0602 17.8892 9.44997 17.1279 8.80628C16.4095 8.1977 15.2771 8.08441 14.4947 8.54144C13.9142 8.88128 13.6423 9.47425 13.7673 10.1282C13.8087 10.3454 14.0177 10.4845 14.2353 10.447C14.4525 10.4048 14.5946 10.1954 14.5533 9.9782C14.4911 9.65317 14.6071 9.40244 14.8985 9.23209C15.3321 8.97817 16.0919 8.97817 16.611 9.41725C17.1626 9.88361 17.0954 10.1852 17.0735 10.2844C16.877 11.1672 14.7118 12.0626 13.3934 12.4203C13.2094 12.4696 13.086 12.6422 13.0985 12.832C13.111 13.0219 13.2559 13.1766 13.4446 13.2024C13.4711 13.2062 16.1079 13.561 17.4255 13.9391C17.4622 13.9493 17.4993 13.9547 17.536 13.9547C17.7099 13.9547 17.8696 13.8407 17.92 13.6641C17.981 13.4524 17.8584 13.2313 17.6459 13.1703Z" fill="#2C81FC"/>
<path d="M11.0344 7.01872C11.0347 7.01619 11.0351 7.01375 11.0354 7.01122C11.0277 7.01061 11.0263 7.01272 11.0344 7.01872ZM11.0354 7.01122C11.1349 7.01886 12.432 7.52652 12.432 7.52652L14.0071 6.82653L15.5321 7.65153L17.6071 6.90153L19.2325 7.95153C19.2325 7.95153 20.8778 7.43202 21.3075 7.32181C21.4028 6.70381 21.4778 6.18355 21.5263 5.83742L11.2321 5.4343C11.2321 5.4343 11.1652 6.08244 11.0354 7.01122ZM21.5871 5.38592L21.5699 2.54684L11.2141 2.14062L11.232 4.97966L21.5871 5.38592ZM13.0668 13.2578L11.0711 13.4562L9.89963 12.1094L9.77381 12.1281C8.94764 14.3132 7.64062 16.6969 7.64062 16.6969L15.477 17.0039C15.9898 16.1805 16.4086 15.3657 16.6262 14.6265C16.2246 14.5828 14.0379 14.5562 14.0379 14.5562L13.0668 13.2578Z" fill="#EAA330"/>
<path d="M21.5879 5.38592L21.5707 2.54684L11.2148 2.14062L11.2328 4.97966L21.5879 5.38592Z" fill="#2C81FC"/>
<path d="M11.0344 6.56875C11.0347 6.56622 11.0351 6.56378 11.0354 6.56125C11.0277 6.56064 11.0263 6.56275 11.0344 6.56875ZM11.232 4.98438C11.232 4.98438 11.1652 5.63252 11.0355 6.56125C11.135 6.56889 12.432 7.07655 12.432 7.07655L14.0071 6.37656L15.5321 7.20156L17.6071 6.45156L19.2325 7.50156C19.2325 7.50156 21.0731 6.92031 21.3794 6.85309C21.5107 5.98436 21.5872 5.39064 21.5872 5.39064L11.232 4.98438ZM12.386 13.2625L10.3902 13.4609L9.21872 12.1141L7.35703 12.3938C7.35703 12.3938 6.51717 11.6423 6.1703 11.2344C5.12658 14.0156 0 19.5797 0 19.5797L9.74377 23.1078C9.74377 23.1078 14.9367 18.0562 15.9453 14.6313C15.5438 14.5875 13.3571 14.5609 13.3571 14.5609L12.386 13.2625Z" fill="white"/>
<path d="M10.3786 15.3666C10.2861 15.1752 10.072 14.7236 7.07512 14.9705C6.85523 14.9892 6.69116 15.1814 6.70912 15.4017C6.72749 15.622 6.91729 15.7876 7.14074 15.7681C7.93602 15.7017 8.86457 15.6845 9.38099 15.7345C9.29859 15.8173 9.20484 15.9103 9.10246 16.0126C8.34927 16.7617 7.11341 17.9911 6.44184 18.8168L5.3009 18.3798C5.09582 18.3017 4.86341 18.4033 4.78448 18.6095C4.70521 18.8157 4.80871 19.047 5.01496 19.1266L8.14855 20.3267C8.19543 20.3438 8.24385 20.3533 8.29152 20.3533C8.45244 20.3533 8.60404 20.2548 8.66498 20.0955C8.74424 19.8892 8.64074 19.6579 8.43449 19.5798L7.23112 19.119C7.90068 18.3358 8.9849 17.2577 9.66655 16.5798C9.9314 16.3157 10.1396 16.1087 10.2482 15.9946C10.5138 15.7142 10.415 15.4432 10.3786 15.3666Z" fill="#2C81FC"/>
</svg>
