<svg width="101" height="100" viewBox="0 0 101 100" fill="none" xmlns="http://www.w3.org/2000/svg">
<path d="M97.8261 40.7608C85.8523 26.704 72.063 14.9219 58.0062 2.94808C53.3915 -0.982781 44.832 -0.982715 40.2174 2.94814C26.1604 14.922 14.922 27.9371 2.94817 41.994C-0.982692 46.6086 -0.982737 54.6244 2.94812 59.2391C14.9219 73.2961 27.9372 85.0782 41.9941 97.052C46.6087 100.983 53.3913 100.983 58.006 97.052C72.063 85.0782 85.0782 72.0629 97.0521 58.0061C100.983 53.3912 101.757 45.3757 97.8261 40.7608Z" fill="#4C5057"/>
<path d="M48.9131 93.1662C47.7499 93.1662 46.6211 92.7503 45.7346 91.9955C32.0442 80.3341 20.3566 65.8644 8.69529 52.174C7.12634 50.3322 7.12634 47.6587 8.69509 45.8169C20.3564 32.1265 33.8636 20.9006 47.5538 9.23926C48.4403 8.48418 49.569 8.06836 50.7323 8.06836C51.8956 8.06836 53.0243 8.48418 53.9108 9.23906C67.6013 20.9004 79.6431 34.3004 91.3044 47.9908C92.8734 49.8326 92.8734 52.5061 91.3044 54.3479C79.6431 68.0383 65.7817 80.3339 52.0915 91.9953C51.2051 92.7505 50.0764 93.1662 48.9131 93.1662Z" fill="#FFEF4A"/>
<path d="M47.2491 26.4336C48.2089 26.3639 49.1685 26.3639 50.1282 26.4336C52.4993 26.6059 55.6528 27.7172 55.754 30.9117C55.9806 38.0609 55.9806 45.2101 55.754 52.3593C55.6788 54.7355 53.8114 56.665 51.4403 56.8373C50.4806 56.907 49.521 56.907 48.5612 56.8373C46.1901 56.665 45.1842 54.7355 45.1088 52.3593C44.8822 45.2101 42.7089 38.0608 42.9355 30.9116C43.0109 28.5354 44.8781 26.6059 47.2491 26.4336Z" fill="#4C5057"/>
<path d="M48.4825 73.8945C49.2672 73.9193 50.742 73.9193 51.5266 73.8945C53.6544 73.8273 55.3582 71.8537 55.4174 69.3955C55.4409 68.4217 55.4409 67.448 55.4174 66.4741C55.358 64.0159 53.6544 62.0424 51.5266 61.9752C50.742 61.9504 49.9573 61.9504 49.1727 61.9752C47.0449 62.0424 45.65 63.3246 44.7501 65.5801C44.3217 66.6542 44.6966 68.3318 45.2822 69.8927C46.0147 71.8449 46.3547 73.8273 48.4825 73.8945Z" fill="#4C5057"/>
</svg>
