<svg width="24" height="24" viewBox="0 0 24 24" fill="none" xmlns="http://www.w3.org/2000/svg">
<path d="M20.3171 4.36799C18.7874 3.66613 17.1471 3.14901 15.4319 2.85281C15.4007 2.84709 15.3695 2.86138 15.3534 2.88993C15.1424 3.26516 14.9088 3.75463 14.7451 4.13938C12.9005 3.8632 11.0652 3.8632 9.25836 4.13938C9.09468 3.7461 8.85252 3.26516 8.6406 2.88993C8.62452 2.86232 8.5933 2.84802 8.56208 2.85281C6.84796 3.14802 5.20761 3.66515 3.67696 4.36799C3.66369 4.37371 3.65235 4.38323 3.6448 4.3956C0.533426 9.04396 -0.318949 13.5781 0.0991759 18.056C0.101051 18.0779 0.113379 18.0988 0.130395 18.1122C2.18319 19.6197 4.17172 20.5349 6.12327 21.1416C6.15449 21.1511 6.18758 21.1397 6.20746 21.1139C6.66908 20.4835 7.0806 19.8188 7.43343 19.1197C7.45424 19.0788 7.43436 19.0302 7.3918 19.014C6.73907 18.7664 6.11755 18.4645 5.51966 18.1217C5.47236 18.0941 5.46857 18.0265 5.51211 17.9941C5.63793 17.8998 5.76379 17.8017 5.88393 17.7027C5.90568 17.6846 5.93596 17.6808 5.9615 17.6922C9.88925 19.4855 14.1415 19.4855 18.0229 17.6922C18.0485 17.6798 18.0787 17.6836 18.1014 17.7017C18.2216 17.8007 18.3474 17.8998 18.4742 17.994C18.5177 18.0264 18.5148 18.0941 18.4676 18.1217C17.8697 18.4712 17.2482 18.7664 16.5945 19.0131C16.5519 19.0292 16.533 19.0788 16.5538 19.1197C16.9143 19.8178 17.3258 20.4825 17.7789 21.113C17.7978 21.1396 17.8318 21.1511 17.8631 21.1415C19.8241 20.5349 21.8126 19.6197 23.8654 18.1121C23.8834 18.0988 23.8948 18.0788 23.8966 18.0569C24.3971 12.88 23.0585 8.38302 20.3482 4.39654C20.3416 4.38323 20.3303 4.37371 20.3171 4.36799ZM8.02007 15.3294C6.83755 15.3294 5.86316 14.2438 5.86316 12.9104C5.86316 11.5772 6.81861 10.4915 8.02007 10.4915C9.23089 10.4915 10.1959 11.5867 10.1769 12.9104C10.1769 14.2438 9.22143 15.3294 8.02007 15.3294ZM15.9948 15.3294C14.8123 15.3294 13.8379 14.2438 13.8379 12.9104C13.8379 11.5772 14.7934 10.4915 15.9948 10.4915C17.2056 10.4915 18.1706 11.5867 18.1517 12.9104C18.1517 14.2438 17.2057 15.3294 15.9948 15.3294Z" fill="#5865F2"/>
</svg>
