<svg width="24" height="24" viewBox="0 0 24 24" fill="none" xmlns="http://www.w3.org/2000/svg">
<path d="M18.9309 5.32632C17.6562 4.71245 16.2892 4.26016 14.86 4.00109C14.834 3.99609 14.8079 4.00859 14.7945 4.03356C14.6187 4.36175 14.424 4.78986 14.2876 5.12637C12.7504 4.88481 11.221 4.88481 9.71531 5.12637C9.57891 4.7824 9.37711 4.36175 9.20051 4.03356C9.18711 4.00941 9.16109 3.99691 9.13508 4.00109C7.70664 4.2593 6.33968 4.71159 5.06413 5.32632C5.05308 5.33133 5.04363 5.33965 5.03734 5.35047C2.44452 9.4161 1.73421 13.3818 2.08265 17.2983C2.08421 17.3175 2.09448 17.3358 2.10866 17.3475C3.81933 18.666 5.47644 19.4665 7.10273 19.9971C7.12875 20.0054 7.15632 19.9954 7.17289 19.9729C7.55758 19.4215 7.90051 18.8401 8.19453 18.2287C8.21187 18.1929 8.19531 18.1504 8.15984 18.1363C7.6159 17.9197 7.09797 17.6557 6.59972 17.3558C6.56031 17.3317 6.55714 17.2725 6.59343 17.2442C6.69828 17.1617 6.80316 17.0759 6.90328 16.9893C6.9214 16.9735 6.94664 16.9702 6.96793 16.9801C10.2411 18.5486 13.7846 18.5486 17.0191 16.9801C17.0404 16.9693 17.0656 16.9727 17.0845 16.9884C17.1847 17.0751 17.2895 17.1617 17.3952 17.2442C17.4314 17.2725 17.429 17.3316 17.3897 17.3558C16.8914 17.6615 16.3735 17.9197 15.8288 18.1354C15.7933 18.1496 15.7775 18.1929 15.7949 18.2287C16.0952 18.8392 16.4382 19.4206 16.8158 19.9721C16.8315 19.9954 16.8599 20.0054 16.8859 19.997C18.5201 19.4665 20.1772 18.666 21.8879 17.3474C21.9029 17.3358 21.9123 17.3183 21.9139 17.2991C22.3309 12.7712 21.2154 8.83802 18.9568 5.35129C18.9514 5.33965 18.9419 5.33133 18.9309 5.32632ZM8.6834 14.9136C7.69797 14.9136 6.88597 13.964 6.88597 12.7979C6.88597 11.6317 7.68218 10.6822 8.6834 10.6822C9.69242 10.6822 10.4966 11.6401 10.4808 12.7979C10.4808 13.964 9.68453 14.9136 8.6834 14.9136ZM15.329 14.9136C14.3436 14.9136 13.5316 13.964 13.5316 12.7979C13.5316 11.6317 14.3278 10.6822 15.329 10.6822C16.3381 10.6822 17.1422 11.6401 17.1264 12.7979C17.1264 13.964 16.3381 14.9136 15.329 14.9136Z" fill="#5865F2"/>
<circle cx="18" cy="6" r="6" fill="white"/>
<path d="M20.0931 8.04967H18.1558C19.4066 6.90944 20.3384 5.91247 20.3384 4.6643C20.3384 3.5871 19.5919 2.5 17.9243 2.5C17.1395 2.5 16.3871 2.75332 15.8056 3.21306C15.6666 3.32282 15.6225 3.50535 15.6974 3.66032L15.9797 4.24551C16.0319 4.35375 16.1354 4.43306 16.2592 4.45985C16.383 4.48634 16.513 4.45742 16.6108 4.3813C16.8173 4.22009 17.2389 3.95018 17.7427 3.95018C18.1267 3.95018 18.6371 4.03497 18.6371 4.76463C18.629 5.5261 17.948 6.25392 16.3193 7.70441L15.6233 8.33678C15.5444 8.40849 15.5 8.50683 15.5 8.60974V9.11942C15.5 9.32965 15.6821 9.5 15.9068 9.5H20.0932C20.3179 9.5 20.5 9.32965 20.5 9.11942V8.43056C20.4998 8.22002 20.3178 8.04967 20.0931 8.04967Z" fill="#2C81FC"/>
</svg>
