<svg width="92" height="88" viewBox="0 0 92 88" fill="none" xmlns="http://www.w3.org/2000/svg">
<path d="M92 49C92 73.3005 69.8005 88 45.5 88C21.1995 88 0 67.3005 0 43C0 18.6995 23.6995 0 48 0C72.3005 0 92 24.6995 92 49Z" fill="#F24840"/>
<path fill-rule="evenodd" clip-rule="evenodd" d="M54.9395 43.4597L68.0002 58.241C69.3832 59.8062 69.2434 62.1943 67.6872 63.5874C66.178 64.9386 63.8741 64.868 62.4504 63.4271L48.4164 49.2235L32.2584 63.5005C30.6932 64.8835 28.3052 64.7438 26.912 63.1876C25.5609 61.6784 25.6314 59.3745 27.0724 57.9508L42.236 42.9683L28.322 28.8861C26.4258 26.967 26.9343 23.7595 29.3312 22.521L31.4411 21.4309C33.0694 20.5896 35.0612 20.9625 36.2748 22.336L48.7865 36.496L61.6133 23.8223C63.5325 21.9261 66.74 22.4347 67.9784 24.8316L69.0686 26.9415C69.9099 28.5698 69.5369 30.5616 68.1635 31.7752L54.9395 43.4597Z" fill="white"/>
</svg>
