<svg width="20" height="20" viewBox="0 0 20 20" fill="none" xmlns="http://www.w3.org/2000/svg">
  <path d="M10 20c5.523 0 10-4.477 10-10S15.523 0 10 0 0 4.477 0 10s4.477 10 10 10Z" fill="#13B5EC"/>
  <path d="M9.341 3.134c.37-.179.932-.179 1.302 0l3.772 1.825c.222.107.345.268.366.434h.004v9.171c-.005.18-.128.36-.37.477l-3.772 1.825c-.37.179-.932.179-1.302 0L5.57 15.04c-.241-.116-.357-.297-.363-.477V5.393h.002c.017-.168.133-.324.36-.434l3.772-1.825Zm4.85 7.375-3.548 1.717c-.37.179-.932.179-1.302 0l-3.54-1.713v4.033l3.54 1.704c.2.097.408.193.61.205l.041.001c.211 0 .417-.098.625-.19l3.574-1.735V10.51Zm-9.597 3.856c0 .35.044.582.133.745.073.135.183.238.384.363l.012.007c.044.027.092.056.152.09l.07.038.214.119-.308.465-.24-.132-.04-.023a5.2 5.2 0 0 1-.18-.106c-.573-.354-.787-.74-.79-1.542L4 14.365h.594ZM9.695 8.05a.57.57 0 0 0-.076.03L5.847 9.906a.412.412 0 0 0-.011.005l-.004.002.006.003.009.004 3.772 1.825c.023.011.049.021.076.03V8.051Zm.594 0v3.724a.583.583 0 0 0 .077-.03l3.771-1.825a.38.38 0 0 0 .012-.005l.003-.002-.006-.003-.009-.004-3.771-1.825a.57.57 0 0 0-.077-.03Zm3.902-2.008L10.808 7.68l3.383 1.637V6.043Zm-8.39.004v3.266L9.176 7.68 5.801 6.047Zm4.565-2.432a1.016 1.016 0 0 0-.747 0L5.847 5.44a.412.412 0 0 0-.011.005l-.004.002.006.003.009.004L9.619 7.28c.196.095.55.095.747 0l3.771-1.825a.357.357 0 0 0 .012-.005l.003-.002-.006-.003-.009-.004-3.771-1.825Zm4.383.2.24.133.04.022c.069.04.127.073.18.106.573.354.787.74.79 1.542l.001.025h-.594c0-.352-.044-.583-.133-.745-.073-.135-.183-.238-.384-.364l-.012-.007a4.707 4.707 0 0 0-.152-.09l-.07-.038-.214-.119.308-.465Z" fill="#FFF"/>
</svg>
