<svg width="16" height="16" viewBox="0 0 24 24" fill="none" xmlns="http://www.w3.org/2000/svg">
  <path d="M21.138 2H2.861a.861.861 0 0 0-.765.455.832.832 0 0 0 .068.884L8.86 12.54l.007.01c.243.32.374.708.375 1.107v7.503a.824.824 0 0 0 .249.593c.16.158.379.246.606.246a.9.9 0 0 0 .338-.066l3.762-1.4c.337-.1.561-.41.561-.784v-6.092c0-.399.132-.787.376-1.107l.006-.01 6.696-9.203c.191-.258.217-.6.068-.883A.861.861 0 0 0 21.138 2Zm-6.844 9.95a2.843 2.843 0 0 0-.577 1.708v5.969l-3.434 1.277v-7.246a2.842 2.842 0 0 0-.578-1.709l-6.5-8.934h17.59l-6.5 8.934Z" fill="#2C81FC" stroke="#2C81FC" stroke-width=".4"/>
</svg>
