<svg width="20" height="20" viewBox="0 0 20 20" fill="none" xmlns="http://www.w3.org/2000/svg">
  <path d="m17.461 5.694.014-.014-2.908-2.88a.68.68 0 0 0-.957.965l1.433 1.423a2.255 2.255 0 0 0-1.463 2.104 2.266 2.266 0 0 0 2.272 2.257c.323 0 .632-.068.91-.19v6.509a.909.909 0 0 1-1.819 0v-4.062c0-.998-.813-1.806-1.818-1.806h-.909V3.68c0-.997-.814-1.805-1.818-1.805H4.943a1.811 1.811 0 0 0-1.818 1.806v12.444a2 2 0 0 0 2 2h5.09a2 2 0 0 0 2-2v-4.77h.365a1 1 0 0 1 1 1v3.513a2.266 2.266 0 0 0 2.272 2.257 2.266 2.266 0 0 0 2.273-2.257V7.292c0-.623-.255-1.187-.664-1.598Zm-7.063 1.5a1 1 0 0 1-1 1H5.943a1 1 0 0 1-1-1V4.681a1 1 0 0 1 1-1h3.455a1 1 0 0 1 1 1v2.513Zm5.454 1c-.5 0-.909-.406-.909-.902a.909.909 0 0 1 1.818 0c0 .496-.409.902-.909.902Z" fill="#FFF"/>
</svg>
