<svg width="24" height="24" viewBox="0 0 24 24" fill="none" xmlns="http://www.w3.org/2000/svg">
<path d="M19.1876 13.8427V18.4942H7.22656V9.52344H19.1876V11.8492V13.8427Z" fill="#F4B400"/>
<path d="M8.22332 9.1875H7.22656V18.1583H19.1876V17.1615H16.1973C14.0825 17.1615 12.0543 16.3214 10.5589 14.826C9.06344 13.3306 8.22332 11.3023 8.22332 9.1875Z" fill="#F29500"/>
<path d="M7.22656 9.52344H19.1876V10.1879H7.22656V9.52344Z" fill="#F29500"/>
<path d="M12.2109 9.52344H14.2044V18.162H12.2109V9.52344Z" fill="#DB4437"/>
<path d="M12.8761 3.53906C13.3167 3.53906 13.7392 3.71409 14.0508 4.02563C14.3623 4.33718 14.5374 4.75973 14.5374 5.20032V6.86158H11.2148V5.20032C11.2148 4.75973 11.3899 4.33718 11.7014 4.02563C12.013 3.71409 12.4355 3.53906 12.8761 3.53906Z" fill="#A51E1B"/>
<path d="M17.4285 6.43814C18.5175 5.34916 18.8486 3.91465 18.168 3.23408C17.4874 2.5535 16.0529 2.88457 14.964 3.97355C13.875 5.06252 13.5439 6.49703 14.2245 7.17761C14.9051 7.85818 16.3396 7.52711 17.4285 6.43814Z" fill="#DB4437"/>
<path d="M14.6406 7.43445C15.3902 7.71686 16.5301 7.33477 17.4315 6.43404C17.9211 5.96135 18.274 5.36525 18.4529 4.70866C17.7036 4.42624 16.5637 4.80833 15.662 5.70907C15.1724 6.18175 14.8195 6.77786 14.6406 7.43445Z" fill="#A51E1B"/>
<path d="M11.8555 7.17217C12.5361 6.49159 12.205 5.05709 11.116 3.96811C10.0271 2.87914 8.59256 2.54807 7.91198 3.22864C7.2314 3.90922 7.56248 5.34373 8.65145 6.4327C9.74043 7.52168 11.1749 7.85275 11.8555 7.17217Z" fill="#DB4437"/>
<path d="M11.4431 7.43445C10.6936 7.71686 9.5536 7.33477 8.6522 6.43404C8.16262 5.96135 7.80976 5.36525 7.63086 4.70866C8.38009 4.42624 9.52004 4.80833 10.4218 5.70907C10.9113 6.18175 11.2642 6.77786 11.4431 7.43445Z" fill="#A51E1B"/>
<path d="M15.866 9.51739H5.89844V6.85938H20.5175V9.51739H17.8651" fill="#F4B400"/>
<path d="M11.5469 6.85938H14.8694V9.51739H11.5469V6.85938Z" fill="#DB4437"/>
<path d="M21.5156 8.19163C21.5156 8.00813 21.6644 7.85938 21.8479 7.85938H22.8446C23.0281 7.85938 23.1769 8.00813 23.1769 8.19163C23.1769 8.37512 23.0281 8.52388 22.8446 8.52388H21.8479C21.6644 8.52388 21.5156 8.37512 21.5156 8.19163Z" fill="#DB4437"/>
<path d="M21.5123 7.19587C21.3825 7.06612 21.3825 6.85575 21.5123 6.726L22.2053 6.03294C22.3351 5.90318 22.5455 5.90318 22.6752 6.03294C22.805 6.16269 22.805 6.37306 22.6752 6.50281L21.9822 7.19587C21.8524 7.32563 21.642 7.32563 21.5123 7.19587Z" fill="#DB4437"/>
<path d="M21.5123 9.65681C21.3825 9.52706 21.3825 9.31669 21.5123 9.18694C21.642 9.05719 21.8524 9.05719 21.9822 9.18694L22.6752 9.88C22.805 10.0098 22.805 10.2201 22.6752 10.3499C22.5455 10.4796 22.3351 10.4796 22.2053 10.3499L21.5123 9.65681Z" fill="#DB4437"/>
<path d="M3.24023 8.19163C3.24023 8.00813 3.38899 7.85938 3.57249 7.85938H4.56924C4.75274 7.85938 4.90149 8.00813 4.90149 8.19163C4.90149 8.37512 4.75274 8.52388 4.56924 8.52388H3.57249C3.38899 8.52388 3.24023 8.37512 3.24023 8.19163Z" fill="#DB4437"/>
<path d="M3.73689 10.3521C3.60714 10.2224 3.60714 10.012 3.73689 9.88225L4.42996 9.18919C4.55971 9.05943 4.77008 9.05943 4.89983 9.18919C5.02958 9.31894 5.02958 9.52931 4.89983 9.65906L4.20676 10.3521C4.07701 10.4819 3.86664 10.4819 3.73689 10.3521Z" fill="#DB4437"/>
<path d="M3.73884 6.50056C3.60909 6.37081 3.60909 6.16044 3.73884 6.03069C3.8686 5.90094 4.07897 5.90094 4.20872 6.03069L4.90178 6.72375C5.03153 6.8535 5.03153 7.06387 4.90178 7.19363C4.77203 7.32338 4.56166 7.32338 4.43191 7.19363L3.73884 6.50056Z" fill="#DB4437"/>
<path d="M4.26295 22.9985C4.01391 22.9985 3.77693 22.8527 3.67258 22.6092L1.10465 16.6174C1.03758 16.4609 1.0354 16.2842 1.09866 16.1261C1.16191 15.968 1.28535 15.8415 1.44186 15.7745L3.80205 14.763C4.12792 14.6234 4.50532 14.7743 4.64502 15.1002L7.21295 21.092C7.28002 21.2485 7.2822 21.4253 7.21895 21.5833C7.15569 21.7414 7.03226 21.8679 6.87574 21.9349L4.51555 22.9464C4.43308 22.9818 4.34731 22.9985 4.26295 22.9985Z" fill="#696E73"/>
<path d="M6.75544 21.9863H15.1802C15.9731 21.9863 16.7347 21.6946 17.3247 21.1648L22.4384 16.5732C23.0901 15.9881 23.1464 14.9863 22.5645 14.3317C21.9846 13.6793 20.9874 13.6158 20.3294 14.1893L15.9989 17.964C15.8819 18.0659 15.7321 18.122 15.577 18.122H10.9902L11.7972 15.2169L11.5392 14.9226C10.623 13.8776 9.35518 13.2445 7.9693 13.1402C6.5833 13.0359 5.2351 13.4718 4.1727 14.3678L3.60352 14.8479L6.75544 21.9863Z" fill="#FFC2AA"/>
<path d="M16.4882 16.5104C16.4882 17.3965 15.7699 18.1147 14.8839 18.1147H10.159C9.99728 18.1147 9.8379 18.0696 9.71746 17.9798C9.51203 17.8265 9.4498 17.5885 9.54661 17.3837L10.5557 15.2485C10.6522 15.0443 10.8886 14.9099 11.152 14.9095L14.8826 14.9063C15.7691 14.9054 16.4882 15.6239 16.4882 16.5104Z" fill="#FFC2AA"/>
<path d="M14.8814 14.9141L12.0078 14.9166V18.1226H14.8828C15.7688 18.1226 16.487 17.4043 16.487 16.5183C16.487 15.6318 15.7679 14.9133 14.8814 14.9141Z" fill="#FFC2AA"/>
<path d="M22.5623 14.331C21.9824 13.6786 20.9852 13.6151 20.3272 14.1887L15.9966 17.9633C15.8797 18.0652 15.7299 18.1213 15.5748 18.1213H12.0078V21.9856H15.1779C15.9708 21.9856 16.7325 21.6939 17.3224 21.1641L22.4361 16.5725C23.0878 15.9874 23.1442 14.9856 22.5623 14.331Z" fill="#F7BB9F"/>
<path d="M10.1582 19.4083H14.8832C16.4757 19.4083 17.7714 18.1126 17.7714 16.5201C17.7714 16.4871 17.77 16.4545 17.7689 16.4219L15.997 17.9663C15.8801 18.0682 15.7302 18.1243 15.5752 18.1243H10.1582V19.4083Z" fill="#FAB493"/>
<path d="M15.9986 17.9662C15.8817 18.0681 15.7318 18.1243 15.5768 18.1243H12.0098V19.4083H14.8847C16.4773 19.4083 17.7729 18.1126 17.7729 16.5201C17.7729 16.4871 17.7716 16.4545 17.7705 16.4219L15.9986 17.9662Z" fill="#F4AC8F"/>
</svg>
