<svg width="24" height="24" viewBox="0 0 24 24" fill="none" xmlns="http://www.w3.org/2000/svg">
<path d="M19.1915 13.8427V18.4942H7.23047V9.52344H19.1915V11.8492V13.8427Z" fill="#4C6176"/>
<path d="M8.22722 9.19141H7.23047V18.1622H19.1915V17.1654H16.2013C14.0864 17.1654 12.0582 16.3253 10.5628 14.8299C9.06734 13.3345 8.22722 11.3063 8.22722 9.19141Z" fill="#364A5F"/>
<path d="M7.23047 9.52344H19.1915V10.1879H7.23047V9.52344Z" fill="#364A5F"/>
<path d="M12.2109 9.52344H14.2044V18.162H12.2109V9.52344Z" fill="#364A5F"/>
<path d="M12.8761 3.53906C13.3167 3.53906 13.7392 3.71409 14.0508 4.02563C14.3623 4.33718 14.5374 4.75973 14.5374 5.20032V6.86158H11.2148V5.20032C11.2148 4.75973 11.3899 4.33718 11.7014 4.02563C12.013 3.71409 12.4355 3.53906 12.8761 3.53906Z" fill="#2A3B4D"/>
<path d="M17.4285 6.43814C18.5175 5.34916 18.8486 3.91465 18.168 3.23408C17.4874 2.5535 16.0529 2.88457 14.964 3.97355C13.875 5.06252 13.5439 6.49703 14.2245 7.17761C14.9051 7.85818 16.3396 7.52711 17.4285 6.43814Z" fill="#364A5F"/>
<path d="M14.6406 7.43835C15.3902 7.72077 16.5301 7.33868 17.4315 6.43795C17.9211 5.96526 18.274 5.36916 18.4529 4.71256C17.7036 4.43015 16.5637 4.81224 15.662 5.71297C15.1724 6.18566 14.8195 6.78176 14.6406 7.43835Z" fill="#2A3B4D"/>
<path d="M11.8594 7.17608C12.54 6.4955 12.2089 5.061 11.1199 3.97202C10.031 2.88304 8.59647 2.55197 7.91589 3.23255C7.23531 3.91313 7.56638 5.34763 8.65536 6.43661C9.74433 7.52558 11.1788 7.85666 11.8594 7.17608Z" fill="#364A5F"/>
<path d="M11.4451 7.43835C10.6955 7.72077 9.55555 7.33868 8.65415 6.43795C8.16458 5.96526 7.81171 5.36916 7.63281 4.71256C8.38204 4.43015 9.52199 4.81224 10.4237 5.71297C10.9133 6.18566 11.2662 6.78176 11.4451 7.43835Z" fill="#2A3B4D"/>
<path d="M15.866 9.52129H5.89844V6.86328H20.5175V9.52129H17.8651" fill="#4C6176"/>
<path d="M11.5469 6.86328H14.8694V9.52129H11.5469V6.86328Z" fill="#364A5F"/>
<path d="M21.5156 8.19163C21.5156 8.00813 21.6644 7.85938 21.8479 7.85938H22.8446C23.0281 7.85938 23.1769 8.00813 23.1769 8.19163C23.1769 8.37512 23.0281 8.52388 22.8446 8.52388H21.8479C21.6644 8.52388 21.5156 8.37512 21.5156 8.19163Z" fill="#364A5F"/>
<path d="M21.5123 7.19978C21.3825 7.07003 21.3825 6.85966 21.5123 6.72991L22.2053 6.03684C22.3351 5.90709 22.5455 5.90709 22.6752 6.03684C22.805 6.1666 22.805 6.37696 22.6752 6.50672L21.9822 7.19978C21.8524 7.32953 21.642 7.32953 21.5123 7.19978Z" fill="#364A5F"/>
<path d="M21.5123 9.66072C21.3825 9.53097 21.3825 9.3206 21.5123 9.19084C21.642 9.06109 21.8524 9.06109 21.9822 9.19084L22.6752 9.88391C22.805 10.0137 22.805 10.224 22.6752 10.3538C22.5455 10.4835 22.3351 10.4835 22.2053 10.3538L21.5123 9.66072Z" fill="#364A5F"/>
<path d="M3.24219 8.19163C3.24219 8.00813 3.39094 7.85938 3.57444 7.85938H4.57119C4.75469 7.85938 4.90344 8.00813 4.90344 8.19163C4.90344 8.37512 4.75469 8.52388 4.57119 8.52388H3.57444C3.39094 8.52388 3.24219 8.37512 3.24219 8.19163Z" fill="#364A5F"/>
<path d="M3.73884 10.3521C3.60909 10.2224 3.60909 10.012 3.73884 9.88225L4.43191 9.18919C4.56166 9.05943 4.77203 9.05943 4.90178 9.18919C5.03153 9.31894 5.03153 9.52931 4.90178 9.65906L4.20872 10.3521C4.07897 10.4819 3.8686 10.4819 3.73884 10.3521Z" fill="#364A5F"/>
<path d="M3.73884 6.50447C3.60909 6.37472 3.60909 6.16435 3.73884 6.03459C3.8686 5.90484 4.07897 5.90484 4.20872 6.03459L4.90178 6.72766C5.03153 6.85741 5.03153 7.06778 4.90178 7.19753C4.77203 7.32729 4.56166 7.32729 4.43191 7.19753L3.73884 6.50447Z" fill="#364A5F"/>
<path d="M4.26491 22.9985C4.01586 22.9985 3.77888 22.8527 3.67454 22.6092L1.1066 16.6174C1.03954 16.4609 1.03735 16.2842 1.10061 16.1261C1.16387 15.968 1.2873 15.8415 1.44382 15.7745L3.804 14.763C4.12987 14.6234 4.50728 14.7743 4.64697 15.1002L7.21491 21.092C7.28197 21.2485 7.28416 21.4253 7.2209 21.5833C7.15764 21.7414 7.03421 21.8679 6.87769 21.9349L4.5175 22.9464C4.43503 22.9818 4.34926 22.9985 4.26491 22.9985Z" fill="#6B8094"/>
<path d="M16.4901 16.5143C16.4901 17.4004 15.7719 18.1186 14.8859 18.1186H10.1609C9.99923 18.1186 9.83985 18.0736 9.71941 17.9837C9.51398 17.8304 9.45175 17.5925 9.54856 17.3876L10.5576 15.2524C10.6541 15.0482 10.8905 14.9138 11.1539 14.9135L14.8845 14.9102C15.771 14.9093 16.4901 15.6278 16.4901 16.5143Z" fill="#4C6176"/>
<path d="M14.8853 14.918L12.0117 14.9205V18.1265H14.8867C15.7727 18.1265 16.4909 17.4082 16.4909 16.5222C16.4909 15.6357 15.7718 14.9172 14.8853 14.918Z" fill="#4C6176"/>
<path d="M10.1602 19.4083H14.8851C16.4777 19.4083 17.7733 18.1126 17.7733 16.5201C17.7733 16.4871 17.7719 16.4545 17.7708 16.4219L15.999 17.9663C15.882 18.0682 15.7322 18.1243 15.5771 18.1243H10.1602V19.4083Z" fill="#364A5F"/>
<path d="M6.7574 21.9902H15.1821C15.975 21.9902 16.7367 21.6985 17.3266 21.1687L22.4403 16.5771C23.092 15.992 23.1484 14.9902 22.5665 14.3356C21.9866 13.6832 20.9894 13.6197 20.3314 14.1933L16.0008 17.9679C15.8839 18.0698 15.734 18.1259 15.579 18.1259H10.9922L11.7992 15.2208L11.5412 14.9265C10.625 13.8815 9.35713 13.2484 7.97126 13.1441C6.58526 13.0398 5.23705 13.4757 4.17465 14.3717L3.60547 14.8518L6.7574 21.9902Z" fill="#4C6176"/>
<path d="M22.5662 14.3349C21.9863 13.6825 20.9891 13.619 20.3311 14.1926L16.0005 17.9672C15.8836 18.0691 15.7338 18.1252 15.5787 18.1252H12.0117V21.9895H15.1818C15.9747 21.9895 16.7364 21.6978 17.3263 21.168L22.44 16.5764C23.0917 15.9913 23.1481 14.9895 22.5662 14.3349Z" fill="#4C6176"/>
<path d="M16.0005 17.9662C15.8836 18.0681 15.7338 18.1243 15.5787 18.1243H12.0117V19.4083H14.8867C16.4792 19.4083 17.7749 18.1126 17.7749 16.5201C17.7749 16.4871 17.7735 16.4545 17.7724 16.4219L16.0005 17.9662Z" fill="#42576D"/>
</svg>
