<svg width="118" height="32" viewBox="0 0 118 32" fill="none" xmlns="http://www.w3.org/2000/svg">
  <path d="M35.611 24.316V1.505h1.576V22.81h10.791v1.505H35.611Zm20.16.316c-2.444 0-4.333-.793-5.75-2.298-1.335-1.504-2.049-3.64-2.049-6.415 0-2.693.628-4.91 1.97-6.495 1.336-1.665 3.072-2.458 5.355-2.458 1.97 0 3.546.712 4.728 2.062 1.182 1.424 1.73 3.325 1.73 5.703V16H49.548c0 2.297.554 4.118 1.656 5.306 1.022 1.27 2.597 1.82 4.567 1.82.942 0 1.81-.08 2.518-.234a15.118 15.118 0 0 0 2.758-.873v1.504c-.942.396-1.81.712-2.598.873-.88.161-1.779.242-2.678.236Zm-.474-16.236c-1.655 0-2.911.558-3.94 1.585-.941 1.109-1.575 2.613-1.73 4.675h10.398c0-1.981-.394-3.486-1.262-4.594-.788-1.115-1.97-1.666-3.466-1.666Zm14.651-1.35c1.182 0 2.284.236 3.152.632.868.477 1.656 1.189 2.364 2.297h.08c-.08-1.343-.08-2.613-.08-3.882V0h1.495v24.316h-1.022l-.394-2.613c-1.261 1.9-3.151 2.929-5.515 2.929s-4.094-.713-5.356-2.217c-1.261-1.424-1.81-3.567-1.81-6.334 0-2.93.629-5.152 1.81-6.731 1.182-1.585 2.992-2.304 5.276-2.304Zm0 1.35c-1.81 0-3.226.632-4.174 1.982-.941 1.27-1.415 3.17-1.415 5.703 0 4.83 1.89 7.207 5.589 7.207 1.89 0 3.306-.557 4.174-1.666.868-1.108 1.335-2.928 1.335-5.548v-.235c0-2.613-.474-4.514-1.335-5.622-.788-1.27-2.204-1.82-4.174-1.82Zm23.386-1.028v1.109l-3.466.235c.942 1.189 1.416 2.458 1.416 3.802 0 1.666-.554 2.929-1.656 3.963-1.102 1.028-2.518 1.504-4.334 1.504-.788 0-1.336 0-1.576-.08-.627.316-1.102.712-1.416 1.108-.313.477-.474.873-.474 1.424 0 .552.234.948.628 1.19.394.235 1.102.396 2.05.396h2.912c1.81 0 3.225.396 4.173 1.108.949.712 1.496 1.82 1.496 3.325 0 1.82-.708 3.17-2.123 4.118-1.416.947-3.466 1.424-6.144 1.424-2.123 0-3.78-.396-4.961-1.27-1.182-.792-1.73-1.981-1.73-3.405 0-1.189.394-2.136 1.102-2.929.708-.793 1.73-1.27 2.912-1.585-.475-.235-.942-.557-1.182-.947a2.141 2.141 0 0 1-.474-1.344c0-1.108.708-2.136 2.123-3.01-.942-.396-1.73-1.027-2.284-1.9-.553-.873-.787-1.901-.787-3.01 0-1.665.554-3.09 1.576-4.117 1.101-1.028 2.517-1.505 4.333-1.505 1.102 0 1.97.08 2.598.316h5.275v.08h.013ZM79.63 27.17c0 2.297 1.73 3.486 5.195 3.486 4.408 0 6.618-1.424 6.618-4.278 0-1.028-.314-1.74-1.022-2.217-.708-.477-1.81-.712-3.386-.712h-2.758c-3.071.074-4.647 1.263-4.647 3.721Zm1.342-14.576c0 1.344.394 2.298 1.182 3.09.788.712 1.81 1.109 3.151 1.109 1.416 0 2.518-.397 3.226-1.109.788-.712 1.102-1.74 1.102-3.09 0-1.424-.394-2.532-1.182-3.244-.788-.712-1.81-1.109-3.225-1.109-1.336 0-2.444.397-3.152 1.19-.788.705-1.102 1.814-1.102 3.163Z" fill="#FFF"/>
  <path d="M100.973 24.631c-2.444 0-4.334-.792-5.75-2.297-1.335-1.504-2.05-3.64-2.05-6.415 0-2.693.628-4.91 1.97-6.495 1.336-1.666 3.072-2.458 5.356-2.458 1.97 0 3.546.712 4.727 2.062 1.182 1.424 1.73 3.325 1.73 5.703V16H94.829c0 2.297.554 4.118 1.656 5.306 1.022 1.27 2.598 1.82 4.568 1.82.942 0 1.81-.08 2.518-.234a15.139 15.139 0 0 0 2.757-.873v1.504c-.942.396-1.809.712-2.597.873-.868.161-1.736.235-2.758.235Zm-.394-16.235c-1.656 0-2.912.557-3.94 1.585-.942 1.109-1.576 2.613-1.73 4.675h10.397c0-1.981-.393-3.486-1.261-4.594-.788-1.115-1.97-1.666-3.466-1.666Zm15.118-1.35c.708 0 1.496.08 2.284.236l-.314 1.504a9.802 9.802 0 0 0-2.204-.235c-1.415 0-2.597.632-3.545 1.82-.942 1.27-1.416 2.774-1.416 4.675v9.27h-1.576V7.368h1.336l.16 3.09h.08c.708-1.27 1.416-2.136 2.204-2.613.948-.557 1.889-.799 2.991-.799ZM20.573.792H9.308V16h15.118V4.75c.007-2.137-1.73-3.958-3.853-3.958Zm-14.725 0h-1.89a3.963 3.963 0 0 0-3.94 3.963v1.901h5.83V.792Zm-5.83 9.425h5.83v5.863H.018v-5.863Zm18.585 15.207h1.89c2.124 0 3.94-1.74 3.94-3.963v-1.894h-5.83v5.857Zm-9.295-5.857h5.83v5.863h-5.83v-5.863Zm-9.29 0v1.9c0 2.137 1.73 3.963 3.94 3.963h1.89v-5.863H.018Z" fill="#FFF"/>
</svg>
