<svg width="121" height="22" viewBox="0 0 121 22" fill="none" xmlns="http://www.w3.org/2000/svg">
  <path fill-rule="evenodd" clip-rule="evenodd" d="M121 10.924V0h-3.644v.999h2.537v9.925H121ZM89.76 22c-1.768 0-3.367-.39-4.796-1.172a8.735 8.735 0 0 1-3.341-3.238c-.8-1.393-1.2-2.948-1.2-4.664 0-1.717.4-3.263 1.2-4.64a8.63 8.63 0 0 1 3.367-3.262c1.428-.782 3.027-1.173 4.796-1.173 1.326 0 2.551.221 3.673.663a7.614 7.614 0 0 1 2.858 1.937l-1.2 1.198c-1.394-1.41-3.154-2.115-5.28-2.115-1.412 0-2.696.322-3.852.968a7.175 7.175 0 0 0-2.73 2.651c-.646 1.122-.97 2.38-.97 3.773 0 1.393.324 2.65.97 3.772a7.175 7.175 0 0 0 2.73 2.651c1.156.646 2.44.969 3.852.969 2.143 0 3.903-.714 5.28-2.142l1.2 1.199c-.783.85-1.744 1.503-2.883 1.962-1.123.442-2.347.663-3.674.663ZM0 4.004h1.888v16.212h10v1.631H0V4.004Zm18.782 13.077-2.143 4.766h-1.964l8.163-17.843h1.863l8.163 17.843h-1.99l-2.143-4.767h-9.949Zm9.26-1.53-4.285-9.584-4.286 9.584h8.571Zm6.533-9.915h6.275v16.211h1.888V5.636h6.276V4.004h-14.44v1.632Zm23.633 0h-6.276V4.004h14.44v1.632h-6.276v16.211h-1.888V5.636Zm15.527-1.632h-1.888v17.843h1.888V4.004Zm41.694 17.843v-1.631h-10.74v-6.628h9.234v-1.605h-9.234V5.635h10.357V4.004h-12.245v17.843h12.628Z" fill="#FFF"/>
</svg>
