<svg width="120" height="30" viewBox="0 0 120 30" fill="none" xmlns="http://www.w3.org/2000/svg">
  <path d="M15 3.516v2.343h-2.344V3.516H15Zm-2.344 13.77v3.339H15v-3.34h-2.344ZM19.687 30v-2.344h-2.343v-2.343H15V30h4.688Zm4.688-17.402h-7.031v2.343h7.031v-2.343Zm0 4.687h3.281v-2.344h-3.281v2.344Zm0 3.34v2.344H30v-5.684h-2.344v3.34h-3.281ZM17.344 0H15v3.516h2.344V0ZM15 10.547h2.344V5.859H15v2.344h-2.344v6.738H15v-4.394Zm-15 2.05v4.688h2.344v-2.344h3.515v-2.343H0Zm17.344 4.688v-2.344H15v2.344h2.344Zm4.687 2.344h2.344v-2.344h-2.344v2.344Zm5.625-4.688H30v-2.343h-2.344v2.343Zm-7.968 2.344h-2.344v3.34H15v2.344h4.688v-5.684Zm-7.032 8.027H15V22.97h-2.344v2.343Zm7.031-2.343v2.343h4.688V22.97h-4.688Zm7.032 4.687v-2.343h-2.344v2.343h2.344ZM30 30v-2.344h-3.281V30H30Zm-7.969 0h2.344v-2.344h-2.344V30ZM10.547 14.941v-2.343H8.203v2.343H5.86v2.344h6.797v-2.344h-2.11Zm0-4.394H0V0h10.547v10.547ZM8.203 2.344h-5.86v5.86h5.86v-5.86ZM6.445 4.102H4.102v2.343h2.343V4.102ZM30 0v10.547H19.453V0H30Zm-2.344 2.344h-5.86v5.86h5.86v-5.86Zm-1.758 1.758h-2.343v2.343h2.343V4.102ZM0 19.453h10.547V30H0V19.453Zm2.344 8.203h5.86v-5.86h-5.86v5.86Zm1.758-1.758h2.343v-2.343H4.102v2.343ZM48.782 23.226l-2.247-2.314c-.55.155-1.11.233-1.682.233-1.046 0-2-.25-2.862-.75a5.606 5.606 0 0 1-2.054-2.113c-.495-.91-.743-1.931-.743-3.063 0-1.132.247-2.148.743-3.047a5.45 5.45 0 0 1 2.054-2.114 5.514 5.514 0 0 1 2.862-.766c1.056 0 2.016.256 2.878.766a5.367 5.367 0 0 1 2.038 2.098c.495.899.743 1.92.743 3.063 0 1.11-.237 2.108-.711 2.996a5.396 5.396 0 0 1-1.957 2.098l2.846 2.913h-1.908Zm-8.085-8.007c0 .92.178 1.731.534 2.43.366.7.862 1.238 1.487 1.615a4.104 4.104 0 0 0 2.135.566c.787 0 1.493-.189 2.118-.566a3.867 3.867 0 0 0 1.488-1.615c.366-.699.55-1.51.55-2.43 0-.933-.184-1.743-.55-2.43-.356-.7-.846-1.238-1.472-1.615-.625-.378-1.336-.566-2.134-.566-.798 0-1.51.188-2.135.566-.625.377-1.12.915-1.487 1.614-.356.688-.534 1.498-.534 2.43ZM58.42 21.029l-2.684-4.745h-1.778v4.745h-1.472V9.426h3.639c.851 0 1.568.15 2.15.449.593.3 1.035.705 1.326 1.215.291.51.437 1.093.437 1.748 0 .8-.227 1.504-.68 2.114-.441.61-1.11 1.016-2.005 1.216l2.83 4.86h-1.762Zm-4.462-5.96h2.167c.797 0 1.396-.2 1.794-.6.4-.41.599-.954.599-1.63 0-.689-.2-1.222-.599-1.599-.388-.377-.986-.566-1.794-.566h-2.167v4.395ZM68.469 14.286v1.282h-6.452v-1.282h6.452ZM72.701 13.604c.302-.544.744-.988 1.326-1.332.582-.344 1.245-.516 1.99-.516.797 0 1.514.194 2.15.583.636.388 1.137.938 1.504 1.648.366.699.55 1.515.55 2.447 0 .921-.184 1.742-.55 2.464-.367.721-.874 1.282-1.52 1.681-.636.4-1.348.6-2.135.6-.765 0-1.439-.173-2.021-.517-.571-.344-1.002-.782-1.294-1.315v1.681H71.23V8.71h1.471v4.894Zm6.016 2.83c0-.688-.135-1.288-.405-1.798a2.829 2.829 0 0 0-1.1-1.165 2.912 2.912 0 0 0-1.503-.4c-.539 0-1.04.139-1.504.416-.453.267-.82.66-1.1 1.182-.269.51-.404 1.105-.404 1.782 0 .688.135 1.293.405 1.814.28.51.646.904 1.1 1.182.463.266.964.4 1.503.4.55 0 1.051-.134 1.504-.4.463-.277.83-.671 1.1-1.182.269-.521.403-1.132.403-1.831ZM81.607 16.434c0-.932.184-1.748.55-2.447.367-.71.868-1.26 1.504-1.648a4.098 4.098 0 0 1 2.15-.583c.777 0 1.45.172 2.022.516.571.344.997.777 1.277 1.299v-1.665h1.488v9.123H89.11V19.33c-.291.532-.728.976-1.31 1.331-.571.344-1.24.516-2.005.516a3.93 3.93 0 0 1-2.134-.599c-.636-.4-1.137-.96-1.504-1.681-.366-.722-.55-1.543-.55-2.464Zm7.503.017c0-.689-.135-1.288-.404-1.798a2.829 2.829 0 0 0-1.1-1.166 2.821 2.821 0 0 0-1.503-.416c-.55 0-1.051.133-1.504.4-.453.266-.814.655-1.084 1.165-.27.51-.404 1.11-.404 1.798 0 .7.135 1.31.404 1.831.27.51.631.904 1.084 1.182.453.266.954.4 1.504.4s1.05-.134 1.503-.4c.464-.277.83-.671 1.1-1.182.27-.521.404-1.126.404-1.814ZM96.221 21.178c-.679 0-1.288-.116-1.827-.35-.539-.244-.965-.576-1.277-.998a2.75 2.75 0 0 1-.518-1.482h1.52c.043.455.248.827.615 1.116.377.288.867.433 1.471.433.56 0 1.003-.128 1.326-.383.323-.256.485-.578.485-.966 0-.4-.172-.694-.517-.882-.345-.2-.879-.394-1.601-.583a12.89 12.89 0 0 1-1.617-.533 3.076 3.076 0 0 1-1.067-.815c-.291-.367-.437-.844-.437-1.432a2.2 2.2 0 0 1 .404-1.282c.27-.388.653-.693 1.148-.915.496-.233 1.062-.35 1.698-.35.981 0 1.773.255 2.377.766.604.51.927 1.21.97 2.097h-1.471c-.032-.477-.221-.86-.566-1.148-.334-.289-.787-.433-1.358-.433-.528 0-.949.116-1.262.35a1.09 1.09 0 0 0-.468.915c0 .3.091.55.274.75.194.188.432.343.712.465.29.111.69.239 1.196.383.636.178 1.154.355 1.553.533.399.166.738.422 1.018.766.291.344.442.793.453 1.348 0 .5-.135.949-.404 1.349-.27.399-.652.715-1.148.948-.485.222-1.046.333-1.682.333ZM109.617 16.118c0 .288-.016.593-.048.915h-7.083c.054.9.351 1.604.89 2.114.549.5 1.212.75 1.989.75.636 0 1.164-.15 1.584-.45.431-.31.733-.721.906-1.232h1.584a3.963 3.963 0 0 1-1.423 2.148c-.711.543-1.595.815-2.651.815-.841 0-1.596-.194-2.264-.582a4.105 4.105 0 0 1-1.553-1.648c-.377-.722-.565-1.554-.565-2.497 0-.944.183-1.77.549-2.48a3.891 3.891 0 0 1 1.536-1.632c.669-.389 1.434-.583 2.297-.583.84 0 1.584.189 2.231.566a3.8 3.8 0 0 1 1.488 1.565c.355.655.533 1.398.533 2.23Zm-1.52-.317c0-.577-.124-1.07-.372-1.481a2.366 2.366 0 0 0-1.018-.95 2.97 2.97 0 0 0-1.407-.332c-.744 0-1.38.244-1.908.732-.518.489-.814 1.166-.889 2.031h5.594ZM111.01 16.434c0-.932.183-1.748.549-2.447.367-.71.868-1.26 1.504-1.648a4.128 4.128 0 0 1 2.167-.583c.69 0 1.331.167 1.924.5.593.321 1.046.749 1.358 1.281V8.71H120v12.319h-1.488v-1.715c-.291.544-.722.993-1.293 1.348-.572.344-1.24.516-2.005.516-.787 0-1.504-.2-2.151-.599-.636-.4-1.137-.96-1.504-1.681-.366-.722-.549-1.543-.549-2.464Zm7.502.017c0-.689-.134-1.288-.404-1.798a2.827 2.827 0 0 0-1.099-1.166 2.822 2.822 0 0 0-1.504-.416c-.55 0-1.051.133-1.504.4-.453.266-.814.655-1.083 1.165-.27.51-.405 1.11-.405 1.798 0 .7.135 1.31.405 1.831.269.51.63.904 1.083 1.182.453.266.954.4 1.504.4s1.051-.134 1.504-.4c.463-.277.83-.671 1.099-1.182.27-.521.404-1.126.404-1.814Z" fill="#FFF"/>
</svg>
