<svg width="130" height="40" viewBox="0 0 130 40" fill="none" xmlns="http://www.w3.org/2000/svg">
  <path d="M18.549 3.754c-4.465 0-8.086 3.638-8.086 8.127v3.038c-1.567.282-3.148.671-3.148 1.169v15.92s0 .447.483.64c1.787.715 8.8 3.214 10.41 3.786.213.075.257.073.33.073.078 0 .118.003.328-.072 1.607-.57 8.645-3.076 10.42-3.782.462-.184.475-.638.475-.638V16.088c0-.497-1.56-.887-3.127-1.169V11.88c0-4.488-3.62-8.126-8.085-8.126Zm0 3.884c2.627 0 4.224 1.603 4.224 4.243v2.647a54.919 54.919 0 0 0-8.451 0V11.88c0-2.64 1.6-4.243 4.227-4.243Zm-.01 10.798c3.674.006 6.763.281 6.763.807v9.92c0 .145-.023.169-.16.22-.136.053-6.282 2.285-6.282 2.285s-.252.085-.321.085c-.079 0-.331-.088-.331-.088s-6.143-2.23-6.281-2.283c-.138-.052-.156-.079-.156-.225v-9.915c0-.54 3.093-.812 6.767-.806ZM40.177 29.303v-10.87h-3.942v-3.895h12.312v3.896h-3.92v10.869h-4.45ZM58.524 29.303l-2.026-4.649H54.89v4.649h-4.449V14.538h7.84c3.436 0 5.286 2.302 5.286 5.069 0 2.546-1.475 3.896-2.642 4.472l2.665 5.224h-5.066Zm.528-9.718c0-.797-.705-1.152-1.453-1.152h-2.71v2.325h2.71c.748 0 1.453-.354 1.453-1.173ZM65.897 29.303V14.538h11.144v3.896h-6.695v1.461h6.541v3.896h-6.541v1.616h6.695v3.896H65.897ZM79.357 29.306v-3.542l5.594-7.327h-5.594V14.54h11.474v3.52l-5.616 7.349h5.77v3.896H79.357ZM92.075 21.935c0-4.539 3.501-7.638 8.038-7.638 4.537 0 8.039 3.1 8.039 7.638 0 4.537-3.502 7.636-8.039 7.636s-8.038-3.099-8.038-7.636Zm11.562 0c0-2.06-1.387-3.697-3.524-3.697-2.136 0-3.524 1.638-3.524 3.697 0 2.058 1.388 3.696 3.524 3.696 2.137 0 3.524-1.638 3.524-3.696ZM118.129 29.306l-2.025-4.649h-1.608v4.649h-4.449V14.54h7.841c3.436 0 5.286 2.302 5.286 5.069 0 2.546-1.476 3.896-2.644 4.472l2.665 5.224h-5.066Zm.529-9.718c0-.797-.704-1.152-1.453-1.152h-2.71v2.325h2.71c.748 0 1.453-.354 1.453-1.173Z" fill="#FFF"/>
</svg>
