<svg width="20" height="20" viewBox="0 0 20 20" fill="none" xmlns="http://www.w3.org/2000/svg">
<g clip-path="url(#clip0_9484_132153)">
<path d="M16.97 0.303047C16.97 0.135703 16.8343 0 16.667 0H3.33238C3.165 0 3.0293 0.135703 3.0293 0.303086V7.37109V10.814L4.24164 11.6747L8.29062 14.548H8.29652L10.0002 13.3357L11.7086 14.548L15.7576 11.6747L16.97 10.814V7.37109L16.97 0.303047Z" fill="#E6E9ED"/>
<path d="M0.605469 9.0943L3.03016 10.8158V6.96875C3.03016 6.96871 0.605469 8.37863 0.605469 9.0943Z" fill="#F6BB42"/>
<path d="M15.4551 1.21094H4.54527C4.37789 1.21094 4.24219 1.34664 4.24219 1.51402V11.6733L8.29117 14.5466H8.29707L10.0007 13.3343L11.7091 14.5466L15.7582 11.6733V1.51402C15.7582 1.34664 15.6225 1.21094 15.4551 1.21094Z" fill="#F5F7FA"/>
<path d="M12.7261 10H7.27184C7.10371 10 6.96875 10.135 6.96875 10.3032C6.96875 10.4701 7.10371 10.6062 7.27184 10.6062H12.7262C12.8943 10.6062 13.0293 10.4701 13.0293 10.3032C13.0292 10.1351 12.8943 10 12.7261 10Z" fill="#656D78"/>
<path d="M11.5156 11.2109H8.48473C8.3166 11.2109 8.18164 11.3459 8.18164 11.514C8.18164 11.681 8.3166 11.8171 8.48473 11.8171H11.5156C11.6826 11.8171 11.8187 11.681 11.8187 11.514C11.8187 11.3459 11.6825 11.2109 11.5156 11.2109Z" fill="#656D78"/>
<path d="M16.9709 10.8152L15.7585 11.6759L11.7107 14.5493H8.29738H8.29148L4.2425 11.6759L3.03016 10.8152L0.605469 9.09375V18.7925C0.605469 19.1571 0.770039 19.4803 1.02457 19.7018H1.0234C1.02457 19.7029 1.02578 19.7029 1.02695 19.7041C1.22469 19.8746 1.47328 19.9859 1.75035 19.9989H18.2625C18.4022 19.993 18.5289 19.9563 18.6509 19.9078H18.6568C19.0925 19.7266 19.3955 19.2957 19.3955 18.7925V9.09379L16.9709 10.8152Z" fill="#FFCE54"/>
<path d="M19.3198 19.1953L12.2364 14.1719L11.7107 14.546H8.29738H8.29148L7.76582 14.173L0.683594 19.1929C0.754648 19.3894 0.869492 19.5635 1.02457 19.6972L1.0234 19.6984C1.02457 19.6984 1.02578 19.6996 1.02695 19.7008C1.22469 19.8713 1.47328 19.9826 1.75035 19.9956H18.2625C18.4022 19.9896 18.5289 19.953 18.6508 19.9044H18.6568C18.9681 19.7742 19.2061 19.5149 19.3198 19.1953Z" fill="#F6BB42"/>
<path d="M18.1838 9.95441V18.7925C18.1838 19.2956 17.8807 19.7266 17.445 19.9077H17.4391C17.3172 19.9563 17.1905 19.993 17.0508 19.9989H18.2631C18.4028 19.993 18.5295 19.9563 18.6514 19.9077H18.6573C19.093 19.7266 19.3961 19.2956 19.3961 18.7925V9.09375L18.1838 9.95441Z" fill="#F6BB42"/>
<path d="M16.6671 0H15.7578V11.6746L16.9702 10.8139V7.37109V0.303086V0.303047C16.9701 0.135703 16.8345 0 16.6671 0Z" fill="#DADDE1"/>
<path d="M1.81641 9.955L3.02871 10.8158V6.96875C3.02871 6.96875 2.42254 7.32121 1.81641 7.76316V9.955Z" fill="#DCA746"/>
<path d="M19.3954 9.0943L16.9707 10.8158V6.96875C16.9707 6.96875 19.3954 8.37863 19.3954 9.0943Z" fill="#F6BB42"/>
<path d="M18.183 9.955L16.9707 10.8158V6.96875C16.9707 6.96875 17.5769 7.32121 18.183 7.76312V9.955Z" fill="#DCA746"/>
<path d="M11.7096 14.5496L10.2278 13.5092H10.2277C10.1722 13.4462 10.0911 13.4062 10.0005 13.4062C9.90996 13.4062 9.82891 13.4462 9.77336 13.5092H9.77301L8.2975 14.5496H8.2916L1.02344 19.7021C1.21762 19.8714 1.47215 19.9804 1.75039 19.9993H18.2626C18.4023 19.9934 18.529 19.9567 18.6509 19.9081H18.6568C18.7717 19.8536 18.8806 19.7862 18.9777 19.7021L11.7096 14.5496Z" fill="#FFCE54"/>
<path fill-rule="evenodd" clip-rule="evenodd" d="M14.4453 3.60236L15.5226 3.01045C15.557 2.99254 15.5901 3.00305 15.6099 3.02602L15.6124 3.02624C15.6335 3.05149 15.6377 3.09076 15.6082 3.12162L14.5016 4.22829C14.3585 4.37136 14.172 4.46393 13.9714 4.49198L12.9952 4.62804C12.8423 4.64908 12.6992 4.71079 12.5786 4.80617L12.3296 5.00282L12.4618 5.05891C12.661 5.14447 12.7395 5.38572 12.6287 5.57227L10.7071 8.80812C10.6734 8.86282 10.6201 8.9021 10.5584 8.91753L10.4342 8.94824L10.431 8.95477C10.1884 9.01508 9.93591 9.01508 9.69326 8.95477L9.68958 8.94709L9.57 8.91753C9.50828 8.9021 9.45498 8.86282 9.42132 8.80812L7.49973 5.57227C7.38892 5.38572 7.46747 5.14447 7.66664 5.05891L7.80352 5.00084L7.5507 4.80116C7.43008 4.70579 7.28701 4.64407 7.13413 4.62303L6.1579 4.48698C5.95732 4.45892 5.77078 4.36635 5.62771 4.22328L4.52104 3.11661C4.49158 3.08576 4.49579 3.04648 4.51683 3.02124L4.52274 3.02025C4.54298 3.00038 4.57505 2.99231 4.60594 3.00905L5.68456 3.60095C5.93984 3.74262 6.22738 3.81555 6.51912 3.81555H7.48132C7.76605 3.81555 8.04938 3.86885 8.31448 3.97265L8.8129 4.16807L9.50331 4.06031L9.54141 4.05434C9.70972 4.02788 9.88704 4 10.0644 4C10.2417 4 10.419 4.02788 10.5873 4.05434L10.6254 4.06031L11.3174 4.16872L11.8154 3.97405C12.0805 3.87026 12.3638 3.81696 12.6486 3.81696H13.6108C13.9025 3.81696 14.1887 3.74262 14.4453 3.60236Z" fill="#2C81FC"/>
</g>
<defs>
<clipPath id="clip0_9484_132153">
<rect width="20" height="20" fill="white"/>
</clipPath>
</defs>
</svg>
