<svg width="20" height="20" viewBox="0 0 20 20" fill="none" xmlns="http://www.w3.org/2000/svg">
<g clip-path="url(#clip0_9484_136225)">
<path d="M16.972 0.303047C16.972 0.135703 16.8363 0 16.6689 0H3.33434C3.16695 0 3.03125 0.135703 3.03125 0.303086V7.37109V10.814L4.24359 11.6747L8.29258 14.548H8.29848L10.0021 13.3357L11.7105 14.548L15.7596 11.6747L16.9719 10.814V7.37109L16.972 0.303047Z" fill="#364A5F"/>
<path d="M0.605469 9.09234L3.03016 10.8138V6.9668C3.03016 6.96676 0.605469 8.37668 0.605469 9.09234Z" fill="#4C6176"/>
<path d="M15.4551 1.21191H4.54527C4.37789 1.21191 4.24219 1.34762 4.24219 1.515V11.6743L8.29117 14.5476H8.29707L10.0007 13.3353L11.7091 14.5476L15.7582 11.6743V1.515C15.7582 1.34762 15.6225 1.21191 15.4551 1.21191Z" fill="#4C6176"/>
<path d="M12.7261 10.002H7.27184C7.10371 10.002 6.96875 10.137 6.96875 10.3051C6.96875 10.4721 7.10371 10.6082 7.27184 10.6082H12.7262C12.8943 10.6082 13.0293 10.4721 13.0293 10.3051C13.0292 10.137 12.8943 10.002 12.7261 10.002Z" fill="#6B8094"/>
<path d="M11.5137 11.2148H8.48277C8.31465 11.2148 8.17969 11.3498 8.17969 11.5179C8.17969 11.6849 8.31465 11.821 8.48277 11.821H11.5137C11.6806 11.821 11.8168 11.6849 11.8168 11.5179C11.8168 11.3498 11.6805 11.2148 11.5137 11.2148Z" fill="#6B8094"/>
<path d="M16.9709 10.8162L15.7585 11.6769L11.7107 14.5502H8.29738H8.29148L4.2425 11.6769L3.03016 10.8162L0.605469 9.09473V18.7935C0.605469 19.1581 0.770039 19.4813 1.02457 19.7027H1.0234C1.02457 19.7039 1.02578 19.7039 1.02695 19.7051C1.22469 19.8756 1.47328 19.9869 1.75035 19.9999H18.2625C18.4022 19.994 18.5289 19.9573 18.6509 19.9087H18.6568C19.0925 19.7276 19.3955 19.2966 19.3955 18.7935V9.09477L16.9709 10.8162Z" fill="#364A5F"/>
<path d="M19.3198 19.1972L12.2364 14.1738L11.7107 14.548H8.29738H8.29148L7.76582 14.175L0.683594 19.1948C0.754648 19.3914 0.869492 19.5654 1.02457 19.6992L1.0234 19.7004C1.02457 19.7004 1.02578 19.7015 1.02695 19.7027C1.22469 19.8732 1.47328 19.9845 1.75035 19.9975H18.2625C18.4022 19.9916 18.5289 19.9549 18.6508 19.9064H18.6568C18.9681 19.7762 19.2061 19.5169 19.3198 19.1972Z" fill="#314356"/>
<path d="M18.1838 9.95539V18.7934C18.1838 19.2966 17.8807 19.7275 17.445 19.9087H17.4391C17.3172 19.9572 17.1905 19.9939 17.0508 19.9999H18.2631C18.4028 19.994 18.5295 19.9573 18.6514 19.9087H18.6573C19.093 19.7276 19.3961 19.2966 19.3961 18.7934V9.09473L18.1838 9.95539Z" fill="#314356"/>
<path d="M16.6671 0H15.7578V11.6746L16.9702 10.8139V7.37109V0.303086V0.303047C16.9701 0.135703 16.8345 0 16.6671 0Z" fill="#364A5F"/>
<path d="M1.81641 9.95305L3.02871 10.8138V6.9668C3.02871 6.9668 2.42254 7.31926 1.81641 7.76121V9.95305Z" fill="#314356"/>
<path d="M19.3934 9.09723L16.9688 10.8187V6.97168C16.9687 6.97168 19.3934 8.38156 19.3934 9.09723Z" fill="#4C6176"/>
<path d="M18.1811 9.95793L16.9688 10.8187V6.97168C16.9688 6.97168 17.5749 7.32414 18.1811 7.76605V9.95793Z" fill="#314356"/>
<path d="M11.7096 14.5477L10.2278 13.5072H10.2277C10.1722 13.4442 10.0911 13.4043 10.0005 13.4043C9.90996 13.4043 9.82891 13.4443 9.77336 13.5072H9.77301L8.2975 14.5477H8.2916L1.02344 19.7002C1.21762 19.8695 1.47215 19.9784 1.75039 19.9973H18.2626C18.4023 19.9914 18.529 19.9547 18.6509 19.9062H18.6568C18.7717 19.8517 18.8806 19.7843 18.9777 19.7002L11.7096 14.5477Z" fill="#364A5F"/>
<path d="M13.6212 7.4396C13.6415 5.77986 11.516 5.62215 9.99963 5.4541C8.53338 5.59582 6.30332 5.82956 6.3781 7.4396C6.3076 7.99031 6.47162 8.65785 7.24214 8.77673C9.04534 9.19504 10.9539 9.19504 12.7571 8.77673C13.5274 8.65789 13.6918 7.99044 13.6212 7.4396Z" fill="#364A5F"/>
<path d="M10.0018 2.27246C7.57762 2.28458 7.5774 5.89632 10.0018 5.90882C12.4259 5.89666 12.4261 2.28497 10.0018 2.27246Z" fill="#314356"/>
</g>
<defs>
<clipPath id="clip0_9484_136225">
<rect width="20" height="20" fill="white"/>
</clipPath>
</defs>
</svg>
