<svg width="24" height="24" viewBox="0 0 24 24" fill="none" xmlns="http://www.w3.org/2000/svg">
<g clip-path="url(#clip0_9484_132110)">
<path d="M18.97 2.30305C18.97 2.1357 18.8343 2 18.667 2H5.33238C5.165 2 5.0293 2.1357 5.0293 2.30309V9.37109V12.814L6.24164 13.6747L10.2906 16.548H10.2965L12.0002 15.3357L13.7086 16.548L17.7576 13.6747L18.97 12.814V9.37109L18.97 2.30305Z" fill="#E6E9ED"/>
<path d="M2.60547 11.0923L5.03016 12.8138V8.9668C5.03016 8.96676 2.60547 10.3767 2.60547 11.0923Z" fill="#F6BB42"/>
<path d="M17.4551 3.21191H6.54527C6.37789 3.21191 6.24219 3.34762 6.24219 3.515V13.6743L10.2912 16.5476H10.2971L12.0007 15.3353L13.7091 16.5476L17.7582 13.6743V3.515C17.7582 3.34762 17.6225 3.21191 17.4551 3.21191Z" fill="#F5F7FA"/>
<path d="M14.7281 12.002H9.27379C9.10566 12.002 8.9707 12.137 8.9707 12.3051C8.9707 12.4721 9.10566 12.6082 9.27379 12.6082H14.7282C14.8963 12.6082 15.0312 12.4721 15.0312 12.3051C15.0312 12.137 14.8962 12.002 14.7281 12.002Z" fill="#656D78"/>
<path d="M13.5176 13.2148H10.4867C10.3186 13.2148 10.1836 13.3498 10.1836 13.5179C10.1836 13.6849 10.3186 13.821 10.4867 13.821H13.5176C13.6845 13.821 13.8207 13.6849 13.8207 13.5179C13.8207 13.3498 13.6845 13.2148 13.5176 13.2148Z" fill="#656D78"/>
<path d="M18.9709 12.8162L17.7585 13.6769L13.7107 16.5502H10.2974H10.2915L6.2425 13.6769L5.03016 12.8162L2.60547 11.0947V20.7935C2.60547 21.1581 2.77004 21.4813 3.02457 21.7027H3.0234C3.02457 21.7039 3.02578 21.7039 3.02695 21.7051C3.22469 21.8756 3.47328 21.9869 3.75035 21.9999H20.2625C20.4022 21.994 20.5289 21.9573 20.6509 21.9087H20.6568C21.0925 21.7276 21.3955 21.2966 21.3955 20.7935V11.0948L18.9709 12.8162Z" fill="#FFCE54"/>
<path d="M21.3198 21.1972L14.2364 16.1738L13.7107 16.548H10.2974H10.2915L9.76582 16.175L2.68359 21.1948C2.75465 21.3914 2.86949 21.5654 3.02457 21.6992L3.0234 21.7004C3.02457 21.7004 3.02578 21.7015 3.02695 21.7027C3.22469 21.8732 3.47328 21.9845 3.75035 21.9975H20.2625C20.4022 21.9916 20.5289 21.9549 20.6508 21.9064H20.6568C20.9681 21.7762 21.2061 21.5169 21.3198 21.1972Z" fill="#F6BB42"/>
<path d="M20.1838 11.9554V20.7934C20.1838 21.2966 19.8807 21.7275 19.445 21.9087H19.4391C19.3172 21.9572 19.1905 21.9939 19.0508 21.9999H20.2631C20.4028 21.994 20.5295 21.9573 20.6514 21.9087H20.6573C21.093 21.7276 21.3961 21.2966 21.3961 20.7934V11.0947L20.1838 11.9554Z" fill="#F6BB42"/>
<path d="M18.6671 2H17.7578V13.6746L18.9702 12.8139V9.37109V2.30309V2.30305C18.9701 2.1357 18.8345 2 18.6671 2Z" fill="#DADDE1"/>
<path d="M3.81641 11.953L5.02871 12.8138V8.9668C5.02871 8.9668 4.42254 9.31926 3.81641 9.76121V11.953Z" fill="#DCA746"/>
<path d="M21.3954 11.0972L18.9707 12.8187V8.97168C18.9707 8.97168 21.3954 10.3816 21.3954 11.0972Z" fill="#F6BB42"/>
<path d="M20.183 11.9579L18.9707 12.8187V8.97168C18.9707 8.97168 19.5769 9.32414 20.183 9.76605V11.9579Z" fill="#DCA746"/>
<path d="M13.7096 16.5477L12.2278 15.5072H12.2277C12.1722 15.4442 12.0911 15.4043 12.0005 15.4043C11.91 15.4043 11.8289 15.4443 11.7734 15.5072H11.773L10.2975 16.5477H10.2916L3.02344 21.7002C3.21762 21.8695 3.47215 21.9784 3.75039 21.9973H20.2626C20.4023 21.9914 20.529 21.9547 20.6509 21.9062H20.6568C20.7717 21.8517 20.8806 21.7843 20.9777 21.7002L13.7096 16.5477Z" fill="#FFCE54"/>
<path d="M15.6212 9.4396C15.6415 7.77986 13.516 7.62215 11.9996 7.4541C10.5334 7.59582 8.30332 7.82956 8.3781 9.4396C8.3076 9.99031 8.47162 10.6578 9.24214 10.7767C11.0453 11.195 12.9539 11.195 14.7571 10.7767C15.5274 10.6579 15.6918 9.99044 15.6212 9.4396Z" fill="#FFC107"/>
<path d="M11.9999 4.27246C9.57567 4.28458 9.57545 7.89632 11.9999 7.90882C14.424 7.89666 14.4241 4.28497 11.9999 4.27246Z" fill="#FFA000"/>
</g>
<defs>
<clipPath id="clip0_9484_132110">
<rect width="20" height="20" fill="white" transform="translate(2 2)"/>
</clipPath>
</defs>
</svg>
