<svg width="20" height="20" viewBox="0 0 20 20" fill="none" xmlns="http://www.w3.org/2000/svg">
<g clip-path="url(#clip0_9484_134707)">
<path d="M16.972 0.303047C16.972 0.135703 16.8363 0 16.6689 0H3.33434C3.16695 0 3.03125 0.135703 3.03125 0.303086V7.37109V10.814L4.24359 11.6747L8.29258 14.548H8.29848L10.0021 13.3357L11.7105 14.548L15.7596 11.6747L16.9719 10.814V7.37109L16.972 0.303047Z" fill="#364A5F"/>
<path d="M0.605469 9.0943L3.03016 10.8158V6.96875C3.03016 6.96871 0.605469 8.37863 0.605469 9.0943Z" fill="#4C6176"/>
<path d="M15.4551 1.21094H4.54527C4.37789 1.21094 4.24219 1.34664 4.24219 1.51402V11.6733L8.29117 14.5466H8.29707L10.0007 13.3343L11.7091 14.5466L15.7582 11.6733V1.51402C15.7582 1.34664 15.6225 1.21094 15.4551 1.21094Z" fill="#4C6176"/>
<path d="M12.7261 10H7.27184C7.10371 10 6.96875 10.135 6.96875 10.3032C6.96875 10.4701 7.10371 10.6062 7.27184 10.6062H12.7262C12.8943 10.6062 13.0293 10.4701 13.0293 10.3032C13.0292 10.1351 12.8943 10 12.7261 10Z" fill="#6B8094"/>
<path d="M11.5137 11.2109H8.48277C8.31465 11.2109 8.17969 11.3459 8.17969 11.514C8.17969 11.681 8.31465 11.8171 8.48277 11.8171H11.5137C11.6806 11.8171 11.8168 11.681 11.8168 11.514C11.8168 11.3459 11.6805 11.2109 11.5137 11.2109Z" fill="#6B8094"/>
<path d="M16.9709 10.8152L15.7585 11.6759L11.7107 14.5493H8.29738H8.29148L4.2425 11.6759L3.03016 10.8152L0.605469 9.09375V18.7925C0.605469 19.1571 0.770039 19.4803 1.02457 19.7018H1.0234C1.02457 19.7029 1.02578 19.7029 1.02695 19.7041C1.22469 19.8746 1.47328 19.9859 1.75035 19.9989H18.2625C18.4022 19.993 18.5289 19.9563 18.6509 19.9078H18.6568C19.0925 19.7266 19.3955 19.2957 19.3955 18.7925V9.09379L16.9709 10.8152Z" fill="#364A5F"/>
<path d="M19.3198 19.1953L12.2364 14.1719L11.7107 14.546H8.29738H8.29148L7.76582 14.173L0.683594 19.1929C0.754648 19.3894 0.869492 19.5635 1.02457 19.6972L1.0234 19.6984C1.02457 19.6984 1.02578 19.6996 1.02695 19.7008C1.22469 19.8713 1.47328 19.9826 1.75035 19.9956H18.2625C18.4022 19.9896 18.5289 19.953 18.6508 19.9044H18.6568C18.9681 19.7742 19.2061 19.5149 19.3198 19.1953Z" fill="#314356"/>
<path d="M18.1838 9.95441V18.7925C18.1838 19.2956 17.8807 19.7266 17.445 19.9077H17.4391C17.3172 19.9563 17.1905 19.993 17.0508 19.9989H18.2631C18.4028 19.993 18.5295 19.9563 18.6514 19.9077H18.6573C19.093 19.7266 19.3961 19.2956 19.3961 18.7925V9.09375L18.1838 9.95441Z" fill="#314356"/>
<path d="M16.6671 0H15.7578V11.6746L16.9702 10.8139V7.37109V0.303086V0.303047C16.9701 0.135703 16.8345 0 16.6671 0Z" fill="#364A5F"/>
<path d="M1.81641 9.955L3.02871 10.8158V6.96875C3.02871 6.96875 2.42254 7.32121 1.81641 7.76316V9.955Z" fill="#314356"/>
<path d="M19.3934 9.0982L16.9688 10.8197V6.97266C16.9687 6.97266 19.3934 8.38254 19.3934 9.0982Z" fill="#4C6176"/>
<path d="M18.1811 9.95891L16.9688 10.8197V6.97266C16.9688 6.97266 17.5749 7.32512 18.1811 7.76703V9.95891Z" fill="#314356"/>
<path d="M11.7096 14.5496L10.2278 13.5092H10.2277C10.1722 13.4462 10.0911 13.4062 10.0005 13.4062C9.90996 13.4062 9.82891 13.4462 9.77336 13.5092H9.77301L8.2975 14.5496H8.2916L1.02344 19.7021C1.21762 19.8714 1.47215 19.9804 1.75039 19.9993H18.2626C18.4023 19.9934 18.529 19.9567 18.6509 19.9081H18.6568C18.7717 19.8536 18.8806 19.7862 18.9777 19.7021L11.7096 14.5496Z" fill="#364A5F"/>
<path fill-rule="evenodd" clip-rule="evenodd" d="M14.4473 3.60236L15.5245 3.01045C15.559 2.99249 15.5922 3.0031 15.612 3.0262L15.6124 3.02624C15.6335 3.05149 15.6377 3.09076 15.6082 3.12162L14.5016 4.22829C14.3585 4.37136 14.172 4.46393 13.9714 4.49198L12.9952 4.62804C12.8423 4.64908 12.6992 4.71079 12.5786 4.80617L12.3264 5.00536L12.4618 5.06282C12.661 5.14838 12.7395 5.38963 12.6287 5.57618L10.7071 8.81203C10.6734 8.86673 10.6201 8.906 10.5584 8.92143L10.4343 8.95213L10.433 8.95477C10.1903 9.01508 9.93786 9.01508 9.69521 8.95477L9.69392 8.95206L9.57 8.92143C9.50828 8.906 9.45498 8.86673 9.42132 8.81203L7.49973 5.57618C7.38892 5.38963 7.46747 5.14838 7.66664 5.06282L7.80352 5.00474L7.5507 4.80507C7.43008 4.70969 7.28701 4.64798 7.13413 4.62694L6.1579 4.49088C5.95732 4.46283 5.77078 4.37026 5.62771 4.22719L4.52104 3.12052C4.49158 3.08966 4.49579 3.05039 4.51683 3.02514L4.5207 3.0245C4.54053 3.00161 4.57489 2.99117 4.6079 3.00905L5.68651 3.60095C5.94179 3.74262 6.22933 3.81555 6.52107 3.81555H7.48327C7.76801 3.81555 8.05133 3.86885 8.31643 3.97265L8.82142 4.17065L9.50331 4.06422L9.54141 4.05824C9.70972 4.03178 9.88704 4.00391 10.0644 4.00391C10.2417 4.00391 10.419 4.03178 10.5873 4.05824L10.6254 4.06422L11.3117 4.17172L11.8174 3.97405C12.0825 3.87026 12.3658 3.81696 12.6505 3.81696H13.6127C13.9045 3.81696 14.1906 3.74262 14.4473 3.60236Z" fill="#364A5F"/>
</g>
<defs>
<clipPath id="clip0_9484_134707">
<rect width="20" height="20" fill="white"/>
</clipPath>
</defs>
</svg>
