<svg width="20" height="20" viewBox="0 0 20 20" fill="none" xmlns="http://www.w3.org/2000/svg">
  <path d="m8.462 14.72-2.12 2.12a2.249 2.249 0 1 1-3.183-3.18l4.243-4.243a2.25 2.25 0 0 1 3.181 0 .75.75 0 1 0 1.06-1.06 3.75 3.75 0 0 0-5.302 0l-4.243 4.242a3.75 3.75 0 1 0 5.304 5.303l2.12-2.122a.75.75 0 1 0-1.06-1.06Z" fill="#2C81FC"/>
  <path d="M17.9 2.098a3.75 3.75 0 0 0-5.303 0l-2.544 2.545a.75.75 0 1 0 1.06 1.06l2.545-2.544A2.25 2.25 0 0 1 16.84 6.34l-4.666 4.667a2.25 2.25 0 0 1-3.182 0 .75.75 0 0 0-1.06 1.06 3.75 3.75 0 0 0 5.302 0l4.667-4.666a3.75 3.75 0 0 0 0-5.303Z" fill="#2C81FC"/>
</svg>
