<svg width="240" height="130" viewBox="0 0 240 130" fill="none" xmlns="http://www.w3.org/2000/svg">
  <path d="M132.065 23.166c-3.866-.604-7.973-1.298-12.08-1.298-4.108 0-8.215.694-12.081 1.298l-16.64 2.598 28.691 32.556 28.69-32.556-16.58-2.598Z" fill="url(#a)"/>
  <path d="M239.43.727c.453.544.543 1.39-.091 2.054L215.51 26.609a20.088 20.088 0 0 1-11.416 5.678l-21.019 2.93a18.507 18.507 0 0 0-8.97 3.835l-10.057 7.943-9.634-5.316v-9.09l16.429-8.003 31.983-2.537L238.735.667l.695.06Z" fill="url(#b)"/>
  <path d="M.54.727c-.453.544-.543 1.39.09 2.054l23.83 23.828a20.09 20.09 0 0 0 11.415 5.678l21.02 2.93a18.508 18.508 0 0 1 8.97 3.835l10.056 7.943 9.635-5.315v-9.09l-16.43-8.004-31.982-2.537L1.265.606.54.727Z" fill="url(#c)"/>
  <path d="m237.526.365-23.194 12.744c-5.527 3.02-11.688 4.621-17.969 4.621h-20.718a49.27 49.27 0 0 0-17.94 3.383l-35.153 13.741a7.084 7.084 0 0 1-5.104 0L82.324 21.082a49.268 49.268 0 0 0-17.94-3.382H43.668c-6.282 0-12.473-1.57-17.97-4.62L2.473.333A1.496 1.496 0 0 0 .57.697l28.268 20.808a17.105 17.105 0 0 0 8.85 3.262l24.734 1.782A22.99 22.99 0 0 1 72.72 29.84l4.983 3.05c3.111 1.903 2.779 6.523-.574 7.973l-1.751.755-4.047 1.721 40.681 85.016a32.862 32.862 0 0 0 15.885 0l40.711-84.985-4.047-1.722-1.752-.755c-3.352-1.45-3.684-6.07-.573-7.973l4.983-3.05a23.23 23.23 0 0 1 10.298-3.292l24.735-1.782c3.201-.242 6.282-1.359 8.849-3.262L239.429.727c-.423-.513-1.148-.755-1.903-.362Z" fill="url(#d)"/>
  <path d="M175.192 55.693c2.386-4.017.695-9.212-3.594-11.054l-2.99-1.268-24.674 19.48a10.145 10.145 0 0 0-3.624 5.737l-12.382 59.798 2.688-.664a5.268 5.268 0 0 0 3.201-2.356l41.375-69.673Z" fill="url(#e)"/>
  <path d="M64.777 55.693c-2.386-4.017-.695-9.212 3.594-11.054l2.99-1.268 24.674 19.48a10.141 10.141 0 0 1 3.624 5.737l12.382 59.798-2.688-.664a5.268 5.268 0 0 1-3.201-2.356L64.777 55.693Z" fill="url(#f)"/>
  <path d="m168.639 43.552 2.899 1.238a7.519 7.519 0 0 1 4.198 4.59 7.56 7.56 0 0 1-.694 6.192l-3.081 5.194.393.03 2.99-5.043c1.177-1.963 1.419-4.319.724-6.493a7.804 7.804 0 0 0-4.409-4.802l-2.718-1.148 5.255-4.137-.212-.272-5.405 4.258-5.678-2.416c-1.51-.634-2.507-2.023-2.597-3.654a4.257 4.257 0 0 1 2.053-3.987l-.181-.302c-1.51.937-2.356 2.537-2.235 4.319s1.178 3.262 2.839 3.956l5.497 2.356M127.777 128.235a33.741 33.741 0 0 1-7.792.936v.363c2.688 0 5.376-.332 7.973-.967l2.688-.664c1.359-.332 2.567-1.238 3.292-2.446l-.302-.182c-.664 1.148-1.812 1.963-3.08 2.296l-2.416.604-.363.06ZM25.577 13.26a37.796 37.796 0 0 0 18.06 4.621h20.718v-.362H43.637c-6.251 0-12.442-1.6-17.909-4.59l-.15.331ZM28.718 21.686c2.627 1.933 5.708 3.08 8.94 3.292l24.734 1.782c3.594.272 7.157 1.39 10.238 3.262l.181-.302a23.516 23.516 0 0 0-10.39-3.322l-24.734-1.782a17.03 17.03 0 0 1-8.758-3.232l-.211.302ZM71.392 43.16l-5.406-4.26c-2.628-2.053-5.769-3.412-9.06-3.865l-21.02-2.93a20.08 20.08 0 0 1-11.325-5.647l-.242.242a20.423 20.423 0 0 0 11.506 5.738l21.02 2.93a18.274 18.274 0 0 1 8.88 3.805l5.254 4.137-2.718 1.148c-2.084.906-3.715 2.657-4.41 4.802l.333.12a7.52 7.52 0 0 1 4.198-4.59l2.9-1.238L95.884 62.97a10.14 10.14 0 0 1 3.563 5.647l10.359 49.983.363-.061-10.36-49.982c-.513-2.295-1.841-4.38-3.684-5.859L76.043 46.844l-4.35-3.413" fill="#11192A"/>
  <path d="m100.717 116.517 5.285 8.91c.725 1.208 1.933 2.114 3.292 2.446.664.151 2.688.664 2.688.664 2.597.635 5.285.967 7.973.967l.151-.181-.151-.182c-2.628 0-5.255-.302-7.792-.936l-1.993-9.694-.182-.061-.151.121 1.964 9.544-2.417-.604a4.928 4.928 0 0 1-3.08-2.296l-5.315-8.939-.212-.03-.06.271Z" fill="url(#g)"/>
  <path d="M64.355 17.881c6.13 0 12.171 1.148 17.879 3.383l35.124 13.771.181-.12-.061-.212-23.435-9.211 13.892-2.175.846-.12c3.624-.575 7.493-1.15 11.268-1.15l.027-.21.033-.123c-3.805 0-7.734.546-11.389 1.12L93.378 25.25l-11.023-4.319a48.988 48.988 0 0 0-18-3.412l-.15.15.15.212Z" fill="url(#h)"/>
  <path d="m132.669 30.686-10.208 3.987a6.762 6.762 0 0 1-4.983 0l-.121.332a7.096 7.096 0 0 0 5.225 0l10.178-3.986-.091-.332Z" fill="url(#i)"/>
  <path d="m132.791 31.018 13.862-5.436 11.084-4.319a48.945 48.945 0 0 1 17.878-3.382l.182-.181-.182-.151a48.867 48.867 0 0 0-17.999 3.413l-11.024 4.318-14.496-2.265-.846-.12c-3.654-.574-7.429-1.178-11.234-1.178v.362c3.805 0 7.55.604 11.174 1.178l14.768 2.325-13.288 5.104.121.332Z" fill="url(#j)"/>
  <path d="m171.961 60.797-38.325 64.478.09.212.212-.03 38.415-64.63-.121-.151-.271.12Z" fill="url(#k)"/>
  <path d="m128.169 128.144 12.322-59.526a10.138 10.138 0 0 1 3.564-5.647l24.583-19.42-.06-.18-.302.03-24.433 19.298c-1.842 1.48-3.171 3.534-3.684 5.86l-12.352 59.676.181.091.181-.182Z" fill="url(#l)"/>
  <path d="M63.902 49.29c-.694 2.174-.453 4.53.725 6.493l36.12 60.764.302-.211-36.12-60.734a7.56 7.56 0 0 1-.695-6.191l-.12-.151-.212.03Z" fill="url(#m)"/>
  <path d="M175.615 17.881h20.718c6.312 0 12.533-1.6 18.06-4.62L237.617.515c.635-.333 1.178-.151 1.541.18l-28.117 20.688a17.034 17.034 0 0 1-8.759 3.232l-24.734 1.782a23.516 23.516 0 0 0-10.389 3.322l-4.983 3.05-.061.242.272.06 4.983-3.05c3.081-1.872 6.614-3.02 10.238-3.262l24.735-1.782a17.348 17.348 0 0 0 8.939-3.292L239.429 1c.302.453.363 1.148-.181 1.66L215.42 26.49a20.081 20.081 0 0 1-11.326 5.647l-21.019 2.93a18.583 18.583 0 0 0-9.061 3.865v.242l.242.06a18.563 18.563 0 0 1 8.879-3.805l21.02-2.93c4.349-.604 8.426-2.627 11.506-5.738L239.49 2.932c.755-.755.574-1.722.09-2.296-.453-.543-1.268-.845-2.114-.392l-23.224 12.745a37.438 37.438 0 0 1-17.909 4.59h-20.718v.302Z" fill="url(#n)"/>
  <path d="m71.724 43.4 5.496-2.355c1.631-.695 2.688-2.174 2.84-3.956.12-1.782-.695-3.383-2.236-4.319l-5.013-3.05-.181.09v.212l4.983 3.05c1.42.846 2.174 2.356 2.054 3.986-.121 1.631-1.088 3.02-2.598 3.655l-5.677 2.416v.242h.332v.03Z" fill="url(#o)"/>
  <path d="M24.58 26.458.752 2.63C.208 2.086.269 1.422.57.969l28.147 20.687.211-.03v-.242L.812.697c.332-.332.906-.514 1.54-.181L25.578 13.26l.211-.09-.03-.212L2.534.214C1.688-.24.873.093.42.606c-.484.574-.665 1.54.09 2.296L24.34 26.73l.241.03v-.302Z" fill="url(#p)"/>
  <defs>
    <linearGradient id="a" x1="119.985" y1="17.939" x2="119.985" y2="46.243" gradientUnits="userSpaceOnUse">
      <stop stop-color="#262626"/>
      <stop offset=".767" stop-color="#030303"/>
    </linearGradient>
    <linearGradient id="b" x1="254.606" y1="-19.479" x2="165.123" y2="43.764" gradientUnits="userSpaceOnUse">
      <stop stop-color="#262626"/>
      <stop offset=".131" stop-color="#202020"/>
      <stop offset=".655" stop-color="#0B0B0B"/>
      <stop offset="1" stop-color="#030303"/>
    </linearGradient>
    <linearGradient id="c" x1="-14.636" y1="-19.479" x2="74.846" y2="43.765" gradientUnits="userSpaceOnUse">
      <stop stop-color="#262626"/>
      <stop offset=".131" stop-color="#202020"/>
      <stop offset=".655" stop-color="#0B0B0B"/>
      <stop offset="1" stop-color="#030303"/>
    </linearGradient>
    <linearGradient id="d" x1="119.985" y1="-.63" x2="119.985" y2="125.882" gradientUnits="userSpaceOnUse">
      <stop stop-color="#262626"/>
      <stop offset=".595" stop-color="#0E0E0E"/>
      <stop offset="1" stop-color="#030303"/>
    </linearGradient>
    <linearGradient id="e" x1="187.557" y1="-5.102" x2="129.427" y2="125.691" gradientUnits="userSpaceOnUse">
      <stop offset=".111" stop-color="#262626"/>
      <stop offset=".116" stop-color="#262626"/>
      <stop offset=".35" stop-color="#121212"/>
      <stop offset=".589" stop-color="#070707"/>
      <stop offset=".839" stop-color="#030303"/>
    </linearGradient>
    <linearGradient id="f" x1="52.412" y1="-5.102" x2="110.543" y2="125.691" gradientUnits="userSpaceOnUse">
      <stop offset=".111" stop-color="#262626"/>
      <stop offset=".116" stop-color="#262626"/>
      <stop offset=".35" stop-color="#121212"/>
      <stop offset=".589" stop-color="#070707"/>
      <stop offset=".839" stop-color="#030303"/>
    </linearGradient>
    <linearGradient id="i" x1="117.625" y1="35.546" x2="133.706" y2="31.094" gradientUnits="userSpaceOnUse">
      <stop offset=".026" stop-color="#11192A"/>
      <stop offset=".406" stop-color="#0EBEAE"/>
      <stop offset=".714" stop-color="#106063"/>
      <stop offset=".938" stop-color="#11192A"/>
    </linearGradient>
    <linearGradient id="k" x1="172.258" y1="60.832" x2="133.822" y2="125.102" gradientUnits="userSpaceOnUse">
      <stop offset=".02" stop-color="#11192A"/>
      <stop offset=".083" stop-color="#101D32"/>
      <stop offset=".18" stop-color="#0E2848"/>
      <stop offset=".3" stop-color="#0B3A6B"/>
      <stop offset=".438" stop-color="#07529C"/>
      <stop offset=".588" stop-color="#0272DA"/>
      <stop offset=".639" stop-color="#007DF1"/>
      <stop offset=".659" stop-color="#0177E4"/>
      <stop offset=".828" stop-color="#0A4581"/>
      <stop offset=".945" stop-color="#0F2542"/>
      <stop offset="1" stop-color="#11192A"/>
    </linearGradient>
    <linearGradient id="l" x1="121.515" y1="124.085" x2="161.594" y2="41.409" gradientUnits="userSpaceOnUse">
      <stop offset=".02" stop-color="#11192A"/>
      <stop offset=".073" stop-color="#111D2D"/>
      <stop offset=".123" stop-color="#132836"/>
      <stop offset=".17" stop-color="#163A46"/>
      <stop offset=".217" stop-color="#19555C"/>
      <stop offset=".262" stop-color="#1E7677"/>
      <stop offset=".298" stop-color="#229692"/>
      <stop offset=".306" stop-color="#219390"/>
      <stop offset=".41" stop-color="#176979"/>
      <stop offset=".504" stop-color="#0F4B68"/>
      <stop offset=".585" stop-color="#0B395E"/>
      <stop offset=".642" stop-color="#09325A"/>
      <stop offset="1" stop-color="#11192A"/>
    </linearGradient>
    <linearGradient id="m" x1="63.213" y1="50.397" x2="102.813" y2="121.74" gradientUnits="userSpaceOnUse">
      <stop offset=".081" stop-color="#11192A"/>
      <stop offset=".118" stop-color="#14192D"/>
      <stop offset=".148" stop-color="#1E1A37"/>
      <stop offset=".176" stop-color="#301B47"/>
      <stop offset=".202" stop-color="#481C5F"/>
      <stop offset=".228" stop-color="#671E7D"/>
      <stop offset=".252" stop-color="#8D20A2"/>
      <stop offset=".276" stop-color="#BA22CC"/>
      <stop offset=".292" stop-color="#DE24EF"/>
      <stop offset=".297" stop-color="#D824E9"/>
      <stop offset=".337" stop-color="#AA21BD"/>
      <stop offset=".379" stop-color="#811F95"/>
      <stop offset=".423" stop-color="#5E1D74"/>
      <stop offset=".469" stop-color="#421C59"/>
      <stop offset=".519" stop-color="#2C1A44"/>
      <stop offset=".574" stop-color="#1D1A35"/>
      <stop offset=".637" stop-color="#14192D"/>
      <stop offset=".728" stop-color="#11192A"/>
    </linearGradient>
    <linearGradient id="n" x1="237.748" y1="-1.862" x2="203.385" y2="18.025" gradientUnits="userSpaceOnUse">
      <stop stop-color="#DE24EF"/>
      <stop offset=".307" stop-color="#1B5BC1"/>
      <stop offset=".333" stop-color="#1A54B0"/>
      <stop offset=".406" stop-color="#174288"/>
      <stop offset=".481" stop-color="#153366"/>
      <stop offset=".557" stop-color="#13284B"/>
      <stop offset=".634" stop-color="#121F39"/>
      <stop offset=".715" stop-color="#111B2E"/>
      <stop offset=".802" stop-color="#11192A"/>
    </linearGradient>
    <linearGradient id="o" x1="75.726" y1="29.861" x2="75.726" y2="43.314" gradientUnits="userSpaceOnUse">
      <stop offset=".112" stop-color="#11192A"/>
      <stop offset=".153" stop-color="#11323E"/>
      <stop offset=".242" stop-color="#106466"/>
      <stop offset=".326" stop-color="#0F8B85"/>
      <stop offset=".403" stop-color="#0EA79C"/>
      <stop offset=".47" stop-color="#0EB8A9"/>
      <stop offset=".52" stop-color="#0EBEAE"/>
      <stop offset=".576" stop-color="#0EA59A"/>
      <stop offset=".722" stop-color="#10696A"/>
      <stop offset=".847" stop-color="#103E47"/>
      <stop offset=".943" stop-color="#112332"/>
      <stop offset="1" stop-color="#11192A"/>
    </linearGradient>
    <linearGradient id="p" x1=".219" y1="1.513" x2="33.57" y2="26.132" gradientUnits="userSpaceOnUse">
      <stop offset=".155" stop-color="#1B5BC1"/>
      <stop offset=".232" stop-color="#184997"/>
      <stop offset=".317" stop-color="#163870"/>
      <stop offset=".402" stop-color="#142A51"/>
      <stop offset=".484" stop-color="#12213C"/>
      <stop offset=".563" stop-color="#111B2E"/>
      <stop offset=".635" stop-color="#11192A"/>
    </linearGradient>
    <radialGradient id="g" cx="0" cy="0" r="1" gradientUnits="userSpaceOnUse" gradientTransform="translate(109.953 127.681) scale(14.0686)">
      <stop stop-color="#C92739"/>
      <stop offset=".043" stop-color="#B72638"/>
      <stop offset=".191" stop-color="#7C2133"/>
      <stop offset=".328" stop-color="#4E1E2F"/>
      <stop offset=".449" stop-color="#2D1B2C"/>
      <stop offset=".549" stop-color="#181A2B"/>
      <stop offset=".616" stop-color="#11192A"/>
    </radialGradient>
    <radialGradient id="h" cx="0" cy="0" r="1" gradientUnits="userSpaceOnUse" gradientTransform="translate(93.463 25.435) scale(24.911)">
      <stop stop-color="#004787"/>
      <stop offset=".171" stop-color="#063767"/>
      <stop offset=".38" stop-color="#0C2746"/>
      <stop offset=".554" stop-color="#101D31"/>
      <stop offset=".67" stop-color="#11192A"/>
    </radialGradient>
    <radialGradient id="j" cx="0" cy="0" r="1" gradientUnits="userSpaceOnUse" gradientTransform="translate(146.583 25.38) scale(20.006)">
      <stop stop-color="#C92739"/>
      <stop offset=".047" stop-color="#B72638"/>
      <stop offset=".208" stop-color="#7C2133"/>
      <stop offset=".357" stop-color="#4E1E2F"/>
      <stop offset=".488" stop-color="#2D1B2C"/>
      <stop offset=".597" stop-color="#181A2B"/>
      <stop offset=".67" stop-color="#11192A"/>
    </radialGradient>
  </defs>
</svg>
