<svg width="18" height="22" viewBox="0 0 18 22" fill="none" xmlns="http://www.w3.org/2000/svg">
  <path d="m16.361 5.077-3.956-3.564A2.41 2.41 0 0 0 10.788.9H3.256C1.962.9.9 1.904.9 3.148v15.704c0 1.244 1.062 2.248 2.356 2.248h11.488c1.294 0 2.356-1.004 2.356-2.248V6.712a2.21 2.21 0 0 0-.739-1.635Zm-4.43-2.109 2.908 2.62h-2.803c-.063 0-.105-.048-.105-.096V2.968Zm2.813 16.76H3.256c-.515 0-.925-.398-.925-.876V3.148c0-.478.41-.876.925-.876H10.5v3.22c0 .814.694 1.467 1.536 1.467h3.633v11.893c0 .478-.41.876-.925.876Z" fill="#FFF" stroke="#FFF" stroke-width=".2"/>
</svg>
