<svg width="24" height="24" viewBox="0 0 24 24" fill="currentColor" xmlns="http://www.w3.org/2000/svg">
  <path d="M12 13.365A4.5 4.5 0 0 1 7.583 9.75a.75.75 0 0 1 .75-.862.75.75 0 0 1 .75.622 3 3 0 0 0 5.872 0 .75.75 0 0 1 .75-.622.75.75 0 0 1 .75.862A4.5 4.5 0 0 1 12 13.365Z"/>
  <path d="M18.675 23.25H5.325a2.249 2.249 0 0 1-2.25-2.363l.608-12.93a2.25 2.25 0 0 1 2.25-2.152h12.135a2.25 2.25 0 0 1 2.25 2.152l.607 12.93a2.251 2.251 0 0 1-2.25 2.363ZM5.933 7.312a.75.75 0 0 0-.75.75l-.608 12.9a.75.75 0 0 0 .75.788h13.35a.75.75 0 0 0 .75-.788l-.607-12.93a.75.75 0 0 0-.75-.75l-12.135.03Z"/>
  <path d="M16.5 6.563H15V5.25a3 3 0 0 0-6 0v1.313H7.5V5.25a4.5 4.5 0 0 1 9 0v1.313Z"/>
</svg>
