<svg width="22" height="22" viewBox="0 0 22 22" fill="none" xmlns="http://www.w3.org/2000/svg">
<path d="M18.9254 2.45312L12.0547 7.55608L13.3252 4.5454L18.9254 2.45312Z" fill="#E2761B" stroke="#E2761B" stroke-width="0.0690521" stroke-linecap="round" stroke-linejoin="round"/>
<path d="M3.0625 2.45117L9.87794 7.60246L8.66953 4.54345L3.0625 2.45117Z" fill="#E4761B" stroke="#E4761B" stroke-width="0.0690521" stroke-linecap="round" stroke-linejoin="round"/>
<path d="M16.4471 14.2812L14.6172 17.0848L18.5324 18.162L19.658 14.3434L16.4471 14.2812Z" fill="#E4761B" stroke="#E4761B" stroke-width="0.0690521" stroke-linecap="round" stroke-linejoin="round"/>
<path d="M2.33203 14.3434L3.45067 18.162L7.36593 17.0848L5.53605 14.2812L2.33203 14.3434Z" fill="#E4761B" stroke="#E4761B" stroke-width="0.0690521" stroke-linecap="round" stroke-linejoin="round"/>
<path d="M7.14571 9.54218L6.05469 11.1925L9.94232 11.3652L9.80422 7.1875L7.14571 9.54218Z" fill="#E4761B" stroke="#E4761B" stroke-width="0.0690521" stroke-linecap="round" stroke-linejoin="round"/>
<path d="M14.8297 9.54266L12.1366 7.13965L12.0469 11.3656L15.9276 11.193L14.8297 9.54266Z" fill="#E4761B" stroke="#E4761B" stroke-width="0.0690521" stroke-linecap="round" stroke-linejoin="round"/>
<path d="M7.37109 17.0829L9.70505 15.9435L7.68873 14.3691L7.37109 17.0829Z" fill="#E4761B" stroke="#E4761B" stroke-width="0.0690521" stroke-linecap="round" stroke-linejoin="round"/>
<path d="M12.2773 15.9435L14.6182 17.0829L14.2937 14.3691L12.2773 15.9435Z" fill="#E4761B" stroke="#E4761B" stroke-width="0.0690521" stroke-linecap="round" stroke-linejoin="round"/>
<path d="M14.6338 17.0837L12.293 15.9443L12.4794 17.4704L12.4587 18.1126L14.6338 17.0837Z" fill="#D7C1B3" stroke="#D7C1B3" stroke-width="0.0690521" stroke-linecap="round" stroke-linejoin="round"/>
<path d="M7.37891 17.0837L9.55405 18.1126L9.54024 17.4704L9.71287 15.9443L7.37891 17.0837Z" fill="#D7C1B3" stroke="#D7C1B3" stroke-width="0.0690521" stroke-linecap="round" stroke-linejoin="round"/>
<path d="M9.58008 13.3617L7.63281 12.7885L9.00695 12.1602L9.58008 13.3617Z" fill="#233447" stroke="#233447" stroke-width="0.0690521" stroke-linecap="round" stroke-linejoin="round"/>
<path d="M12.4023 13.3617L12.9755 12.1602L14.3565 12.7885L12.4023 13.3617Z" fill="#233447" stroke="#233447" stroke-width="0.0690521" stroke-linecap="round" stroke-linejoin="round"/>
<path d="M7.38066 17.0867L7.71211 14.2832L5.55078 14.3453L7.38066 17.0867Z" fill="#CD6116" stroke="#CD6116" stroke-width="0.0690521" stroke-linecap="round" stroke-linejoin="round"/>
<path d="M14.2969 14.2832L14.6283 17.0867L16.4582 14.3453L14.2969 14.2832Z" fill="#CD6116" stroke="#CD6116" stroke-width="0.0690521" stroke-linecap="round" stroke-linejoin="round"/>
<path d="M15.9432 11.1953L12.0625 11.3679L12.4216 13.3635L12.9947 12.162L14.3757 12.7904L15.9432 11.1953Z" fill="#CD6116" stroke="#CD6116" stroke-width="0.0690521" stroke-linecap="round" stroke-linejoin="round"/>
<path d="M7.6447 12.7904L9.02574 12.162L9.59197 13.3635L9.95795 11.3679L6.07031 11.1953L7.6447 12.7904Z" fill="#CD6116" stroke="#CD6116" stroke-width="0.0690521" stroke-linecap="round" stroke-linejoin="round"/>
<path d="M6.06641 11.1953L7.69604 14.3717L7.64079 12.7904L6.06641 11.1953Z" fill="#E4751F" stroke="#E4751F" stroke-width="0.0690521" stroke-linecap="round" stroke-linejoin="round"/>
<path d="M14.3698 12.7904L14.3008 14.3717L15.9373 11.1953L14.3698 12.7904Z" fill="#E4751F" stroke="#E4751F" stroke-width="0.0690521" stroke-linecap="round" stroke-linejoin="round"/>
<path d="M9.95582 11.3682L9.58984 13.3638L10.0456 15.7184L10.1492 12.618L9.95582 11.3682Z" fill="#E4751F" stroke="#E4751F" stroke-width="0.0690521" stroke-linecap="round" stroke-linejoin="round"/>
<path d="M12.0575 11.3682L11.8711 12.6111L11.954 15.7184L12.4166 13.3638L12.0575 11.3682Z" fill="#E4751F" stroke="#E4751F" stroke-width="0.0690521" stroke-linecap="round" stroke-linejoin="round"/>
<path d="M12.4197 13.3622L11.957 15.7169L12.2885 15.9447L14.3048 14.3704L14.3739 12.7891L12.4197 13.3622Z" fill="#F6851B" stroke="#F6851B" stroke-width="0.0690521" stroke-linecap="round" stroke-linejoin="round"/>
<path d="M7.63281 12.7891L7.68805 14.3704L9.70438 15.9447L10.0358 15.7169L9.58008 13.3622L7.63281 12.7891Z" fill="#F6851B" stroke="#F6851B" stroke-width="0.0690521" stroke-linecap="round" stroke-linejoin="round"/>
<path d="M12.4464 18.1129L12.4671 17.4707L12.2945 17.3188H9.69124L9.53242 17.4707L9.54623 18.1129L7.37109 17.084L8.13067 17.7055L9.67053 18.7758H12.3152L13.862 17.7055L14.6216 17.084L12.4464 18.1129Z" fill="#C0AD9E" stroke="#C0AD9E" stroke-width="0.0690521" stroke-linecap="round" stroke-linejoin="round"/>
<path d="M12.2834 15.9447L11.952 15.7168H10.0392L9.70779 15.9447L9.53516 17.4707L9.69398 17.3188H12.2972L12.4699 17.4707L12.2834 15.9447Z" fill="#161616" stroke="#161616" stroke-width="0.0690521" stroke-linecap="round" stroke-linejoin="round"/>
<path d="M19.2141 7.88557L19.801 5.06825L18.9241 2.45117L12.2812 7.38149L14.8362 9.54282L18.4476 10.5993L19.2486 9.66712L18.9033 9.41853L19.4558 8.91445L19.0276 8.583L19.5801 8.16178L19.2141 7.88557Z" fill="#763D16" stroke="#763D16" stroke-width="0.0690521" stroke-linecap="round" stroke-linejoin="round"/>
<path d="M2.19922 5.06825L2.78616 7.88557L2.41328 8.16178L2.9657 8.583L2.54448 8.91445L3.0969 9.41853L2.75164 9.66712L3.54573 10.5993L7.15716 9.54282L9.71209 7.38149L3.06928 2.45117L2.19922 5.06825Z" fill="#763D16" stroke="#763D16" stroke-width="0.0690521" stroke-linecap="round" stroke-linejoin="round"/>
<path d="M18.4469 10.6004L14.8355 9.54395L15.9334 11.1943L14.2969 14.3707L16.4513 14.3431H19.6622L18.4469 10.6004Z" fill="#F6851B" stroke="#F6851B" stroke-width="0.0690521" stroke-linecap="round" stroke-linejoin="round"/>
<path d="M7.15277 9.54395L3.54135 10.6004L2.33984 14.3431H5.54386L7.69138 14.3707L6.06175 11.1943L7.15277 9.54395Z" fill="#F6851B" stroke="#F6851B" stroke-width="0.0690521" stroke-linecap="round" stroke-linejoin="round"/>
<path d="M12.0515 11.3663L12.2794 7.38199L13.329 4.54395H8.66797L9.70375 7.38199L9.94543 11.3663L10.0283 12.623L10.0352 15.7166H11.9479L11.9618 12.623L12.0515 11.3663Z" fill="#F6851B" stroke="#F6851B" stroke-width="0.0690521" stroke-linecap="round" stroke-linejoin="round"/>
</svg>
