<svg width="63" height="101" viewBox="0 0 63 101" fill="none" xmlns="http://www.w3.org/2000/svg">
  <path d="M53.937 101 8.5 99.5c-4.445 0-8.486-2.103-8.486-6.548V11C.014 6.555 3.5 1 8.5.5s22-.5 22-.5l23.437 1c4.445 0 8.048 5.555 8.048 10L63 91.5c0 4.445-4.617 9.5-9.062 9.5Z" fill="#2C81FC"/>
  <path d="M45.499 8.645c0 1.502-1.998 2.72-3.5 2.72h-22.5c-1.502 0-3.28-1.218-3.28-2.72 0-.89-1.331-1.61-2.22-1.61H9.067C7.401 7.035 6 8.386 6 10.053l-.5 80.447c0 1.667 2 4 4.5 4.463 2.5.463 42.932 0 42.932 0 1.666 0 4.068-3.296 4.068-4.963l-1-79c0-1.667-1.833-3.965-3.5-3.965h-5.111c-.889 0-1.889.72-1.889 1.61Z" fill="#2B5681"/>
  <path d="M31 7.692a1.509 1.509 0 1 0 0-3.018 1.509 1.509 0 0 0 0 3.018Z" fill="#335E80"/>
  <path d="M9 17c1-1.998 42.69-3.143 44 0 2.5 6.002 3 66 0 67-2.072.692-2.5-4.2-3.91-4-1.09.156-1.822 3.84-2.934 4-1.112.162-2.656-4.19-3.934-4-1.277.19-1.722 3.827-2.91 4-1.312.192-2.812-4-3.912-4s-2.953 4.323-3.91 4C30 83.5 28.5 80.5 28 80.5c-1.5 0-2.158 3.5-4.333 3.5C22.5 84 21 80 20 80.5c-1.897.95-2.5 3.5-4.155 3.5-1.12 0-1.13-4.857-2.845-4-1 .5-3.52 6.157-4 4-1-4.5-1.5-64.002 0-67Z" fill="#FFF"/>
  <path d="M37.12 30.065c-9.704-.203-15.963.118-25.824.291-.081.002-.16.087-.21.274-.134.516-.1.903.025 1.412.064.262.17.402.271.406 9.961.34 15.742.477 26.27.552.128 0 .243-.216.287-.57.133-1.067.113-1.732-.744-2.338a.135.135 0 0 0-.075-.027ZM50.74 30.169c-2.874-.196-4.815-.228-7.735-.062-.024.002.04.427.026.607-.04.497-.03.871.007 1.362.02.252.05.388.08.392 2.95.328 4.662.46 7.78.532.037 0 .07-.208.084-.55.04-1.03.033-1.67-.22-2.255-.008-.017-.015-.026-.023-.026ZM43.26 38.831c2.874.196 4.815.228 7.735.062.024-.002-.04-.427-.026-.607a8.04 8.04 0 0 0-.007-1.362c-.02-.252-.05-.388-.08-.392-2.95-.328-4.662-.46-7.78-.532-.037 0-.07.208-.084.55-.04 1.03-.033 1.67.22 2.255.008.017.015.026.023.026ZM43.26 46.831c2.874.196 4.815.228 7.735.062.024-.002-.04-.427-.026-.607a8.04 8.04 0 0 0-.007-1.362c-.02-.252-.05-.388-.08-.392-2.95-.328-4.662-.46-7.78-.532-.037 0-.07.208-.084.55-.04 1.03-.033 1.67.22 2.255.008.017.015.026.023.026ZM43.26 71.831c2.874.196 4.815.228 7.735.062a.236.236 0 0 0 .059-.044c.322-.295-.053-.86-.06-1.297a10.65 10.65 0 0 0-.032-.628c-.02-.252-.05-.388-.08-.391-2.95-.329-1.764-.46-4.882-.533-.037 0-2.969.208-2.982.55-.04 1.03-.033 1.67.22 2.255.008.017.016.025.023.026ZM43.26 53.831c2.874.196 4.815.228 7.735.062.024-.002-.04-.427-.026-.607a8.04 8.04 0 0 0-.007-1.362c-.02-.252-.05-.388-.08-.392-2.95-.328-4.662-.46-7.78-.532-.037 0-.07.208-.084.55-.04 1.03-.033 1.67.22 2.255.008.017.015.026.023.026ZM35.738 37c-8.702.022-14.061-.013-22.89.324-.888.034-1.647.322-1.757.717a2.538 2.538 0 0 0-.09.78c.011.397.643.735 1.513.818 6.862.647 13.505.317 23.684-.151 1.055-.049 1.883-.45 1.796-.92a2.058 2.058 0 0 0-.56-1.112c-.28-.295-.976-.458-1.696-.456ZM34.822 51c-8.38.022-13.54-.013-22.043.324-.854.034-1.585.322-1.691.717a2.634 2.634 0 0 0-.087.78c.01.397.62.735 1.457.818 6.608.647 13.005.317 22.807-.151 1.016-.049 1.813-.45 1.729-.92a2.088 2.088 0 0 0-.54-1.112c-.27-.295-.938-.458-1.632-.456ZM46.816 62c-12.247.007-19.79-.004-32.216.108-1.249.011-2.316.107-2.471.239-.105.089-.137.17-.127.26.015.132.904.245 2.13.273 9.657.215 19.006.105 33.332-.05 1.485-.017 2.65-.15 2.527-.307-.114-.147-.344-.26-.788-.37-.395-.1-1.373-.154-2.387-.153ZM36.496 44.069c-8.982-.077-14.997-.136-24.089.088-.651.016-1.232.256-1.33.605-.063.22-.083.422-.076.64.013.392.612.703 1.332.744 20.933 1.173 24.073 1.021 25.105.246a.56.56 0 0 0 .167-.203c.36-.718.697-1.238-.06-1.844-.23-.184-.638-.273-1.05-.276ZM36.496 69.069c-8.982-.076-14.997-.136-24.089.088-.651.016-1.232.256-1.33.605-.063.22-.083.422-.076.64.013.392.686.95 1.406.99 16.622 0 21.615-.192 24.767-.016.17.01.354-.035.43-.187.361-.718.698-1.238-.06-1.844-.23-.184-.637-.273-1.048-.276Z" fill="#6C8093"/>
</svg>
