<svg width="24" height="24" viewBox="0 0 24 24" fill="none" xmlns="http://www.w3.org/2000/svg">
  <path d="M21 10.126a1.875 1.875 0 0 0-1.837 1.5h-4.575a2.587 2.587 0 0 0-.492-1.19l2.872-2.872a1.88 1.88 0 1 0-.53-.53l-2.873 2.872a2.587 2.587 0 0 0-1.19-.492V4.84a1.875 1.875 0 1 0-.75 0v4.575c-.43.061-.84.23-1.189.492L7.564 7.034a1.88 1.88 0 1 0-.53.53l2.872 2.872c-.262.349-.43.758-.492 1.19H4.84a1.875 1.875 0 1 0 0 .75h4.575c.061.431.23.84.492 1.19l-2.872 2.872a1.88 1.88 0 1 0 .53.53l2.872-2.872c.349.261.758.43 1.19.492v4.575a1.875 1.875 0 1 0 .75 0v-4.575c.431-.062.84-.23 1.19-.492l2.872 2.872a1.88 1.88 0 1 0 .53-.53l-2.872-2.873c.261-.348.43-.758.492-1.19h4.575a1.875 1.875 0 1 0 1.836-2.25Zm-18 3a1.125 1.125 0 1 1 0-2.25 1.125 1.125 0 0 1 0 2.25ZM13.873 12a1.874 1.874 0 1 1-3.748 0 1.874 1.874 0 0 1 3.748 0ZM18 4.876a1.125 1.125 0 0 1 0 2.25 1.114 1.114 0 0 1-.494-.12l-.511-.51a1.115 1.115 0 0 1-.12-.495A1.125 1.125 0 0 1 18 4.876ZM10.874 3a1.125 1.125 0 1 1 2.25 0 1.125 1.125 0 0 1-2.25 0Zm-6 3a1.125 1.125 0 0 1 2.25 0c0 .172-.042.34-.119.494l-.511.512a1.115 1.115 0 0 1-1.29-.21A1.125 1.125 0 0 1 4.874 6ZM6 19.126a1.125 1.125 0 1 1 0-2.25 1.125 1.125 0 0 1 0 2.25ZM13.124 21a1.125 1.125 0 1 1-2.25 0 1.125 1.125 0 0 1 2.25 0Zm6-3a1.125 1.125 0 1 1-2.25 0c.002-.172.042-.341.12-.494l.511-.512c.153-.077.323-.118.494-.12a1.125 1.125 0 0 1 1.125 1.126ZM21 13.126a1.125 1.125 0 1 1 0-2.25 1.125 1.125 0 0 1 0 2.25Z" fill="#FFF" stroke="#FFF" stroke-width=".6"/>
</svg>
