<svg width="117" height="153" viewBox="0 0 117 153" fill="none" xmlns="http://www.w3.org/2000/svg">
  <path d="M10.07 134.625V146H8.555l-5.727-8.773V146H1.32v-11.375h1.508l5.75 8.797v-8.797h1.492Zm2.22 7.242v-.179c0-.61.09-1.175.266-1.696.177-.526.433-.982.766-1.367a3.405 3.405 0 0 1 1.21-.906 3.756 3.756 0 0 1 1.595-.328c.593 0 1.127.109 1.601.328.48.213.885.515 1.219.906.338.385.596.841.773 1.367.177.521.266 1.086.266 1.696v.179c0 .61-.089 1.175-.266 1.695a4.063 4.063 0 0 1-.773 1.368 3.552 3.552 0 0 1-1.211.906c-.469.213-1 .32-1.594.32a3.866 3.866 0 0 1-1.601-.32 3.632 3.632 0 0 1-1.22-.906 4.135 4.135 0 0 1-.765-1.368 5.229 5.229 0 0 1-.265-1.695Zm1.446-.179v.179c0 .422.05.821.148 1.195.1.37.248.698.446.985.203.286.455.513.758.68a2.21 2.21 0 0 0 1.054.242c.396 0 .742-.081 1.04-.242a2.19 2.19 0 0 0 .75-.68c.197-.287.346-.615.445-.985.104-.374.156-.773.156-1.195v-.179c0-.417-.052-.81-.156-1.18a3.032 3.032 0 0 0-.454-.992 2.155 2.155 0 0 0-.75-.688c-.296-.167-.645-.25-1.046-.25-.396 0-.745.083-1.047.25a2.249 2.249 0 0 0-.75.688 3.13 3.13 0 0 0-.446.992c-.099.37-.148.763-.148 1.18Zm13.776-2.813V146h-1.445v-8.453h1.406l.04 1.328Zm2.641-1.375-.008 1.344a2.071 2.071 0 0 0-.343-.047 3.474 3.474 0 0 0-.36-.016c-.333 0-.627.052-.883.157-.255.104-.471.25-.648.437a2.094 2.094 0 0 0-.422.672 3.219 3.219 0 0 0-.195.844l-.407.234c0-.51.05-.99.149-1.437.104-.448.263-.844.476-1.188.214-.349.485-.62.813-.812.333-.198.73-.297 1.188-.297.104 0 .223.013.359.039.135.021.229.044.281.07Zm4.838 8.656a4.156 4.156 0 0 1-1.602-.297 3.636 3.636 0 0 1-1.227-.851 3.791 3.791 0 0 1-.78-1.297 4.757 4.757 0 0 1-.274-1.641v-.328c0-.687.101-1.299.305-1.836.203-.541.479-1 .828-1.375a3.536 3.536 0 0 1 1.187-.851 3.406 3.406 0 0 1 1.375-.289c.604 0 1.125.104 1.563.312.442.208.804.5 1.086.875.28.37.49.807.625 1.313.135.5.203 1.047.203 1.64v.649h-6.313V141h4.867v-.109a3.608 3.608 0 0 0-.234-1.094 1.966 1.966 0 0 0-.625-.875c-.287-.229-.677-.344-1.172-.344a1.962 1.962 0 0 0-1.617.82 3.072 3.072 0 0 0-.461.993c-.11.39-.164.841-.164 1.351v.328c0 .401.055.779.164 1.133.115.349.279.656.492.922.219.266.482.474.79.625.312.151.666.227 1.062.227.51 0 .942-.105 1.297-.313.354-.208.664-.487.93-.836l.874.695a4.043 4.043 0 0 1-.695.789c-.281.25-.628.454-1.04.61-.405.156-.887.234-1.444.234Zm10.048-2.398c0-.209-.047-.401-.14-.578-.09-.183-.274-.347-.555-.492-.276-.152-.693-.282-1.25-.391a9.811 9.811 0 0 1-1.274-.352 3.838 3.838 0 0 1-.96-.492 2.063 2.063 0 0 1-.602-.68c-.14-.26-.211-.565-.211-.914 0-.333.073-.648.219-.945.15-.297.362-.56.632-.789.276-.229.607-.409.993-.539.385-.13.815-.195 1.289-.195.677 0 1.255.119 1.734.359.48.24.846.56 1.102.961.255.396.382.836.382 1.32h-1.445c0-.234-.07-.461-.21-.679a1.559 1.559 0 0 0-.602-.555c-.26-.146-.581-.219-.961-.219-.401 0-.727.063-.977.188a1.245 1.245 0 0 0-.539.461 1.157 1.157 0 0 0-.086 1.015c.057.12.156.232.297.336.14.099.339.193.594.281.255.089.58.177.976.266.693.156 1.263.344 1.711.563.448.218.782.486 1 .804.219.318.328.703.328 1.156 0 .37-.078.709-.234 1.016a2.255 2.255 0 0 1-.664.797c-.286.219-.63.391-1.031.516a4.635 4.635 0 0 1-1.336.179c-.745 0-1.375-.133-1.89-.398-.517-.266-.907-.61-1.173-1.031a2.47 2.47 0 0 1-.398-1.336h1.453c.02.395.135.711.344.945.208.229.463.393.765.492.302.094.602.141.899.141.396 0 .726-.052.992-.157.27-.104.477-.247.617-.429a.995.995 0 0 0 .211-.625Zm8.666.289v-6.5h1.453V146h-1.383l-.07-1.953Zm.273-1.781.602-.016a6.43 6.43 0 0 1-.18 1.562 3.36 3.36 0 0 1-.563 1.235 2.66 2.66 0 0 1-1.023.82c-.422.193-.935.289-1.539.289-.411 0-.79-.06-1.133-.179a2.266 2.266 0 0 1-.875-.555c-.245-.25-.435-.576-.57-.977-.13-.401-.195-.883-.195-1.445v-5.453h1.445v5.469c0 .38.041.695.125.945.088.245.206.44.351.586.151.141.318.239.5.297.188.057.38.086.579.086.614 0 1.101-.118 1.46-.352a2 2 0 0 0 .774-.961c.161-.406.242-.857.242-1.351ZM59.081 134v12h-1.453v-12h1.453Zm6.01 3.547v1.109h-4.57v-1.109h4.57Zm-3.024-2.055h1.446v8.414c0 .287.044.503.132.649a.635.635 0 0 0 .344.289c.14.047.292.07.453.07.12 0 .245-.01.375-.031a8.02 8.02 0 0 0 .305-.063l.008 1.18c-.115.036-.266.07-.453.102a3.489 3.489 0 0 1-.665.054c-.354 0-.68-.07-.976-.211-.297-.14-.534-.375-.711-.703-.172-.333-.258-.781-.258-1.344v-8.406ZM73.211 146h-1.445v-9.344c0-.609.109-1.122.328-1.539.224-.422.544-.739.96-.953.417-.219.912-.328 1.485-.328a3.996 3.996 0 0 1 1 .125l-.078 1.18a2.345 2.345 0 0 0-.375-.055 5.515 5.515 0 0 0-.406-.016 1.61 1.61 0 0 0-.797.188 1.18 1.18 0 0 0-.5.531c-.115.234-.172.523-.172.867V146Zm1.797-8.453v1.109H70.43v-1.109h4.578Zm1.376 4.32v-.179c0-.61.089-1.175.266-1.696.177-.526.432-.982.766-1.367a3.405 3.405 0 0 1 1.21-.906 3.755 3.755 0 0 1 1.594-.328c.594 0 1.128.109 1.602.328.479.213.885.515 1.219.906.338.385.596.841.773 1.367a5.24 5.24 0 0 1 .266 1.696v.179c0 .61-.089 1.175-.266 1.695a4.062 4.062 0 0 1-.773 1.368 3.551 3.551 0 0 1-1.211.906c-.47.213-1 .32-1.594.32a3.866 3.866 0 0 1-1.602-.32 3.632 3.632 0 0 1-1.218-.906 4.136 4.136 0 0 1-.766-1.368 5.226 5.226 0 0 1-.266-1.695Zm1.446-.179v.179c0 .422.05.821.148 1.195.1.37.248.698.445.985.204.286.456.513.758.68a2.21 2.21 0 0 0 1.055.242c.396 0 .742-.081 1.039-.242a2.19 2.19 0 0 0 .75-.68c.198-.287.346-.615.445-.985.105-.374.157-.773.157-1.195v-.179c0-.417-.052-.81-.157-1.18a3.032 3.032 0 0 0-.453-.992 2.155 2.155 0 0 0-.75-.688c-.297-.167-.646-.25-1.047-.25-.395 0-.745.083-1.047.25a2.25 2.25 0 0 0-.75.688 3.133 3.133 0 0 0-.445.992c-.099.37-.148.763-.148 1.18Zm13.384 2.359v-6.5h1.453V146h-1.383l-.07-1.953Zm.273-1.781.602-.016a6.43 6.43 0 0 1-.18 1.562 3.36 3.36 0 0 1-.562 1.235 2.66 2.66 0 0 1-1.024.82c-.421.193-.934.289-1.539.289-.411 0-.789-.06-1.132-.179a2.266 2.266 0 0 1-.875-.555c-.245-.25-.435-.576-.57-.977-.131-.401-.196-.883-.196-1.445v-5.453h1.445v5.469c0 .38.042.695.125.945.089.245.206.44.352.586.15.141.317.239.5.297.187.057.38.086.578.086.615 0 1.102-.118 1.46-.352a2 2 0 0 0 .774-.961c.162-.406.242-.857.242-1.351Zm4.979-2.914V146H95.02v-8.453h1.368l.078 1.805Zm-.344 2.101-.602-.023a5.092 5.092 0 0 1 .258-1.602c.167-.495.401-.924.703-1.289a3.13 3.13 0 0 1 2.477-1.148c.416 0 .791.057 1.125.171.333.11.617.287.851.532.24.245.422.562.547.953.125.385.188.857.188 1.414V146h-1.453v-5.555c0-.442-.065-.797-.196-1.062a1.2 1.2 0 0 0-.57-.586c-.25-.125-.557-.188-.922-.188-.36 0-.687.076-.984.227a2.35 2.35 0 0 0-.758.625c-.208.266-.373.57-.492.914a3.345 3.345 0 0 0-.172 1.078Zm13.22 2.906V134h1.453v12h-1.328l-.125-1.641Zm-5.687-2.492v-.164c0-.646.078-1.232.234-1.758a4.26 4.26 0 0 1 .68-1.367c.297-.38.648-.672 1.054-.875.412-.208.87-.312 1.375-.312.532 0 .995.093 1.391.281.401.182.74.45 1.016.805.281.349.502.77.664 1.265.161.495.273 1.055.336 1.68v.719a7.43 7.43 0 0 1-.336 1.671 3.96 3.96 0 0 1-.664 1.266 2.786 2.786 0 0 1-1.016.805c-.401.182-.87.273-1.406.273-.495 0-.948-.107-1.36-.32a3.219 3.219 0 0 1-1.054-.898 4.392 4.392 0 0 1-.68-1.36 5.992 5.992 0 0 1-.234-1.711Zm1.453-.164v.164c0 .422.041.818.125 1.188.088.369.224.695.406.976.182.281.414.503.695.664.282.157.618.235 1.008.235.479 0 .873-.102 1.18-.305.312-.203.562-.471.75-.805.187-.333.333-.695.437-1.086v-1.882a4.13 4.13 0 0 0-.273-.829 2.574 2.574 0 0 0-.453-.718 1.95 1.95 0 0 0-.68-.508 2.204 2.204 0 0 0-.945-.188c-.396 0-.737.084-1.024.25a2.002 2.002 0 0 0-.695.672c-.182.281-.318.61-.406.985a5.343 5.343 0 0 0-.125 1.187Zm8.111 3.531c0-.244.075-.45.226-.617.157-.172.381-.258.672-.258.292 0 .513.086.664.258a.867.867 0 0 1 .235.617c0 .24-.078.443-.235.61-.151.166-.372.25-.664.25-.291 0-.515-.084-.672-.25a.876.876 0 0 1-.226-.61Z" fill="#FFF"/>
  <path d="M1.928 8.372c.5-3.5 2.442-6.314 6-7.5 6-2 28.5 0 33 .499 4.445.493 5.963 2.684 6 5.398 0 .068.001.13.004.198.081 2.08 1.421 37.201-1.004 46.904-.976 3.905-2.439 7.187-6.5 8-5 1-28 .5-31.5 0s-6.202-4.468-6.5-7c-1-8.5 0-43 .5-46.5Z" fill="#E1EDFA"/>
  <path d="M37.856 18.902c-11.237.022-18.158-.012-29.56.325-1.146.034-2.126.322-2.268.718a2.006 2.006 0 0 0-.116.78c.014.399.83.738 1.954.82 8.86.648 17.44.318 30.585-.15 1.362-.05 2.43-.45 2.318-.923-.104-.439-.316-.779-.723-1.113-.362-.296-1.26-.459-2.19-.457ZM39.776 25.981c-11.93-.076-19.92-.136-31.997.088-.865.017-1.636.257-1.767.606-.083.22-.11.423-.1.64.017.394.812.706 1.769.746 27.805 1.176 31.976 1.023 33.346.247a.628.628 0 0 0 .222-.204c.478-.719.926-1.24-.08-1.846-.306-.185-.847-.273-1.393-.277ZM39.776 33.995c-11.93-.077-19.92-.136-31.997.088-.865.016-1.636.256-1.767.606-.083.22-.11.423-.1.64.017.393.812.705 1.769.746 27.805 1.175 31.976 1.023 33.346.246a.627.627 0 0 0 .222-.203c.478-.719.926-1.24-.08-1.846-.306-.185-.847-.274-1.393-.277ZM39.776 42.006c-11.93-.076-19.92-.136-31.997.089-.865.016-1.636.256-1.767.606-.083.22-.11.422-.1.64.017.393.812.705 1.769.745 27.805 1.176 31.976 1.024 33.346.247a.628.628 0 0 0 .222-.203c.478-.72.926-1.24-.08-1.847-.306-.184-.847-.273-1.393-.277ZM29.428 50.02c-8.285-.076-13.833-.136-22.22.089-.6.016-1.136.256-1.227.605-.058.22-.076.423-.07.64.012.394.564.706 1.229.746 19.309 1.176 22.205 1.023 23.157.247a.553.553 0 0 0 .154-.204c.332-.719.643-1.24-.056-1.846-.212-.185-.588-.273-.967-.277ZM32.217 7.883c-6.1.03-9.857-.017-16.047.433-.622.045-1.154.43-1.231.956a6.348 6.348 0 0 0-.063 1.042c.008.53.45.983 1.06 1.092 4.811.865 9.468.425 16.604-.2.74-.066 1.32-.6 1.258-1.23-.056-.586-.171-1.039-.392-1.484-.197-.395-.684-.612-1.189-.61ZM66.74 64.568l2.828-2.828 12.728 12.728-2.828 2.828z" fill="#6C8093"/>
  <path d="M68.154 26.385c10.154 10.153 10.154 26.616 0 36.77-10.153 10.153-26.616 10.153-36.77 0-10.153-10.154-10.153-26.617 0-36.77 10.154-10.154 26.617-10.154 36.77 0Z" fill="#4D94FA" fill-opacity=".25" stroke="#758AA5" stroke-width="5"/>
  <rect x="74.422" y="77.297" width="12" height="46" rx="6" transform="rotate(-45 74.422 77.297)" fill="#2C81FC"/>
  <path d="M56.802 29.313c6.753 3.033 10.461 8.459 10.461 6.51 0-2.28-4.09-6.775-9.463-9.014-5.249-2.186-14.496-2.127-14.944-1.002-.448 1.127 8.427 1.027 13.946 3.506Z" fill="#B7D3FD"/>
</svg>
