<svg width="130" height="91" viewBox="0 0 130 91" fill="none" xmlns="http://www.w3.org/2000/svg">
  <path d="M35.88 6.037C37.35 2.47 41.249.62 45.01 1.424c18.258 3.906 27.027 1.274 59.868 15.354 3.195 1.37 5.063 4.763 4.525 8.209-3.909 25.01-7.846 40.026-16.066 60.63a7.611 7.611 0 0 1-8.25 4.698c-23.717-3.734-38.655-7.612-60.25-16.155-3.287-1.3-5.248-4.708-4.742-8.217C23.508 42.238 27.16 27.22 35.88 6.037Z" fill="#84B7EA"/>
  <path d="m53.714 53.007-3.926-5.913a3.53 3.53 0 0 0-5.925 3.84l7.528 11.91a4 4 0 0 0 6.161.74L92.5 29.803a3.575 3.575 0 1 0-5.07-5.038l-27.49 28.79a4 4 0 0 1-6.225-.55Z" fill="#fff"/>
  <path d="M105.683 1.866c.235 3.365.343 5.493.875 8.891.067.43.407.775.842.794.139.006.273.006.409.002.526-.015.915-.483.893-1.009a132.274 132.274 0 0 0-.638-8.92c-.054-.534-.525-.945-1.055-.862-.321.05-.586.12-.84.227-.34.141-.512.509-.486.877ZM120.275 2.573c-2.175 2.484-3.545 3.987-5.552 6.684-.202.271-.21.649.014.903.15.17.3.315.473.464.255.221.629.232.901.031 2.137-1.584 3.599-3.656 5.862-6.811.234-.327.188-.788-.134-1.028a2.94 2.94 0 0 0-.847-.467c-.259-.087-.537.019-.717.224ZM128.428 14.18c-4.37 1.412-7.299 2.35-11.63 4.048-.311.121-.519.432-.46.761.037.207.089.392.159.586.126.349.51.53.871.447 10.489-2.396 11.962-3.05 12.225-3.914a.59.59 0 0 0 .018-.21c-.044-.703-.04-1.224-.591-1.642-.168-.127-.392-.14-.592-.075Z" fill="#8E99A4"/>
</svg>
