<svg width="24" height="24" viewBox="0 0 24 24" fill="none" xmlns="http://www.w3.org/2000/svg">
<path d="M18.5455 21H5.45455C4.80356 21 4.17924 20.7414 3.71892 20.2811C3.2586 19.8208 3 19.1964 3 18.5455V5.45455C3 4.80356 3.2586 4.17924 3.71892 3.71892C4.17924 3.2586 4.80356 3 5.45455 3H10.3636C10.5806 3 10.7887 3.0862 10.9422 3.23964C11.0956 3.39308 11.1818 3.60119 11.1818 3.81818C11.1818 4.03518 11.0956 4.24328 10.9422 4.39672C10.7887 4.55016 10.5806 4.63636 10.3636 4.63636H5.45455C5.23755 4.63636 5.02944 4.72256 4.876 4.876C4.72256 5.02944 4.63636 5.23755 4.63636 5.45455V18.5455C4.63636 18.7625 4.72256 18.9706 4.876 19.124C5.02944 19.2774 5.23755 19.3636 5.45455 19.3636H18.5455C18.7625 19.3636 18.9706 19.2774 19.124 19.124C19.2774 18.9706 19.3636 18.7625 19.3636 18.5455V13.6364C19.3636 13.4194 19.4498 13.2113 19.6033 13.0578C19.7567 12.9044 19.9648 12.8182 20.1818 12.8182C20.3988 12.8182 20.6069 12.9044 20.7604 13.0578C20.9138 13.2113 21 13.4194 21 13.6364V18.5455C21 19.1964 20.7414 19.8208 20.2811 20.2811C19.8208 20.7414 19.1964 21 18.5455 21ZM10.3636 14.4545C10.256 14.4552 10.1492 14.4345 10.0495 14.3938C9.94985 14.3531 9.85918 14.2931 9.78273 14.2173C9.70604 14.1412 9.64517 14.0507 9.60363 13.951C9.5621 13.8513 9.54071 13.7444 9.54071 13.6364C9.54071 13.5284 9.5621 13.4214 9.60363 13.3217C9.64517 13.222 9.70604 13.1315 9.78273 13.0555L18.21 4.63636H15.2727C15.0557 4.63636 14.8476 4.55016 14.6942 4.39672C14.5407 4.24328 14.4545 4.03518 14.4545 3.81818C14.4545 3.60119 14.5407 3.39308 14.6942 3.23964C14.8476 3.0862 15.0557 3 15.2727 3H20.1818C20.3988 3 20.6069 3.0862 20.7604 3.23964C20.9138 3.39308 21 3.60119 21 3.81818V8.72727C21 8.94427 20.9138 9.15238 20.7604 9.30581C20.6069 9.45925 20.3988 9.54545 20.1818 9.54545C19.9648 9.54545 19.7567 9.45925 19.6033 9.30581C19.4498 9.15238 19.3636 8.94427 19.3636 8.72727V5.79L10.9445 14.2173C10.8681 14.2931 10.7774 14.3531 10.6777 14.3938C10.5781 14.4345 10.4713 14.4552 10.3636 14.4545Z" fill="#2C81FC"/>
</svg>
