<svg width="24" height="24" viewBox="0 0 24 24" fill="none" xmlns="http://www.w3.org/2000/svg">
  <rect x="1" y="5" width="22" height="14" rx="3" stroke="#FFF" stroke-width="1.5"/>
  <path d="M4.575 13.439a.236.236 0 0 1-.116-.215c0-.048.018-.096.052-.143l.064-.084.889-.716-1.172-.096-.103-.024a.227.227 0 0 1-.155-.12.315.315 0 0 1-.025-.214l.296-.836a.218.218 0 0 1 .129-.143.355.355 0 0 1 .219-.024c.025 0 .06.016.103.048l1.004.549-.245-1.063-.012-.095a.26.26 0 0 1 .077-.18.295.295 0 0 1 .206-.083h.94c.077 0 .142.028.193.084.06.055.09.115.09.179l-.012.095-.258 1.063 1.018-.55.103-.047a.152.152 0 0 1 .064-.012c.069 0 .129.016.18.048.06.032.095.075.103.131l.31.836.012.072a.274.274 0 0 1-.064.167.246.246 0 0 1-.142.095l-.09.024-1.185.107.889.705c.051.048.077.076.077.084a.244.244 0 0 1 .052.143.236.236 0 0 1-.116.215l-.76.525a.393.393 0 0 1-.168.036c-.111 0-.189-.032-.231-.095l-.026-.024a.579.579 0 0 0-.039-.06l-.464-1.015-.476 1.015a.579.579 0 0 0-.039.06l-.025.024c-.043.063-.12.095-.232.095a.393.393 0 0 1-.168-.036l-.747-.525ZM10.31 13.439a.236.236 0 0 1-.115-.215c0-.048.017-.096.051-.143l.065-.084.888-.716-1.172-.096-.103-.024a.227.227 0 0 1-.154-.12.315.315 0 0 1-.026-.214l.296-.836a.218.218 0 0 1 .129-.143.355.355 0 0 1 .219-.024c.026 0 .06.016.103.048l1.005.549-.245-1.063-.013-.095a.26.26 0 0 1 .077-.18.295.295 0 0 1 .206-.083h.94c.078 0 .142.028.194.084.06.055.09.115.09.179l-.013.095-.258 1.063 1.018-.55.103-.047a.152.152 0 0 1 .064-.012c.069 0 .13.016.18.048.06.032.095.075.104.131l.309.836.013.072a.273.273 0 0 1-.065.167.246.246 0 0 1-.141.095l-.09.024-1.185.107.888.705c.052.048.077.076.077.084a.245.245 0 0 1-.064.358l-.76.525a.393.393 0 0 1-.167.036c-.112 0-.19-.032-.232-.095l-.026-.024a.581.581 0 0 0-.039-.06l-.463-1.015-.477 1.015a.577.577 0 0 0-.038.06c-.009.008-.018.015-.026.024-.043.063-.12.095-.232.095a.393.393 0 0 1-.167-.036l-.747-.525ZM16.046 13.439a.236.236 0 0 1-.116-.215c0-.048.017-.096.052-.143l.064-.084.889-.716-1.172-.096-.103-.024a.227.227 0 0 1-.155-.12.315.315 0 0 1-.026-.214l.296-.836a.219.219 0 0 1 .13-.143.355.355 0 0 1 .218-.024c.026 0 .06.016.103.048l1.005.549-.245-1.063-.013-.095a.26.26 0 0 1 .078-.18.295.295 0 0 1 .206-.083h.94c.077 0 .142.028.193.084.06.055.09.115.09.179l-.013.095-.257 1.063 1.017-.55.103-.047a.152.152 0 0 1 .065-.012c.068 0 .128.016.18.048.06.032.094.075.103.131l.31.836.012.072a.274.274 0 0 1-.064.167.246.246 0 0 1-.142.095l-.09.024-1.185.107.889.705c.051.048.077.076.077.084a.244.244 0 0 1 .051.143.236.236 0 0 1-.116.215l-.76.525a.393.393 0 0 1-.167.036c-.111 0-.189-.032-.232-.095l-.026-.024a.577.577 0 0 0-.038-.06l-.464-1.015-.476 1.015a.581.581 0 0 0-.039.06l-.026.024c-.043.063-.12.095-.232.095a.393.393 0 0 1-.167-.036l-.747-.525Z" fill="#FFF"/>
</svg>
