<svg width="24" height="24" viewBox="0 0 24 24" fill="none" xmlns="http://www.w3.org/2000/svg">
<path d="M20.3778 12.5239C20.2953 12.5236 20.2138 12.5062 20.1383 12.4728C20.0862 12.7974 20.0067 13.117 19.9007 13.4281C19.7655 13.7584 19.5416 14.0449 19.2539 14.256L19.3407 15.0135C19.3508 15.0858 19.3739 15.1556 19.4087 15.2198C19.4673 15.3193 19.5512 15.4016 19.6518 15.4583C19.7724 15.5246 19.9062 15.5633 20.0436 15.5716C20.1249 15.5815 20.2062 15.588 20.2889 15.596C20.7104 15.613 21.13 15.6621 21.544 15.7428C21.5502 15.7446 21.5562 15.7469 21.5617 15.7486C21.6838 15.473 21.7279 15.1691 21.6891 14.8701C21.6503 14.5711 21.5302 14.2885 21.3419 14.0531C21.1079 13.761 20.9805 13.3979 20.9805 13.0236V11.9219C20.9805 12.001 20.9649 12.0793 20.9346 12.1524C20.9043 12.2255 20.8599 12.2919 20.8039 12.3478C20.7479 12.4037 20.6815 12.4481 20.6084 12.4783C20.5352 12.5085 20.4569 12.524 20.3778 12.5239Z" fill="#596C76"/>
<path d="M13.5008 4.98438H10.5023C9.91828 5.00354 9.36458 5.24897 8.95815 5.66881C8.55173 6.08866 8.32441 6.65004 8.32422 7.23438V9.97122C8.32422 9.76773 8.40506 9.57257 8.54894 9.42868C8.69283 9.28479 8.88799 9.20396 9.09148 9.20396C9.12682 9.20396 9.61276 9.20714 9.64687 9.21173V8.43016H11.2033C12.1037 8.43019 12.9886 8.19585 13.771 7.75019C13.8131 8.137 14.3842 8.43016 14.3842 8.43016V9.21049C14.4095 9.20784 14.8857 9.20484 14.9117 9.20484C15.1152 9.20484 15.3103 9.28568 15.4542 9.42956C15.5981 9.57345 15.6789 9.76861 15.6789 9.9721V7.23438C15.6787 6.65004 15.4514 6.08866 15.045 5.66881C14.6386 5.24897 14.0849 5.00354 13.5008 4.98438Z" fill="#596C76"/>
<path d="M19.2704 8.00391H16.9179C16.6839 8.01167 16.4538 8.06593 16.2411 8.16353C16.0283 8.26113 15.837 8.40011 15.6785 8.57237V9.96835C15.6781 9.8304 15.6403 9.69514 15.5692 9.57692C15.4981 9.45869 15.3964 9.36192 15.2747 9.29687C15.4022 9.36508 15.5076 9.46802 15.5789 9.59375C15.6503 9.71948 15.6844 9.86285 15.6776 10.0072C15.6707 10.1516 15.623 10.2911 15.5401 10.4095C15.4571 10.5278 15.3423 10.6203 15.209 10.6761V11.9171C15.209 11.7574 15.2724 11.6043 15.3853 11.4914C15.4982 11.3785 15.6514 11.315 15.811 11.315C15.8389 11.315 16.2199 11.3175 16.2468 11.3212V10.7063H17.4678C18.1742 10.7062 18.8684 10.5224 19.4823 10.1728C19.5152 10.4762 19.9633 10.7063 19.9633 10.7063V11.3186C19.9831 11.3163 20.3566 11.314 20.3771 11.314C20.5368 11.314 20.6899 11.3774 20.8028 11.4903C20.9157 11.6032 20.9792 11.7563 20.9792 11.916V9.76974C20.9791 9.31123 20.8008 8.87069 20.482 8.5412C20.1631 8.2117 19.7287 8.01904 19.2704 8.00391Z" fill="#596C76"/>
<path d="M15.2088 11.9221V13.0238C15.2089 13.3981 15.0814 13.7612 14.8475 14.0533C14.7108 14.2245 14.6099 14.4213 14.5508 14.6322C14.6328 14.641 14.7146 14.6488 14.7982 14.6566C15.3332 14.7096 15.874 14.7096 16.396 14.8439C16.5516 14.8871 16.7027 14.9451 16.8473 15.0172L16.8481 15.0137L16.9365 14.2412C16.6584 14.0315 16.4421 13.7507 16.3103 13.4283C16.2037 13.1143 16.1236 12.7919 16.0708 12.4645C15.9791 12.5087 15.8777 12.5289 15.7761 12.5231C15.6744 12.5174 15.5759 12.4859 15.4898 12.4317C15.4037 12.3774 15.3327 12.3022 15.2837 12.213C15.2346 12.1238 15.2089 12.0237 15.2092 11.9219L15.2088 11.9221Z" fill="#596C76"/>
<path d="M3.6256 12.5239C3.70808 12.5236 3.7896 12.5062 3.86504 12.4728C3.91715 12.7974 3.99666 13.117 4.10271 13.4281C4.2379 13.7584 4.46172 14.0449 4.74946 14.256L4.6627 15.0135C4.65254 15.0858 4.6295 15.1556 4.59466 15.2198C4.53573 15.3195 4.45132 15.4019 4.3501 15.4583C4.22958 15.5246 4.09583 15.5633 3.95852 15.5716C3.87723 15.5815 3.79595 15.588 3.71307 15.596C3.2921 15.6131 2.87304 15.6621 2.45952 15.7428C2.45333 15.7446 2.44732 15.7469 2.44185 15.7486C2.31975 15.473 2.27569 15.1691 2.31445 14.8701C2.35321 14.5711 2.47332 14.2885 2.66167 14.0531C2.89561 13.761 3.02307 13.3979 3.02303 13.0236V11.9219C3.02303 12.001 3.03862 12.0793 3.06891 12.1524C3.0992 12.2255 3.14359 12.2919 3.19956 12.3478C3.25552 12.4037 3.32195 12.448 3.39505 12.4782C3.46816 12.5085 3.5465 12.524 3.6256 12.5239Z" fill="#596C76"/>
<path d="M4.73237 8.00391H7.08504C7.31902 8.01167 7.54911 8.06593 7.76191 8.16353C7.9747 8.26113 8.16593 8.40011 8.32446 8.57237V9.96835C8.32488 9.8304 8.36264 9.69514 8.43373 9.57692C8.50482 9.45869 8.60659 9.36192 8.72824 9.29687C8.6008 9.36508 8.49531 9.46802 8.42401 9.59375C8.35271 9.71948 8.31851 9.86285 8.32539 10.0072C8.33227 10.1516 8.37995 10.2911 8.46289 10.4095C8.54582 10.5278 8.66063 10.6203 8.79397 10.6761V11.9171C8.79397 11.7574 8.73054 11.6043 8.61764 11.4914C8.50474 11.3785 8.3516 11.315 8.19193 11.315C8.16401 11.315 7.78303 11.3175 7.75617 11.3212V10.7063H6.53513C5.82874 10.7062 5.13452 10.5224 4.52067 10.1728C4.48728 10.4766 4.03932 10.7063 4.03932 10.7063V11.3186C4.01953 11.3163 3.64598 11.314 3.62548 11.314C3.46581 11.314 3.31268 11.3774 3.19977 11.4903C3.08687 11.6032 3.02344 11.7563 3.02344 11.916V9.76974C3.02351 9.3112 3.20182 8.87064 3.52071 8.54114C3.83959 8.21163 4.27408 8.01899 4.73237 8.00391Z" fill="#596C76"/>
<path d="M8.79407 11.9221V13.0238C8.79404 13.3981 8.92149 13.7612 9.15543 14.0533C9.29208 14.2245 9.39297 14.4213 9.45212 14.6322C9.37013 14.641 9.28832 14.6488 9.20473 14.6566C8.66967 14.7096 8.12894 14.7096 7.60695 14.8439C7.4513 14.8871 7.30017 14.9451 7.15564 15.0172L7.15476 15.0137L7.06641 14.2412C7.34447 14.0315 7.56082 13.7507 7.69265 13.4283C7.79924 13.1143 7.87933 12.7919 7.93209 12.4645C8.02379 12.5087 8.12521 12.5289 8.22684 12.5231C8.32847 12.5174 8.42697 12.4859 8.5131 12.4317C8.59923 12.3774 8.67016 12.3022 8.71925 12.213C8.76833 12.1238 8.79396 12.0237 8.79372 11.9219L8.79407 11.9221Z" fill="#596C76"/>
<path d="M20.3763 11.3212C20.3558 11.3212 19.9822 11.3235 19.9624 11.3258V10.7133C19.9624 10.7133 19.5143 10.4836 19.4814 10.1797C18.8677 10.5294 18.1734 10.7133 17.467 10.7133H16.2459V11.3272C16.2191 11.3235 15.8381 11.321 15.8102 11.321C15.7197 11.3209 15.6304 11.3411 15.5488 11.3802C15.4672 11.4193 15.3955 11.4763 15.339 11.5469C15.2825 11.6176 15.2426 11.7 15.2223 11.7882C15.2021 11.8764 15.2019 11.968 15.2219 12.0562C15.2419 12.1444 15.2816 12.227 15.3379 12.2978C15.3942 12.3686 15.4658 12.4258 15.5472 12.4652C15.6287 12.5045 15.718 12.525 15.8084 12.5251C15.8989 12.5252 15.9882 12.5049 16.0698 12.4657C16.1225 12.7931 16.2026 13.1155 16.3092 13.4295C16.4548 13.7861 16.7033 14.0912 17.023 14.3059C17.3427 14.5207 17.7191 14.6354 18.1043 14.6354C18.4894 14.6354 18.8658 14.5207 19.1855 14.3059C19.5052 14.0912 19.7537 13.7861 19.8994 13.4295C20.0054 13.1184 20.0849 12.7988 20.137 12.4742C20.2189 12.5093 20.3075 12.5258 20.3965 12.5224C20.4854 12.519 20.5725 12.4959 20.6515 12.4547C20.7304 12.4136 20.7993 12.3554 20.853 12.2844C20.9067 12.2133 20.9439 12.1313 20.962 12.0441C20.9801 11.9569 20.9786 11.8668 20.9576 11.7803C20.9366 11.6937 20.8966 11.613 20.8405 11.5438C20.7845 11.4746 20.7137 11.4187 20.6335 11.3803C20.5532 11.3418 20.4653 11.3216 20.3763 11.3212Z" fill="#FFCEBF"/>
<path d="M14.9087 9.20767C14.8827 9.20767 14.4065 9.21068 14.3812 9.21333V8.43387C14.3812 8.43387 13.8101 8.14072 13.768 7.75391C12.9857 8.19957 12.1007 8.43391 11.2003 8.43387H9.64389V9.21633C9.60978 9.21174 9.12402 9.20856 9.0885 9.20856C8.97293 9.20785 8.85869 9.23327 8.75432 9.28289C8.64994 9.33251 8.55812 9.40507 8.48571 9.49515C8.4133 9.58522 8.36217 9.69049 8.33613 9.80309C8.3101 9.91569 8.30983 10.0327 8.33535 10.1454C8.36087 10.2582 8.41152 10.3637 8.48351 10.4541C8.55551 10.5445 8.64699 10.6174 8.75114 10.6676C8.85529 10.7177 8.96941 10.7436 9.08498 10.7434C9.20055 10.7432 9.31459 10.717 9.41859 10.6666C9.4858 11.0839 9.58794 11.4948 9.72394 11.895C9.90929 12.3499 10.226 12.7391 10.6336 13.0132C11.0411 13.2872 11.5211 13.4336 12.0123 13.4336C12.5034 13.4336 12.9834 13.2872 13.391 13.0132C13.7986 12.7391 14.1153 12.3499 14.3006 11.895C14.4358 11.4987 14.5372 11.0915 14.6035 10.678C14.6996 10.7207 14.8035 10.7429 14.9087 10.7433C15.1102 10.7402 15.3024 10.658 15.4438 10.5144C15.5852 10.3709 15.6645 10.1774 15.6645 9.97591C15.6645 9.77439 15.5852 9.58095 15.4438 9.43738C15.3024 9.2938 15.1102 9.21161 14.9087 9.20856V9.20767Z" fill="#FFCEBF"/>
<path d="M12 15.5363C12.3929 15.5413 12.7807 15.4473 13.1276 15.2629C13.4745 15.0785 13.7695 14.8097 13.9851 14.4813C13.8567 14.4091 13.7497 14.3042 13.675 14.1772C13.6306 14.0955 13.6012 14.0064 13.5884 13.9143L13.4778 12.9488C13.0496 13.2652 12.5304 13.4344 11.9979 13.431C11.4654 13.4275 10.9484 13.2517 10.5243 12.9297L10.4116 13.9143C10.3974 14.0339 10.3533 14.1481 10.2834 14.2463C10.2135 14.3444 10.1201 14.4234 10.0117 14.476C10.227 14.8059 10.5222 15.076 10.8698 15.2614C11.2174 15.4467 11.6061 15.5413 12 15.5363Z" fill="#FFA78F"/>
<path d="M16.3952 14.8445C15.8732 14.7102 15.3324 14.7109 14.7974 14.6572C14.6913 14.6473 14.5881 14.6395 14.4846 14.6262C14.3096 14.6157 14.1391 14.5664 13.9854 14.4819C13.7659 14.8072 13.4698 15.0737 13.1231 15.2577C12.7764 15.4417 12.3898 15.5377 11.9973 15.5372C11.6048 15.5367 11.2184 15.4396 10.8722 15.2547C10.526 15.0697 10.2306 14.8025 10.012 14.4766C9.75382 14.6028 9.46867 14.6639 9.18145 14.6545C8.65158 14.6677 8.12416 14.7312 7.60629 14.8441C7.07209 14.9902 6.6007 15.3078 6.26461 15.748C5.92851 16.1882 5.74634 16.7266 5.74609 17.2804V19.0179H18.2545V17.2804C18.2542 16.7267 18.0721 16.1885 17.7362 15.7484C17.4003 15.3083 16.9291 14.9907 16.3952 14.8445Z" fill="#ADE6EA"/>
<path d="M19.4069 15.221C19.372 15.1569 19.3489 15.087 19.3389 15.0147L19.2521 14.2572C18.9161 14.5054 18.5087 14.638 18.091 14.6353C17.6733 14.6326 17.2677 14.4947 16.9349 14.2422L16.8466 15.0147L16.8457 15.0183C17.3842 15.2845 17.8104 15.7334 18.0484 16.2849C18.0634 16.2849 18.0777 16.2877 18.0927 16.2877C18.4011 16.2918 18.7056 16.218 18.9779 16.0732C19.2503 15.9285 19.4817 15.7174 19.6509 15.4595C19.5499 15.4029 19.4657 15.3206 19.4069 15.221Z" fill="#FFA78F"/>
<path d="M21.5432 15.7376C21.1296 15.657 20.7105 15.6079 20.2895 15.5908C20.2068 15.5828 20.1255 15.5763 20.0442 15.5664C19.9068 15.5581 19.773 15.5194 19.6525 15.4531C19.4833 15.7109 19.252 15.9219 18.9798 16.0666C18.7077 16.2114 18.4034 16.2852 18.0951 16.2814C18.0801 16.2814 18.0658 16.2789 18.0508 16.2785C18.1863 16.593 18.2562 16.9319 18.2561 17.2744V19.012H23.001V17.6487C23.0009 17.2145 22.8582 16.7923 22.5948 16.447C22.3315 16.1017 21.962 15.8525 21.5432 15.7376Z" fill="#FFE274"/>
<path d="M3.62558 11.3212C3.64608 11.3212 4.01964 11.3235 4.03943 11.3258V10.7133C4.03943 10.7133 4.48755 10.4836 4.52042 10.1797C5.13422 10.5294 5.82846 10.7133 6.53488 10.7133H7.75592V11.3272C7.78278 11.3235 8.16376 11.321 8.19168 11.321C8.28215 11.3209 8.37149 11.3411 8.45307 11.3802C8.53465 11.4193 8.60636 11.4763 8.66288 11.5469C8.7194 11.6176 8.75928 11.7 8.77954 11.7882C8.79981 11.8764 8.79994 11.968 8.77993 12.0562C8.75992 12.1444 8.72029 12.227 8.66398 12.2978C8.60766 12.3686 8.53612 12.4258 8.45465 12.4652C8.37319 12.5045 8.28391 12.525 8.19344 12.5251C8.10297 12.5252 8.01365 12.5049 7.9321 12.4657C7.87934 12.7931 7.79925 13.1155 7.69266 13.4295C7.54705 13.7861 7.29855 14.0912 6.97885 14.3059C6.65915 14.5207 6.28273 14.6354 5.89759 14.6354C5.51244 14.6354 5.13603 14.5207 4.81633 14.3059C4.49663 14.0912 4.24813 13.7861 4.10251 13.4295C3.99646 13.1184 3.91695 12.7988 3.86484 12.4742C3.783 12.5093 3.69439 12.5258 3.60542 12.5224C3.51644 12.519 3.42933 12.4959 3.35037 12.4547C3.27142 12.4136 3.20261 12.3554 3.14891 12.2844C3.09521 12.2133 3.05797 12.1313 3.03988 12.0441C3.02178 11.9569 3.0233 11.8668 3.0443 11.7803C3.06531 11.6937 3.10529 11.613 3.16134 11.5438C3.21739 11.4746 3.28812 11.4187 3.36841 11.3803C3.4487 11.3418 3.53654 11.3216 3.62558 11.3212Z" fill="#FFCEBF"/>
<path d="M4.59169 15.221C4.62652 15.1569 4.64956 15.087 4.65972 15.0147L4.74648 14.2572C5.0825 14.5054 5.48985 14.638 5.90756 14.6353C6.32527 14.6326 6.73087 14.4947 7.06364 14.2422L7.15199 15.0147L7.15288 15.0183C6.61441 15.2845 6.18809 15.7334 5.95003 16.2849C5.93519 16.2849 5.92088 16.2877 5.90586 16.2877C5.59746 16.2917 5.29303 16.2179 5.02069 16.0732C4.74835 15.9284 4.51688 15.7174 4.34766 15.4595C4.44868 15.403 4.5329 15.3207 4.59169 15.221Z" fill="#FFA78F"/>
<path d="M2.45871 15.7376C2.87224 15.657 3.2913 15.6079 3.71227 15.5908C3.79515 15.5828 3.87643 15.5763 3.95772 15.5664C4.09478 15.558 4.22828 15.5193 4.34859 15.4531C4.51775 15.7109 4.74911 15.9219 5.02132 16.0666C5.29353 16.2114 5.59781 16.2852 5.90609 16.2814C5.92111 16.2814 5.93542 16.2789 5.95026 16.2785C5.81476 16.5931 5.74495 16.932 5.74511 17.2744V19.012H1V17.6487C1.00018 17.2143 1.14302 16.7921 1.40657 16.4468C1.67012 16.1015 2.03978 15.8524 2.45871 15.7376Z" fill="#FFE274"/>
</svg>
