<svg width="328" height="328" viewBox="0 0 328 328" fill="none" xmlns="http://www.w3.org/2000/svg">
<rect width="328" height="328" rx="10" fill="white"/>
<rect x="36.4453" y="36.4443" width="255.111" height="255.111" rx="6" fill="#EDEDED"/>
<path d="M266.297 214.736L195.664 96.6909C191.213 89.2515 182.373 89.2515 177.921 96.6909L133.629 170.714C132.145 173.194 129.198 173.194 127.714 170.714L116.159 151.403C111.708 143.963 102.868 143.963 98.4164 151.403L46.3126 238.481C44.4643 241.57 46.2067 246 49.2698 246H278.728C281.858 246 283.58 241.399 281.596 238.338L266.297 214.736Z" fill="#BFBFBF"/>
<path fill-rule="evenodd" clip-rule="evenodd" d="M2.52467 14.7467L313.253 325.475C316.637 328.842 322.092 328.842 325.475 325.475C328.842 322.092 328.842 316.637 325.475 313.253L14.7467 2.52467C11.3632 -0.841557 5.90816 -0.841557 2.52467 2.52467C-0.841557 5.90816 -0.841557 11.3632 2.52467 14.7467Z" fill="#FF5353"/>
</svg>
