<svg viewBox="0 0 36 36" fill="none" xmlns="http://www.w3.org/2000/svg">
  <circle cx="18" cy="18" r="18" fill="#FFF"/>
  <path d="M24.944 13.453c-.494-.278-1.128-.278-1.692 0l-3.948 2.291-2.679 1.458-3.877 2.292c-.493.277-1.128.277-1.692 0l-3.031-1.806a1.688 1.688 0 0 1-.846-1.458v-3.472c0-.555.282-1.11.846-1.458l3.031-1.736c.494-.277 1.128-.277 1.692 0l3.031 1.806c.494.277.846.833.846 1.458v2.291l2.68-1.527V11.23c0-.556-.283-1.111-.847-1.458l-5.64-3.264c-.493-.278-1.127-.278-1.691 0L5.346 9.842c-.564.278-.846.833-.846 1.389v6.527c0 .555.282 1.11.846 1.458l5.71 3.263c.494.278 1.128.278 1.692 0l3.877-2.221 2.68-1.528 3.877-2.222c.493-.278 1.127-.278 1.691 0l3.032 1.736c.493.278.846.833.846 1.458v3.472c0 .555-.282 1.11-.846 1.458l-2.961 1.736c-.494.278-1.128.278-1.692 0l-3.031-1.736a1.688 1.688 0 0 1-.846-1.458v-2.222l-2.68 1.527v2.292c0 .555.283 1.11.847 1.458l5.71 3.264c.493.277 1.128.277 1.692 0l5.71-3.264c.494-.278.846-.833.846-1.458v-6.597c0-.555-.282-1.11-.846-1.458l-5.71-3.263Z" fill="#8247E5"/>
</svg>
