<svg width="24px" height="24px" viewBox="0 0 22 24" fill="none" xmlns="http://www.w3.org/2000/svg">
  <path d="M21.057 6.18c-.013-.648-.024-1.26-.024-1.853a.84.84 0 0 0-.84-.84c-3.593 0-6.329-1.032-8.609-3.25a.84.84 0 0 0-1.17 0c-2.28 2.218-5.016 3.25-8.608 3.25a.84.84 0 0 0-.84.84c0 .593-.012 1.205-.024 1.853-.115 6.03-.273 14.289 9.782 17.774a.84.84 0 0 0 .55 0c10.055-3.486 9.898-11.744 9.783-17.774ZM10.999 22.269c-8.623-3.133-8.493-9.995-8.377-16.057L2.64 5.15C6.005 5.008 8.696 3.988 11 1.982c2.303 2.006 4.995 3.026 8.36 3.168.004.346.01.698.018 1.061.116 6.063.246 12.925-8.378 16.057Z" fill="#FFF"/>
  <path d="m14.3 9.254-4.055 4.054-1.73-1.73a.84.84 0 0 0-1.188 1.188l2.324 2.324a.837.837 0 0 0 1.188 0l4.649-4.648A.84.84 0 0 0 14.3 9.254Z" fill="#FFF"/>
</svg>
