<svg width="24" height="24" viewBox="0 0 24 24" fill="none" xmlns="http://www.w3.org/2000/svg">
<path d="M19.8448 2H15.217C14.2011 2 12.8424 2.56274 12.1242 3.28113L2.62927 12.7759C2.22339 13.1816 2 13.7227 2 14.2997C2 14.8766 2.22354 15.4177 2.62927 15.8234L8.17645 21.3707C8.58218 21.7765 9.12341 22 9.7002 22C10.2771 22 10.8182 21.7765 11.2241 21.3707L20.7189 11.8758C21.4373 11.1576 22 9.79892 22 8.78299V4.15485C21.9998 2.96664 21.0331 2 19.8448 2ZM18.7216 6.14062C18.6127 6.25003 18.4615 6.31244 18.3072 6.31244C18.153 6.31244 18.002 6.24988 17.8931 6.14062C17.7837 6.03168 17.7213 5.88077 17.7213 5.7265C17.7213 5.57208 17.7838 5.42102 17.8931 5.31207C18.0017 5.20312 18.153 5.14056 18.3072 5.14056C18.4615 5.14056 18.6127 5.20312 18.7216 5.31207C18.8306 5.42102 18.8932 5.57224 18.8932 5.7265C18.8932 5.88077 18.8306 6.03168 18.7216 6.14062Z" fill="#FF4949"/>
<path d="M18.7215 5.3114C18.8304 5.42035 18.893 5.57156 18.893 5.72583C18.893 5.8801 18.8304 6.03101 18.7215 6.13995C18.6125 6.24936 18.4613 6.31177 18.307 6.31177C18.1528 6.31177 18.0019 6.24921 17.8929 6.13995L5.41992 18.6136L8.17627 21.3701C8.582 21.7758 9.12323 21.9992 9.70001 21.9993C10.2769 21.9993 10.818 21.7758 11.2239 21.3699L20.7187 11.8751C21.4371 11.1567 21.9998 9.79825 21.9998 8.78232V4.15417C21.9997 3.5687 21.7645 3.03723 21.3843 2.64844L18.7215 5.3114Z" fill="#FF2323"/>
<path d="M7.44206 14.9422C7.22905 14.7293 7.2823 14.4186 7.60167 14.099C7.97459 13.7262 8.24528 13.7927 8.38292 13.6552C8.54268 13.4955 8.40947 13.2202 8.30739 13.1183C8.01442 12.8253 7.37096 13.3446 7.10911 13.6064C6.59871 14.1168 6.25706 14.9112 6.91823 15.5725C7.97002 16.6243 9.19057 14.9956 9.85631 15.6613C10.1226 15.9276 10.0116 16.2781 9.74522 16.5445C9.29265 16.9971 8.83107 16.7752 8.64903 16.9571C8.51155 17.0947 8.5825 17.3965 8.70671 17.5209C8.96413 17.7783 9.70097 17.6274 10.2823 17.0459C10.8948 16.4335 11.0102 15.6611 10.3756 15.0265C9.22612 13.8771 7.99229 15.4927 7.44206 14.9422Z" fill="#FEF4F5"/>
<path d="M13.6474 13.0407L9.9992 11.1057C9.82617 11.0125 9.59988 11.1145 9.43127 11.2833C9.26709 11.4473 9.16485 11.6738 9.25808 11.847L11.1931 15.495C11.2063 15.5172 11.2198 15.5393 11.2286 15.5483C11.3707 15.6902 11.6769 15.5793 11.8321 15.4239C11.9297 15.3264 11.9743 15.2198 11.9122 15.1133L11.4904 14.3544L12.5068 13.338L13.2657 13.7598C13.3723 13.8217 13.4787 13.7775 13.5763 13.6798C13.7317 13.5245 13.8382 13.2137 13.7005 13.0762C13.6874 13.0629 13.6696 13.0539 13.6474 13.0407ZM11.1577 13.7819L10.1812 12.0331L11.9299 13.0097L11.1577 13.7819Z" fill="#FEF4F5"/>
<path d="M15.3988 10.8485L14.3159 11.9314L11.7552 9.3705C11.6308 9.24629 11.4312 9.33952 11.2892 9.48143C11.1427 9.62791 11.0539 9.82322 11.1781 9.94758L14.0629 12.8324C14.1827 12.9522 14.3692 12.8901 14.498 12.7613L15.9048 11.3544C16.0202 11.2391 15.9491 11.0526 15.8249 10.9284C15.6962 10.7996 15.5143 10.733 15.3988 10.8485Z" fill="#FEF4F5"/>
<path d="M18.1604 8.59771C18.0228 8.46007 17.8363 8.40682 17.721 8.52217L16.465 9.77813L15.573 8.8861L16.2476 8.21151C16.3718 8.0873 16.3097 7.90969 16.2076 7.80761C16.0878 7.68782 15.9102 7.64357 15.7949 7.75893L15.1203 8.43337L14.2327 7.54576L15.4886 6.28997C15.604 6.17446 15.5507 5.98815 15.4132 5.85051C15.2933 5.73073 15.107 5.65963 14.9826 5.78383L13.4027 7.36388C13.274 7.49251 13.2119 7.67897 13.3318 7.79876L16.212 10.679C16.332 10.7989 16.5183 10.7368 16.6471 10.6081L18.227 9.02816C18.3512 8.90395 18.2802 8.71749 18.1604 8.59771Z" fill="#FEF4F5"/>
<path d="M9.85645 15.6674C10.1227 15.9337 10.0118 16.2842 9.74551 16.5506C9.29279 17.0032 8.83121 16.7813 8.64932 16.9632C8.51169 17.1008 8.58279 17.4026 8.707 17.527C8.96442 17.7844 9.70111 17.6335 10.2825 17.052C10.895 16.4397 11.0103 15.6673 10.3757 15.0327C10.0597 14.7166 9.73727 14.61 9.42447 14.6094L8.14258 15.8914C8.81244 15.7277 9.44202 15.253 9.85645 15.6674Z" fill="#D5EDED"/>
<path d="M11.9295 13.0135L11.1574 13.7858L10.8334 13.2055L10.2734 13.7655L11.1928 15.4989C11.2061 15.521 11.2195 15.5431 11.2283 15.5521C11.3704 15.694 11.6766 15.5831 11.8318 15.4278C11.9295 15.3303 11.974 15.2236 11.9119 15.1171L11.4902 14.3581L12.5066 13.3419L13.2654 13.7635C13.372 13.8256 13.4784 13.7813 13.5761 13.6835C13.7314 13.5282 13.8379 13.2175 13.7003 13.08C13.687 13.0668 13.6693 13.0578 13.6472 13.0445L11.9138 12.125L11.3493 12.6894L11.9295 13.0135Z" fill="#D5EDED"/>
<path d="M14.0633 12.8246C14.1831 12.9445 14.3695 12.8824 14.4982 12.7536L15.905 11.3466C16.0204 11.2314 15.9494 11.0449 15.8252 10.9207C15.6964 10.7919 15.5146 10.7253 15.399 10.8408L14.3161 11.9237L13.2117 10.8193L12.6348 11.3962L14.0633 12.8246Z" fill="#D5EDED"/>
<path d="M17.7187 8.5173L16.4628 9.77325L15.5707 8.88123L16.2453 8.20663C16.3657 8.08609 16.3109 7.9158 16.2144 7.8125L14.7812 9.24561L16.2098 10.6741C16.3296 10.7941 16.516 10.732 16.6448 10.6032L18.2245 9.02328C18.3489 8.89908 18.2778 8.71262 18.1582 8.59283C18.0205 8.4552 17.8341 8.40195 17.7187 8.5173Z" fill="#D5EDED"/>
</svg>
