<svg width="24" height="24" viewBox="0 0 24 24" fill="none" xmlns="http://www.w3.org/2000/svg">
<path d="M19.8448 2H15.217C14.2011 2 12.8424 2.56274 12.1242 3.28113L2.62927 12.7759C2.22339 13.1816 2 13.7227 2 14.2997C2 14.8766 2.22354 15.4177 2.62927 15.8234L8.17645 21.3707C8.58218 21.7765 9.12341 22 9.7002 22C10.2771 22 10.8182 21.7765 11.2241 21.3707L20.7189 11.8758C21.4373 11.1576 22 9.79892 22 8.78299V4.15485C21.9998 2.96664 21.0331 2 19.8448 2ZM18.7216 6.14062C18.6127 6.25003 18.4615 6.31244 18.3072 6.31244C18.153 6.31244 18.002 6.24988 17.8931 6.14062C17.7837 6.03168 17.7213 5.88077 17.7213 5.7265C17.7213 5.57208 17.7838 5.42102 17.8931 5.31207C18.0017 5.20312 18.153 5.14056 18.3072 5.14056C18.4615 5.14056 18.6127 5.20312 18.7216 5.31207C18.8306 5.42102 18.8932 5.57224 18.8932 5.7265C18.8932 5.88077 18.8306 6.03168 18.7216 6.14062Z" fill="#364A5F"/>
<path d="M18.7234 5.3114C18.8324 5.42035 18.8949 5.57156 18.8949 5.72583C18.8949 5.8801 18.8324 6.03101 18.7234 6.13995C18.6145 6.24936 18.4633 6.31177 18.309 6.31177C18.1547 6.31177 18.0038 6.24921 17.8949 6.13995L5.42188 18.6136L8.17822 21.3701C8.58395 21.7758 9.12518 21.9992 9.70197 21.9993C10.2789 21.9993 10.82 21.7758 11.2259 21.3699L20.7206 11.8751C21.439 11.1567 22.0018 9.79825 22.0018 8.78232V4.15417C22.0016 3.5687 21.7665 3.03723 21.3862 2.64844L18.7234 5.3114Z" fill="#314356"/>
<path d="M7.44011 14.9461C7.2271 14.7332 7.28035 14.4225 7.59971 14.1029C7.97264 13.7301 8.24333 13.7966 8.38096 13.6591C8.54072 13.4994 8.40752 13.2241 8.30543 13.1222C8.01247 12.8292 7.369 13.3485 7.10716 13.6103C6.59675 14.1207 6.25511 14.9151 6.91627 15.5764C7.96806 16.6282 9.18861 14.9995 9.85435 15.6652C10.1206 15.9315 10.0097 16.282 9.74327 16.5484C9.29069 17.001 8.82912 16.7791 8.64708 16.961C8.5096 17.0986 8.58055 17.4004 8.70476 17.5248C8.96217 17.7822 9.69902 17.6313 10.2804 17.0498C10.8929 16.4375 11.0082 15.6651 10.3736 15.0304C9.22417 13.881 7.99034 15.4966 7.44011 14.9461Z" fill="#5E7385"/>
<path d="M13.6435 13.0407L9.9953 11.1057C9.82226 11.0125 9.59598 11.1145 9.42737 11.2833C9.26318 11.4473 9.16095 11.6738 9.25418 11.847L11.1891 15.495C11.2024 15.5172 11.2158 15.5393 11.2247 15.5483C11.3668 15.6902 11.673 15.5793 11.8282 15.4239C11.9258 15.3264 11.9704 15.2198 11.9083 15.1133L11.4865 14.3544L12.5029 13.338L13.2617 13.7598C13.3684 13.8217 13.4748 13.7775 13.5724 13.6798C13.7278 13.5245 13.8343 13.2137 13.6966 13.0762C13.6835 13.0629 13.6656 13.0539 13.6435 13.0407ZM11.1537 13.7819L10.1773 12.0331L11.926 13.0097L11.1537 13.7819Z" fill="#5E7385"/>
<path d="M15.3969 10.8446L14.314 11.9275L11.7532 9.36659C11.6289 9.24238 11.4293 9.33561 11.2872 9.47752C11.1407 9.62401 11.0519 9.81932 11.1761 9.94368L14.061 12.8285C14.1808 12.9483 14.3672 12.8862 14.496 12.7574L15.9029 11.3505C16.0182 11.2352 15.9471 11.0487 15.8229 10.9245C15.6943 10.7957 15.5124 10.729 15.3969 10.8446Z" fill="#5E7385"/>
<path d="M18.1585 8.59771C18.0208 8.46007 17.8344 8.40682 17.719 8.52217L16.4631 9.77813L15.571 8.8861L16.2456 8.21151C16.3698 8.0873 16.3077 7.90969 16.2057 7.80761C16.0859 7.68782 15.9083 7.64357 15.7929 7.75893L15.1183 8.43337L14.2307 7.54576L15.4867 6.28997C15.602 6.17446 15.5488 5.98815 15.4113 5.85051C15.2914 5.73073 15.105 5.65963 14.9807 5.78383L13.4008 7.36388C13.272 7.49251 13.2099 7.67897 13.3298 7.79876L16.2101 10.679C16.33 10.7989 16.5163 10.7368 16.6451 10.6081L18.225 9.02816C18.3492 8.90395 18.2783 8.71749 18.1585 8.59771Z" fill="#5E7385"/>
<path d="M9.85449 15.6674C10.1208 15.9337 10.0098 16.2842 9.74356 16.5506C9.29083 17.0032 8.82925 16.7813 8.64737 16.9632C8.50974 17.1008 8.58084 17.4026 8.70505 17.527C8.96246 17.7844 9.69916 17.6335 10.2805 17.052C10.893 16.4397 11.0084 15.6673 10.3737 15.0327C10.0577 14.7166 9.73532 14.61 9.42252 14.6094L8.14062 15.8914C8.81049 15.7277 9.44006 15.253 9.85449 15.6674Z" fill="#4C6176"/>
<path d="M11.9295 13.0096L11.1574 13.7819L10.8334 13.2016L10.2734 13.7616L11.1928 15.495C11.2061 15.5171 11.2195 15.5392 11.2283 15.5482C11.3704 15.6901 11.6766 15.5792 11.8318 15.4239C11.9295 15.3264 11.974 15.2197 11.9119 15.1132L11.4902 14.3542L12.5066 13.338L13.2654 13.7596C13.372 13.8217 13.4784 13.7774 13.5761 13.6796C13.7314 13.5243 13.8379 13.2136 13.7003 13.0761C13.687 13.0629 13.6693 13.0539 13.6472 13.0406L11.9138 12.1211L11.3493 12.6855L11.9295 13.0096Z" fill="#4C6176"/>
<path d="M14.0613 12.8285C14.1811 12.9484 14.3676 12.8863 14.4962 12.7575L15.9031 11.3505C16.0184 11.2353 15.9475 11.0488 15.8233 10.9246C15.6945 10.7958 15.5126 10.7292 15.3971 10.8447L14.3142 11.9276L13.2097 10.8232L12.6328 11.4001L14.0613 12.8285Z" fill="#4C6176"/>
<path d="M17.7187 8.52121L16.4628 9.77716L15.5707 8.88513L16.2453 8.21054C16.3657 8.09 16.3109 7.91971 16.2144 7.81641L14.7812 9.24951L16.2098 10.678C16.3296 10.798 16.516 10.7359 16.6448 10.6071L18.2245 9.02719C18.3489 8.90298 18.2778 8.71652 18.1582 8.59674C18.0205 8.45911 17.8341 8.40585 17.7187 8.52121Z" fill="#4C6176"/>
</svg>
