<svg width="24" height="24" viewBox="0 0 24 24" fill="none" xmlns="http://www.w3.org/2000/svg">
<path d="M17.5 8H18C19.6569 8 21 9.34315 21 11V19C21 20.6569 19.6569 22 18 22H6C4.34315 22 3 20.6569 3 19V11C3 9.34315 4.34315 8 6 8H6.5M17.5 8V5.5C17.5 3.84315 16.1569 2.5 14.5 2.5H9.5C7.84315 2.5 6.5 3.84315 6.5 5.5V8M17.5 8H6.5" stroke="white" stroke-width="1.5"/>
<path d="M12 15C12.8284 15 13.5 14.3284 13.5 13.5C13.5 12.6716 12.8284 12 12 12C11.1716 12 10.5 12.6716 10.5 13.5C10.5 14.3284 11.1716 15 12 15ZM12 15V17.5" stroke="white" stroke-width="1.5" stroke-linecap="round" stroke-linejoin="round"/>
</svg>
