<svg width="24" height="24" viewBox="0 0 24 24" fill="none" xmlns="http://www.w3.org/2000/svg">
<path d="M10.1766 9.92616C10.763 9.79336 11.3733 9.72321 11.9999 9.72321C12.6266 9.72321 13.2368 9.79336 13.8233 9.92616V5.66997C13.8233 5.60281 13.8777 5.54835 13.9449 5.54835H15.7876C15.964 5.54835 16.0631 5.34525 15.9546 5.20613L12.1669 0.354909C12.0821 0.24628 11.9178 0.24628 11.8329 0.354909L8.04525 5.20613C7.93667 5.3452 8.03575 5.54835 8.21224 5.54835H10.0549C10.1221 5.54835 10.1766 5.60281 10.1766 5.66997L10.1766 9.92616Z" fill="#2C81FC"/>
<path d="M13.8234 9.92616C13.237 9.79336 12.6267 9.72321 12.0001 9.72321C12.0001 9.72321 12.2497 7.26404 12.2979 5.66997C12.3619 3.5545 12 0.273438 12 0.273438C12.0623 0.273424 12.1246 0.300581 12.167 0.354909L15.9547 5.20613C16.0633 5.34525 15.9642 5.54835 15.7877 5.54835H13.945C13.8779 5.54835 13.8234 5.60281 13.8234 5.66997V9.92616Z" fill="#1E5FBD"/>
<path d="M11.9991 23.5334C16.1505 23.5334 19.5159 20.1681 19.5159 16.0167C19.5159 11.8654 16.1505 8.5 11.9991 8.5C7.84777 8.5 4.48242 11.8654 4.48242 16.0167C4.48242 20.1681 7.84777 23.5334 11.9991 23.5334Z" fill="#FFD15C"/>
<path d="M12.0012 21.4087C14.9812 21.4087 17.397 18.9929 17.397 16.0129C17.397 13.033 14.9812 10.6172 12.0012 10.6172C9.02123 10.6172 6.60547 13.033 6.60547 16.0129C6.60547 18.9929 9.02123 21.4087 12.0012 21.4087Z" fill="#F8B64C"/>
<path d="M13.5601 10.8594C14.8957 11.8416 15.7624 13.4241 15.7624 15.209C15.7624 18.189 13.3466 20.6048 10.3666 20.6048C9.82494 20.6048 9.30188 20.5249 8.80859 20.3764C9.70273 21.034 10.807 21.4225 12.0021 21.4225C14.9821 21.4225 17.3978 19.0068 17.3978 16.0267C17.3978 13.5885 15.7805 11.5279 13.5601 10.8594Z" fill="#EAA330"/>
<path fill-rule="evenodd" clip-rule="evenodd" d="M15.7888 14.252L16.6864 13.7587C16.713 13.7449 16.7387 13.7514 16.7554 13.7676L16.7591 13.768C16.7766 13.789 16.7801 13.8217 16.7556 13.8474L15.8333 14.7697C15.7141 14.8889 15.5587 14.966 15.3915 14.9894L14.578 15.1028C14.4506 15.1203 14.3314 15.1718 14.2308 15.2512L14.0153 15.4215L14.0185 15.4229L14.0198 15.4219L14.1355 15.471C14.3015 15.5423 14.3669 15.7433 14.2746 15.8988L12.6732 18.5953C12.6452 18.6409 12.6008 18.6736 12.5493 18.6865L12.4453 18.7122L12.4466 18.7057L12.4435 18.7123C12.2413 18.7626 12.0309 18.7626 11.8287 18.7123L11.8284 18.7117L11.7263 18.6865C11.6749 18.6736 11.6305 18.6409 11.6024 18.5953L10.0011 15.8988C9.90873 15.7433 9.97419 15.5423 10.1402 15.471L10.2545 15.4225L10.2542 15.422L10.2551 15.4216L10.0423 15.2536C9.94173 15.1741 9.82251 15.1227 9.6951 15.1051L8.88158 14.9918C8.71444 14.9684 8.55898 14.8912 8.43976 14.772L7.51753 13.8498C7.49299 13.8241 7.49649 13.7913 7.51403 13.7703L7.51716 13.7698C7.53377 13.7511 7.56206 13.7428 7.58926 13.7575L8.48811 14.2508C8.70084 14.3688 8.94046 14.4296 9.18358 14.4296H9.98541C10.2227 14.4296 10.4588 14.474 10.6797 14.5605L11.0995 14.7251L11.6694 14.6362L11.7012 14.6312C11.8414 14.6092 11.9892 14.5859 12.137 14.5859C12.2847 14.5859 12.4325 14.6092 12.5728 14.6312L12.6045 14.6362L13.1771 14.7259L13.5972 14.5617C13.8181 14.4752 14.0542 14.4308 14.2915 14.4308H15.0933C15.3364 14.4308 15.5749 14.3688 15.7888 14.252Z" fill="#2C81FC"/>
</svg>
