<svg width="24" height="24" viewBox="0 0 24 24" fill="none" xmlns="http://www.w3.org/2000/svg">
<path d="M10.1766 9.92616C10.763 9.79336 11.3733 9.72321 11.9999 9.72321C12.6266 9.72321 13.2368 9.79336 13.8233 9.92616V5.66997C13.8233 5.60281 13.8777 5.54835 13.9449 5.54835H15.7876C15.964 5.54835 16.0631 5.34525 15.9546 5.20613L12.1669 0.354909C12.0821 0.24628 11.9178 0.24628 11.8329 0.354909L8.04525 5.20613C7.93667 5.3452 8.03575 5.54835 8.21224 5.54835H10.0549C10.1221 5.54835 10.1766 5.60281 10.1766 5.66997L10.1766 9.92616Z" fill="#475B6D"/>
<path d="M13.8234 9.92616C13.237 9.79336 12.6267 9.72321 12.0001 9.72321C12.0001 9.72321 12.2497 7.26404 12.2979 5.66997C12.3619 3.5545 12 0.273438 12 0.273438C12.0623 0.273424 12.1246 0.300581 12.167 0.354909L15.9547 5.20613C16.0633 5.34525 15.9642 5.54835 15.7877 5.54835H13.945C13.8779 5.54835 13.8234 5.60281 13.8234 5.66997V9.92616Z" fill="#3B4C5E"/>
<path d="M11.9991 23.5334C16.1505 23.5334 19.5159 20.1681 19.5159 16.0167C19.5159 11.8654 16.1505 8.5 11.9991 8.5C7.84777 8.5 4.48242 11.8654 4.48242 16.0167C4.48242 20.1681 7.84777 23.5334 11.9991 23.5334Z" fill="#3B4C5E"/>
<path d="M12.0012 21.4087C14.9812 21.4087 17.397 18.9929 17.397 16.0129C17.397 13.033 14.9812 10.6172 12.0012 10.6172C9.02123 10.6172 6.60547 13.033 6.60547 16.0129C6.60547 18.9929 9.02123 21.4087 12.0012 21.4087Z" fill="#546575"/>
<path d="M13.5601 10.8555C14.8957 11.8377 15.7624 13.4202 15.7624 15.2051C15.7624 18.1851 13.3466 20.6009 10.3666 20.6009C9.82494 20.6009 9.30188 20.521 8.80859 20.3725C9.70273 21.0301 10.807 21.4186 12.0021 21.4186C14.9821 21.4186 17.3978 19.0029 17.3978 16.0228C17.3978 13.5846 15.7805 11.524 13.5601 10.8555Z" fill="#4A5D71"/>
<path fill-rule="evenodd" clip-rule="evenodd" d="M15.7883 14.252L16.686 13.7587C16.7147 13.7437 16.7424 13.7526 16.7588 13.7718L16.7594 13.7719C16.777 13.7929 16.7805 13.8256 16.7559 13.8514L15.8337 14.7736C15.7145 14.8928 15.559 14.9699 15.3919 14.9933L14.5784 15.1067C14.451 15.1242 14.3317 15.1757 14.2312 15.2551L14.0196 15.4222L14.1345 15.471C14.3005 15.5423 14.3659 15.7433 14.2736 15.8988L12.6723 18.5953C12.6442 18.6409 12.5998 18.6736 12.5484 18.6865L12.4443 18.7122L12.4453 18.7076L12.443 18.7123C12.2408 18.7626 12.0304 18.7626 11.8282 18.7123L11.8279 18.7117L11.7258 18.6865C11.6744 18.6736 11.63 18.6409 11.6019 18.5953L10.0006 15.8988C9.90825 15.7433 9.9737 15.5423 10.1397 15.471L10.254 15.4225L10.2538 15.422L10.2549 15.4215L10.0423 15.2536C9.94173 15.1741 9.82251 15.1227 9.6951 15.1051L8.88158 14.9918C8.71444 14.9684 8.55898 14.8912 8.43976 14.772L7.51753 13.8498C7.49299 13.8241 7.49649 13.7913 7.51403 13.7703L7.51659 13.7699C7.53319 13.7512 7.56154 13.7428 7.58878 13.7575L8.48763 14.2508C8.70036 14.3688 8.93998 14.4296 9.1831 14.4296H9.98493C10.2222 14.4296 10.4583 14.474 10.6792 14.5605L11.0992 14.7252L11.6694 14.6362L11.7012 14.6312C11.8414 14.6092 11.9892 14.5859 12.137 14.5859C12.2847 14.5859 12.4325 14.6092 12.5728 14.6312L12.6045 14.6362L13.1768 14.7258L13.5967 14.5617C13.8176 14.4752 14.0537 14.4308 14.291 14.4308H15.0928C15.3359 14.4308 15.5744 14.3688 15.7883 14.252Z" fill="#364A5F"/>
</svg>
