<svg width="24" height="24" viewBox="0 0 24 24" fill="none" xmlns="http://www.w3.org/2000/svg">
<path d="M10.4509 9.20149C10.9492 9.08865 11.4677 9.02905 12.0001 9.02905C12.5326 9.02905 13.0511 9.08865 13.5493 9.20149V5.5852C13.5493 5.52813 13.5956 5.48186 13.6527 5.48186H15.2183C15.3682 5.48186 15.4524 5.30929 15.3602 5.19109L12.142 1.06922C12.0699 0.976926 11.9303 0.976926 11.8582 1.06922L8.64001 5.19109C8.54776 5.30925 8.63193 5.48186 8.78189 5.48186H10.3475C10.4046 5.48186 10.4509 5.52813 10.4509 5.5852L10.4509 9.20149Z" fill="#475B6D"/>
<path d="M13.5493 9.20149C13.051 9.08865 12.5325 9.02905 12.0001 9.02905C12.0001 9.02905 12.2122 6.93961 12.2532 5.5852C12.3075 3.78777 12 1 12 1C12.0529 0.999989 12.1059 1.02306 12.1419 1.06922L15.3601 5.19109C15.4524 5.30929 15.3682 5.48186 15.2182 5.48186H13.6526C13.5955 5.48186 13.5493 5.52813 13.5493 5.5852V9.20149Z" fill="#3B4C5E"/>
<path d="M5.38281 12.4418V18.5582C5.38313 18.8677 5.46484 19.1717 5.61975 19.4397C5.77466 19.7077 5.99733 19.9303 6.2654 20.0851L11.1417 22.7858C11.4004 22.9264 11.6902 23 11.9846 23C12.279 23 12.5688 22.9264 12.8275 22.7858L17.7391 20.0851C18.0071 19.9303 18.2298 19.7077 18.3847 19.4397C18.5396 19.1717 18.6213 18.8677 18.6216 18.5582V12.4418C18.6213 12.1323 18.5396 11.8283 18.3847 11.5603C18.2298 11.2923 18.0071 11.0697 17.7391 10.915L12.8451 8.21424C12.5864 8.07365 12.2967 8 12.0022 8C11.7078 8 11.4181 8.07365 11.1594 8.21424L6.2654 10.915C5.99733 11.0697 5.77466 11.2923 5.61975 11.5603C5.46484 11.8283 5.38313 12.1323 5.38281 12.4418Z" fill="#546575"/>
<path d="M5.38616 18.3631V18.5617C5.38648 18.8713 5.46819 19.1753 5.6231 19.4433C5.77802 19.7113 6.00068 19.9338 6.26875 20.0886L11.1627 22.7893C11.4214 22.9299 11.7112 23.0036 12.0056 23.0036C12.3 23.0036 12.5898 22.9299 12.8485 22.7893L17.7424 20.0886C18.0105 19.9338 18.2331 19.7113 18.3881 19.4433C18.543 19.1753 18.6247 18.8713 18.625 18.5617V12.4454C18.6247 12.1358 18.543 11.8318 18.3881 11.5638C18.2331 11.2958 18.0105 11.0733 17.7424 10.9185L16.8598 10.4375V16.3553C16.8595 16.6648 16.7778 16.9688 16.6229 17.2368C16.468 17.5048 16.2453 17.7274 15.9772 17.8821L11.1009 20.5829C10.8422 20.7234 10.5525 20.7971 10.2581 20.7971C9.96363 20.7971 9.67388 20.7234 9.41518 20.5829L5.38616 18.3631Z" fill="#4A5D71"/>
<path d="M10.2413 13.7382V17.2685C10.2413 17.3856 10.1948 17.4978 10.112 17.5806C10.0293 17.6633 9.91704 17.7098 9.8 17.7098C9.72299 17.7094 9.64744 17.6887 9.58086 17.65C9.51428 17.6113 9.45899 17.5559 9.42049 17.4892L7.59353 15.0621V17.2685C7.59353 17.3856 7.54703 17.4978 7.46427 17.5806C7.38152 17.6633 7.26927 17.7098 7.15223 17.7098C7.03519 17.7098 6.92295 17.6633 6.84019 17.5806C6.75743 17.4978 6.71094 17.3856 6.71094 17.2685V13.7382C6.71094 13.6211 6.75743 13.5089 6.84019 13.4261C6.92295 13.3434 7.03519 13.2969 7.15223 13.2969C7.22924 13.2973 7.30479 13.318 7.37137 13.3567C7.43795 13.3954 7.49324 13.4508 7.53175 13.5175L9.3587 15.9446V13.7382C9.3587 13.6211 9.4052 13.5089 9.48796 13.4261C9.57072 13.3434 9.68296 13.2969 9.8 13.2969C9.91704 13.2969 10.0293 13.3434 10.112 13.4261C10.1948 13.5089 10.2413 13.6211 10.2413 13.7382Z" fill="#6B8094"/>
<path d="M13.3237 14.1795C13.4407 14.1795 13.5529 14.133 13.6357 14.0502C13.7185 13.9675 13.765 13.8552 13.765 13.7382C13.765 13.6211 13.7185 13.5089 13.6357 13.4261C13.5529 13.3434 13.4407 13.2969 13.3237 13.2969H11.5585C11.4414 13.2969 11.3292 13.3434 11.2464 13.4261C11.1637 13.5089 11.1172 13.6211 11.1172 13.7382V17.2685C11.1172 17.3856 11.1637 17.4978 11.2464 17.5806C11.3292 17.6633 11.4414 17.7098 11.5585 17.7098C11.6755 17.7098 11.7878 17.6633 11.8705 17.5806C11.9533 17.4978 11.9998 17.3856 11.9998 17.2685V15.9446H13.3237C13.4407 15.9446 13.5529 15.8981 13.6357 15.8154C13.7185 15.7326 13.765 15.6204 13.765 15.5033C13.765 15.3863 13.7185 15.2741 13.6357 15.1913C13.5529 15.1085 13.4407 15.0621 13.3237 15.0621H11.9998V14.1795H13.3237Z" fill="#6B8094"/>
<path d="M16.8627 13.2969H15.0975C14.9805 13.2969 14.8683 13.3434 14.7855 13.4261C14.7027 13.5089 14.6562 13.6211 14.6562 13.7382C14.6562 13.8552 14.7027 13.9675 14.7855 14.0502C14.8683 14.133 14.9805 14.1795 15.0975 14.1795H15.5388V17.2685C15.5388 17.3856 15.5853 17.4978 15.6681 17.5806C15.7508 17.6633 15.8631 17.7098 15.9801 17.7098C16.0972 17.7098 16.2094 17.6633 16.2922 17.5806C16.3749 17.4978 16.4214 17.3856 16.4214 17.2685V14.1795H16.8627C16.9798 14.1795 17.092 14.133 17.1748 14.0502C17.2575 13.9675 17.304 13.8552 17.304 13.7382C17.304 13.6211 17.2575 13.5089 17.1748 13.4261C17.092 13.3434 16.9798 13.2969 16.8627 13.2969Z" fill="#6B8094"/>
</svg>
