<svg width="16" height="16" viewBox="0 0 16 16" fill="none" xmlns="http://www.w3.org/2000/svg">
  <circle cx="8" cy="8" r="8" fill="#F6C009"/>
  <path fill-rule="evenodd" clip-rule="evenodd" d="M7.25 3a.75.75 0 0 1 1.5 0v2a.75.75 0 0 1-1.5 0V3Zm3.755.934a.75.75 0 0 1 1.06 1.06L10.652 6.41a.75.75 0 0 1-1.06-1.061l1.414-1.414ZM13.75 8a.75.75 0 0 0-.75-.75h-2a.75.75 0 0 0 0 1.5h2a.75.75 0 0 0 .75-.75Zm-1.684 3.005a.75.75 0 0 1-1.06 1.06L9.59 10.652a.75.75 0 0 1 1.061-1.06l1.414 1.414ZM8 10.25a.75.75 0 0 0-.75.75v2a.75.75 0 0 0 1.5 0v-2a.75.75 0 0 0-.75-.75Zm-2.651-.66a.75.75 0 0 1 1.06 1.062l-1.414 1.414a.75.75 0 0 1-1.06-1.06L5.348 9.59ZM5.75 8A.75.75 0 0 0 5 7.25H3a.75.75 0 0 0 0 1.5h2A.75.75 0 0 0 5.75 8Z" fill="#FFF"/>
</svg>
