<svg width="110" height="91" viewBox="0 0 110 91" fill="none" xmlns="http://www.w3.org/2000/svg">
  <path d="M15.88 6.036c1.47-3.568 5.368-5.418 9.13-4.613 18.258 3.906 27.027 1.274 59.868 15.354 3.195 1.37 5.063 4.763 4.525 8.209-3.91 25.01-7.846 40.026-16.066 60.63a7.611 7.611 0 0 1-8.25 4.698C41.37 86.58 26.431 82.702 4.836 74.16 1.55 72.86-.412 69.451.094 65.942 3.508 42.237 7.16 27.22 15.88 6.036Z" fill="#84B7EA"/>
  <path d="m33.714 53.007-3.926-5.913a3.53 3.53 0 0 0-5.925 3.84l7.528 11.91a4 4 0 0 0 6.161.74L72.5 29.803a3.575 3.575 0 1 0-5.07-5.038l-27.49 28.79a4 4 0 0 1-6.225-.55Z" fill="#FFF"/>
  <path d="M85.684 1.865c.235 3.365.343 5.493.874 8.891.068.43.408.775.843.794.14.006.273.006.41.002.525-.015.914-.483.892-1.008a132.46 132.46 0 0 0-.638-8.921c-.054-.534-.525-.945-1.055-.862a3.56 3.56 0 0 0-.84.227c-.34.141-.512.509-.486.877ZM100.273 2.573c-2.175 2.484-3.545 3.987-5.552 6.684-.202.271-.21.649.014.903.15.17.3.315.473.464.255.221.63.232.9.031 2.138-1.584 3.6-3.656 5.863-6.811.234-.327.188-.788-.134-1.028a2.94 2.94 0 0 0-.847-.467c-.259-.087-.537.019-.717.224ZM108.427 14.18c-4.37 1.412-7.299 2.35-11.63 4.048-.31.121-.519.432-.46.761.037.207.09.392.159.586.126.349.51.53.871.447 10.489-2.396 11.962-3.05 12.225-3.914a.59.59 0 0 0 .018-.21c-.044-.703-.04-1.224-.591-1.642-.168-.127-.392-.14-.592-.075Z" fill="#6C8093"/>
</svg>
