<svg width="24" height="24" viewBox="0 0 24 24" fill="none" xmlns="http://www.w3.org/2000/svg">
<path d="M19.9991 7.33416L19.7159 8.46686C18.638 6.73105 16.9773 5.43561 15.0314 4.8125L14.6133 6.1224C16.2419 6.64882 17.6328 7.7325 18.5415 9.18294L17.3953 8.89642L17.0619 10.2303L19.8119 10.9178C19.8994 10.9398 19.9905 10.9444 20.0798 10.9311C20.1692 10.9179 20.255 10.8871 20.3324 10.8407C20.4099 10.7942 20.4774 10.7329 20.5311 10.6603C20.5848 10.5877 20.6237 10.5052 20.6454 10.4176L21.3329 7.6676L19.9991 7.33416Z" fill="#3B4C5E"/>
<path d="M6.29146 16.8179L7.43766 17.1044L7.77109 15.7705L5.02109 15.083C4.84422 15.0388 4.65703 15.0667 4.50071 15.1605C4.34438 15.2543 4.23172 15.4064 4.1875 15.5832L3.5 18.3332L4.83392 18.6667L5.11713 17.534C6.19508 19.2698 7.85571 20.5652 9.80167 21.1883L10.2198 19.8784C8.59112 19.352 7.20018 18.2684 6.29146 16.8179Z" fill="#3B4C5E"/>
<path d="M8 13C11.3137 13 14 10.3137 14 7C14 3.68629 11.3137 1 8 1C4.68629 1 2 3.68629 2 7C2 10.3137 4.68629 13 8 13Z" fill="#3B4C5E"/>
<path d="M8.00232 11.3054C10.381 11.3054 12.3093 9.3771 12.3093 6.99841C12.3093 4.61972 10.381 2.69141 8.00232 2.69141C5.62362 2.69141 3.69531 4.61972 3.69531 6.99841C3.69531 9.3771 5.62362 11.3054 8.00232 11.3054Z" fill="#546575"/>
<path d="M9.24588 2.87891C10.3119 3.66292 11.0038 4.9261 11.0038 6.35089C11.0038 8.72959 9.07549 10.6579 6.69678 10.6579C6.26439 10.6579 5.84688 10.5942 5.45312 10.4756C6.16684 11.0005 7.04831 11.3106 8.00222 11.3106C10.3809 11.3106 12.3092 9.38231 12.3092 7.00361C12.3092 5.05733 11.0182 3.41257 9.24588 2.87891Z" fill="#4A5D71"/>
<path d="M8.79854 9.43125L9.95934 9.2135L9.07357 4.48941C9.04817 4.35405 8.97626 4.23183 8.87027 4.14389C8.76429 4.05594 8.6309 4.00781 8.49317 4.00781H7.60741C7.47571 4.00782 7.3478 4.05184 7.244 4.13289C7.1402 4.21394 7.06647 4.32736 7.03454 4.45512L5.85352 9.17921L6.99926 9.46561L7.25653 8.43665H8.61205L8.79854 9.43125ZM7.55179 7.25562L8.0311 5.33823L8.39061 7.25562H7.55179Z" fill="#3B4D5E"/>
<path d="M16.5 23.5C19.8137 23.5 22.5 20.8137 22.5 17.5C22.5 14.1863 19.8137 11.5 16.5 11.5C13.1863 11.5 10.5 14.1863 10.5 17.5C10.5 20.8137 13.1863 23.5 16.5 23.5Z" fill="#3B4C5E"/>
<path d="M16.5023 21.8054C18.881 21.8054 20.8093 19.8771 20.8093 17.4984C20.8093 15.1197 18.881 13.1914 16.5023 13.1914C14.1236 13.1914 12.1953 15.1197 12.1953 17.4984C12.1953 19.8771 14.1236 21.8054 16.5023 21.8054Z" fill="#546575"/>
<path d="M18.4988 15.9841C18.4984 15.5927 18.3427 15.2175 18.0659 14.9407C17.7892 14.6639 17.4139 14.5083 17.0225 14.5078H14.9557C14.7991 14.5078 14.6489 14.57 14.5382 14.6808C14.4274 14.7915 14.3652 14.9417 14.3652 15.0983V19.8224C14.3652 19.979 14.4274 20.1292 14.5382 20.24C14.6489 20.3507 14.7991 20.4129 14.9557 20.4129H17.0225C17.4139 20.4125 17.7892 20.2568 18.0659 19.98C18.3427 19.7033 18.4984 19.328 18.4988 18.9366V18.3461C18.4991 18.0265 18.3952 17.7155 18.2027 17.4604C18.3952 17.2052 18.4991 16.8942 18.4988 16.5746V15.9841ZM15.5463 15.6888H17.0225C17.1008 15.6889 17.1759 15.7201 17.2312 15.7754C17.2866 15.8308 17.3177 15.9058 17.3178 15.9841V16.5746C17.3177 16.6529 17.2866 16.7279 17.2312 16.7833C17.1759 16.8386 17.1008 16.8698 17.0225 16.8699H15.5463V15.6888ZM17.3178 18.9366C17.3177 19.0149 17.2866 19.09 17.2312 19.1453C17.1759 19.2007 17.1008 19.2318 17.0225 19.2319H15.5463V18.0509H17.0225C17.1008 18.051 17.1759 18.0821 17.2312 18.1375C17.2866 18.1928 17.3177 18.2679 17.3178 18.3461V18.9366Z" fill="#3B4D5E"/>
<path d="M17.7459 13.3789C18.8119 14.1629 19.5038 15.4261 19.5038 16.8509C19.5038 19.2296 17.5755 21.1579 15.1968 21.1579C14.7644 21.1579 14.3469 21.0942 13.9531 20.9756C14.6668 21.5005 15.5483 21.8106 16.5022 21.8106C18.8809 21.8106 20.8092 19.8823 20.8092 17.5036C20.8092 15.5573 19.5182 13.9126 17.7459 13.3789Z" fill="#4A5D71"/>
</svg>
