<svg width="24" height="24" viewBox="0 0 24 24" fill="none" xmlns="http://www.w3.org/2000/svg">
  <path d="M18.196 11.05a.64.64 0 0 0 .471.214.64.64 0 0 0 .472-.213l2.666-2.909A.765.765 0 0 0 22 7.627a.765.765 0 0 0-.195-.515l-2.666-2.908a.638.638 0 0 0-.47-.204.64.64 0 0 0-.465.213.762.762 0 0 0-.195.508.764.764 0 0 0 .187.512L19.725 6.9h-3.63c-.55 0-1.09.147-1.574.43a3.45 3.45 0 0 0-1.2 1.19L12 10.68l-1.32-2.16a3.45 3.45 0 0 0-1.2-1.19 3.108 3.108 0 0 0-1.574-.43h-5.24a.64.64 0 0 0-.472.213.762.762 0 0 0-.195.514c0 .193.07.378.195.515a.64.64 0 0 0 .472.213h5.24c.33 0 .654.088.944.257.29.17.538.415.72.714l1.628 2.665-1.628 2.665c-.183.299-.43.544-.72.714-.29.17-.615.258-.944.257h-5.24a.64.64 0 0 0-.472.213.762.762 0 0 0-.195.515c0 .193.07.378.195.514a.64.64 0 0 0 .472.213h5.24a3.11 3.11 0 0 0 1.573-.43 3.45 3.45 0 0 0 1.2-1.19l1.32-2.16 1.32 2.16c.304.5.717.908 1.2 1.19a3.11 3.11 0 0 0 1.574.43h3.63l-1.528 1.668a.73.73 0 0 0-.15.236.781.781 0 0 0 .142.801.664.664 0 0 0 .219.159.618.618 0 0 0 .515-.005.671.671 0 0 0 .217-.163l2.666-2.908a.765.765 0 0 0 .195-.515.765.765 0 0 0-.195-.515l-2.666-2.909a.638.638 0 0 0-.47-.204.64.64 0 0 0-.465.213.762.762 0 0 0-.195.508.764.764 0 0 0 .187.512l1.529 1.667h-3.63c-.33 0-.655-.088-.945-.257a2.07 2.07 0 0 1-.72-.714l-1.628-2.665 1.628-2.665c.183-.299.43-.544.72-.714.29-.17.615-.258.944-.257h3.63l-1.528 1.667a.762.762 0 0 0-.195.514c0 .193.07.378.195.515Z" fill="#FFF" stroke="#FFF" stroke-width=".3"/>
</svg>
