<svg width="22" height="22" viewBox="0 0 22 22" fill="none" xmlns="http://www.w3.org/2000/svg">
<g clip-path="url(#clip0_9484_135618)">
<path d="M17.8765 1.53948L15.9801 0.226562C15.6005 0.6422 14.9629 0.723841 14.4872 0.394528L4.98438 14.1205C5.46004 14.4498 5.60807 15.0753 5.35266 15.577L7.24905 16.8899C7.62868 16.4742 8.26629 16.3926 8.74196 16.7219C9.21762 17.0512 9.36565 17.6768 9.11024 18.1784L11.0066 19.4913C11.3863 19.0757 12.0239 18.994 12.4995 19.3233L22.0024 5.59732C21.5267 5.26801 21.3787 4.64247 21.6341 4.14085L19.7377 2.82794C19.3581 3.24358 18.7204 3.32522 18.2448 2.9959C17.7691 2.66663 17.6211 2.04105 17.8765 1.53948Z" fill="#364A5F"/>
<path d="M12.1533 17.527L18.6406 8.15625L13.2721 4.43971L6.78486 13.8105L12.1533 17.527Z" fill="#4C6176"/>
<path d="M11.0156 9.80283L12.6071 10.2802L13.5529 8.91406L13.5907 10.5752L15.1822 11.0525L13.6141 11.6018L13.6519 13.2629L12.6449 11.9413L11.0768 12.4906L12.0226 11.1245L11.0156 9.80283Z" fill="#6B8094"/>
<path opacity="0.1" d="M10.6052 19.2195L14.2006 3.89742L13.077 3.63377L13.1724 2.64149L12.9688 2.59375L4.98438 14.1265C5.46004 14.4558 5.60807 15.0814 5.35266 15.583L7.24909 16.8959C7.62868 16.4802 8.26633 16.3986 8.742 16.7279C9.21766 17.0572 9.36569 17.6828 9.11029 18.1844L10.6052 19.2195Z" fill="#44576A"/>
<path d="M7.38703 2.55036L5.14152 2.02344C4.94056 2.5492 4.37715 2.85879 3.81396 2.72662L0 18.9797C0.563193 19.1118 0.930146 19.6397 0.876263 20.2L3.12177 20.727C3.32274 20.2012 3.88614 19.8916 4.44934 20.0238C5.01253 20.1559 5.37948 20.6838 5.3256 21.2441L7.57111 21.7711C7.77207 21.2453 8.33548 20.9357 8.89867 21.0679L12.7125 4.81486C12.1494 4.68274 11.7824 4.15486 11.8363 3.59451L9.59082 3.06758C9.38985 3.59335 8.82644 3.90294 8.26325 3.77076C7.70002 3.63851 7.33315 3.11072 7.38703 2.55036Z" fill="#364A5F"/>
<path d="M3.97596 5.62988C3.94795 5.62988 3.91942 5.62666 3.89093 5.62L3.16897 5.45057C2.96959 5.40382 2.84588 5.20428 2.89272 5.0049C2.93947 4.80557 3.13902 4.68182 3.33839 4.72866L4.06036 4.89808C4.25973 4.94483 4.38344 5.14438 4.3366 5.34375C4.2966 5.51456 4.14419 5.62988 3.97596 5.62988Z" fill="#4C6176"/>
<path d="M9.93782 7.02569C9.90981 7.02569 9.88132 7.02246 9.85279 7.0158L8.36181 6.66591C8.16244 6.61916 8.03873 6.41961 8.08557 6.22023C8.13232 6.0209 8.33173 5.89715 8.53124 5.94399L10.0222 6.29388C10.2216 6.34063 10.3453 6.54018 10.2985 6.73956C10.2585 6.9104 10.1061 7.02569 9.93782 7.02569ZM6.95592 6.32598C6.9279 6.32598 6.89941 6.32276 6.87088 6.3161L5.3799 5.9662C5.18053 5.91945 5.05682 5.7199 5.10366 5.52053C5.15041 5.32115 5.34987 5.19745 5.54933 5.24428L7.04031 5.59418C7.23968 5.64093 7.36339 5.84048 7.31655 6.03985C7.27651 6.21069 7.12418 6.32598 6.95592 6.32598Z" fill="#4C6176"/>
<path d="M12.1557 7.55176C12.1276 7.55176 12.0991 7.54854 12.0706 7.54188L11.3487 7.37245C11.1493 7.3257 11.0256 7.12615 11.0724 6.92678C11.1192 6.72744 11.3187 6.60369 11.5181 6.65053L12.24 6.81996C12.4394 6.86671 12.5631 7.06625 12.5163 7.26563C12.4762 7.43647 12.3239 7.55176 12.1557 7.55176Z" fill="#4C6176"/>
<path d="M7.91904 19.5176L10.5234 8.42188L4.16672 6.92983L1.56232 18.0256L7.91904 19.5176Z" fill="#4C6176"/>
<path d="M4.03125 12.7486L5.68693 12.6097L6.06656 10.9922L6.71023 12.5239L8.36595 12.3851L7.10808 13.4706L7.75175 15.0024L6.33064 14.1415L5.07277 15.2271L5.45236 13.6095L4.03125 12.7486Z" fill="#6B8094"/>
<path d="M13.7146 3.18722C13.6418 3.18722 13.5682 3.16587 13.5039 3.12127L12.8942 2.69914C12.7258 2.58257 12.6838 2.35157 12.8004 2.18321C12.9169 2.01482 13.148 1.97284 13.3163 2.08941L13.926 2.51154C14.0944 2.62811 14.1364 2.85911 14.0198 3.02747C13.9478 3.13145 13.8322 3.18722 13.7146 3.18722Z" fill="#4C6176"/>
<path d="M18.7495 6.66937C18.6767 6.66937 18.6031 6.64797 18.5388 6.60341L17.2796 5.73166C17.1112 5.61509 17.0692 5.38409 17.1858 5.21578C17.3024 5.04738 17.5334 5.0054 17.7017 5.12198L18.9609 5.99373C19.1293 6.1103 19.1713 6.34131 19.0547 6.50961C18.9827 6.61356 18.8671 6.66937 18.7495 6.66937ZM16.2312 4.92587C16.1584 4.92587 16.0849 4.90447 16.0205 4.85991L14.7613 3.98816C14.5929 3.87159 14.551 3.64058 14.6675 3.47228C14.7841 3.30388 15.0152 3.2619 15.1835 3.37848L16.4426 4.25023C16.611 4.3668 16.653 4.5978 16.5364 4.76615C16.4644 4.8701 16.3488 4.92587 16.2312 4.92587Z" fill="#4C6176"/>
<path d="M20.6208 7.96847C20.548 7.96847 20.4745 7.94708 20.4101 7.90252L19.8004 7.48039C19.632 7.36382 19.59 7.13282 19.7066 6.96446C19.8232 6.79607 20.0542 6.75409 20.2225 6.87066L20.8323 7.29279C21.0006 7.40936 21.0426 7.64036 20.9261 7.80872C20.8541 7.91266 20.7384 7.96847 20.6208 7.96847Z" fill="#4C6176"/>
</g>
<defs>
<clipPath id="clip0_9484_135618">
<rect width="22" height="22" fill="white"/>
</clipPath>
</defs>
</svg>
