<svg width="24" height="24" viewBox="0 0 24 24" fill="none" xmlns="http://www.w3.org/2000/svg">
<g clip-path="url(#clip0_9484_131630)">
<path d="M18.8765 2.53948L16.9801 1.22656C16.6005 1.6422 15.9629 1.72384 15.4872 1.39453L5.98438 15.1205C6.46004 15.4498 6.60807 16.0753 6.35266 16.577L8.24905 17.8899C8.62868 17.4742 9.26629 17.3926 9.74196 17.7219C10.2176 18.0512 10.3656 18.6768 10.1102 19.1784L12.0066 20.4913C12.3863 20.0757 13.0239 19.994 13.4995 20.3233L23.0024 6.59732C22.5267 6.26801 22.3787 5.64247 22.6341 5.14085L20.7377 3.82794C20.3581 4.24358 19.7204 4.32522 19.2448 3.9959C18.7691 3.66663 18.6211 3.04105 18.8765 2.53948Z" fill="#F2CC7B"/>
<path d="M13.1533 18.527L19.6406 9.15625L14.2721 5.43971L7.78486 14.8105L13.1533 18.527Z" fill="#F25F60"/>
<path d="M12.0156 10.8028L13.6071 11.2802L14.5529 9.91406L14.5907 11.5752L16.1822 12.0525L14.6141 12.6018L14.6519 14.2629L13.6449 12.9413L12.0768 13.4906L13.0226 12.1245L12.0156 10.8028Z" fill="#F2F2F2"/>
<path opacity="0.1" d="M11.6052 20.2195L15.2006 4.89742L14.077 4.63377L14.1724 3.64149L13.9688 3.59375L5.98438 15.1265C6.46004 15.4558 6.60807 16.0814 6.35266 16.583L8.24909 17.8959C8.62868 17.4802 9.26633 17.3986 9.742 17.7279C10.2177 18.0572 10.3657 18.6828 10.1103 19.1844L11.6052 20.2195Z" fill="black"/>
<path d="M8.38703 3.55036L6.14152 3.02344C5.94056 3.5492 5.37715 3.85879 4.81396 3.72662L1 19.9797C1.56319 20.1118 1.93015 20.6397 1.87626 21.2L4.12177 21.727C4.32274 21.2012 4.88614 20.8916 5.44934 21.0238C6.01253 21.1559 6.37948 21.6838 6.3256 22.2441L8.57111 22.7711C8.77207 22.2453 9.33548 21.9357 9.89867 22.0679L13.7125 5.81486C13.1494 5.68274 12.7824 5.15486 12.8363 4.59451L10.5908 4.06758C10.3899 4.59335 9.82644 4.90294 9.26325 4.77076C8.70002 4.63851 8.33315 4.11072 8.38703 3.55036Z" fill="#FFD782"/>
<path d="M4.97596 6.62988C4.94795 6.62988 4.91942 6.62666 4.89093 6.62L4.16897 6.45057C3.96959 6.40382 3.84588 6.20428 3.89272 6.0049C3.93947 5.80557 4.13902 5.68182 4.33839 5.72866L5.06036 5.89808C5.25973 5.94483 5.38344 6.14438 5.3366 6.34375C5.2966 6.51456 5.14419 6.62988 4.97596 6.62988Z" fill="#FF6465"/>
<path d="M10.9378 8.02569C10.9098 8.02569 10.8813 8.02246 10.8528 8.0158L9.36181 7.66591C9.16244 7.61916 9.03873 7.41961 9.08557 7.22023C9.13232 7.0209 9.33173 6.89715 9.53124 6.94399L11.0222 7.29388C11.2216 7.34063 11.3453 7.54018 11.2985 7.73956C11.2585 7.9104 11.1061 8.02569 10.9378 8.02569ZM7.95592 7.32598C7.9279 7.32598 7.89941 7.32276 7.87088 7.3161L6.3799 6.9662C6.18053 6.91945 6.05682 6.7199 6.10366 6.52053C6.15041 6.32115 6.34987 6.19745 6.54933 6.24428L8.04031 6.59418C8.23968 6.64093 8.36339 6.84048 8.31655 7.03985C8.27651 7.21069 8.12418 7.32598 7.95592 7.32598Z" fill="#FF6465"/>
<path d="M13.1557 8.55176C13.1276 8.55176 13.0991 8.54854 13.0706 8.54188L12.3487 8.37245C12.1493 8.3257 12.0256 8.12615 12.0724 7.92678C12.1192 7.72744 12.3187 7.60369 12.5181 7.65053L13.24 7.81996C13.4394 7.86671 13.5631 8.06625 13.5163 8.26563C13.4762 8.43647 13.3239 8.55176 13.1557 8.55176Z" fill="#FF6465"/>
<path d="M8.91904 20.5176L11.5234 9.42188L5.16672 7.92983L2.56232 19.0256L8.91904 20.5176Z" fill="#FF6465"/>
<path d="M5.03125 13.7486L6.68693 13.6097L7.06656 11.9922L7.71023 13.5239L9.36595 13.3851L8.10808 14.4706L8.75175 16.0024L7.33064 15.1415L6.07277 16.2271L6.45236 14.6095L5.03125 13.7486Z" fill="white"/>
<path d="M14.7146 4.18722C14.6418 4.18722 14.5682 4.16587 14.5039 4.12127L13.8942 3.69914C13.7258 3.58257 13.6838 3.35157 13.8004 3.18321C13.9169 3.01482 14.148 2.97284 14.3163 3.08941L14.926 3.51154C15.0944 3.62811 15.1364 3.85911 15.0198 4.02747C14.9478 4.13145 14.8322 4.18722 14.7146 4.18722Z" fill="#F25F60"/>
<path d="M19.7495 7.66937C19.6767 7.66937 19.6031 7.64797 19.5388 7.60341L18.2796 6.73166C18.1112 6.61509 18.0692 6.38409 18.1858 6.21578C18.3024 6.04738 18.5334 6.0054 18.7017 6.12198L19.9609 6.99373C20.1293 7.1103 20.1713 7.34131 20.0547 7.50961C19.9827 7.61356 19.8671 7.66937 19.7495 7.66937ZM17.2312 5.92587C17.1584 5.92587 17.0849 5.90447 17.0205 5.85991L15.7613 4.98816C15.5929 4.87159 15.551 4.64058 15.6675 4.47228C15.7841 4.30388 16.0152 4.2619 16.1835 4.37848L17.4426 5.25023C17.611 5.3668 17.653 5.5978 17.5364 5.76615C17.4644 5.8701 17.3488 5.92587 17.2312 5.92587Z" fill="#F25F60"/>
<path d="M21.6208 8.96847C21.548 8.96847 21.4745 8.94708 21.4101 8.90252L20.8004 8.48039C20.632 8.36382 20.59 8.13282 20.7066 7.96446C20.8232 7.79607 21.0542 7.75409 21.2225 7.87066L21.8323 8.29279C22.0006 8.40936 22.0426 8.64036 21.9261 8.80872C21.8541 8.91266 21.7384 8.96847 21.6208 8.96847Z" fill="#F25F60"/>
</g>
<defs>
<clipPath id="clip0_9484_131630">
<rect width="22" height="22" fill="white" transform="translate(1 1)"/>
</clipPath>
</defs>
</svg>
