<svg width="24" height="24" viewBox="0 0 24 24" fill="none" xmlns="http://www.w3.org/2000/svg">
  <rect x="4.25" y="2.25" width="15.5" height="19.5" rx="2.25" stroke="currentColor" stroke-width="1.5"/>
  <path d="M12.222 7.317h4.64a.653.653 0 0 1 0 1.307h-4.64a.653.653 0 0 1 0-1.307Zm0 4.357h4.64a.653.653 0 0 1 0 1.307h-4.64a.653.653 0 0 1 0-1.307Zm0 4.357h4.659a.653.653 0 0 1 0 1.307h-4.66a.653.653 0 0 1 0-1.307ZM6.657 7.343a.653.653 0 0 1 .924 0l.355.356L9.442 6.19a.653.653 0 1 1 .924.925L8.398 9.085a.653.653 0 0 1-.924 0l-.817-.818a.654.654 0 0 1 0-.924Zm0 4.69a.653.653 0 0 1 .924 0l.355.355 1.506-1.507a.653.653 0 1 1 .924.924l-1.968 1.97a.653.653 0 0 1-.924 0l-.817-.818a.654.654 0 0 1 0-.924Zm0 4.357a.653.653 0 0 1 .924 0l.355.355 1.506-1.507a.653.653 0 1 1 .924.924l-1.968 1.97a.653.653 0 0 1-.924 0l-.817-.818a.654.654 0 0 1 0-.924Z" fill="currentColor"/>
</svg>
