<svg width="22" height="21" viewBox="0 0 22 21" fill="none" xmlns="http://www.w3.org/2000/svg">
<path fill-rule="evenodd" clip-rule="evenodd" d="M7.75 3.5C7.75 2.80964 8.30964 2.25 9 2.25H13C13.6904 2.25 14.25 2.80964 14.25 3.5V4.25H7.75V3.5ZM15.75 3.5V4.25H17.5H20.5C20.9142 4.25 21.25 4.58579 21.25 5C21.25 5.41421 20.9142 5.75 20.5 5.75H18.2017L17.3728 18.1829C17.2765 19.6275 16.0767 20.75 14.6289 20.75H7.37111C5.92333 20.75 4.7235 19.6275 4.6272 18.1829L3.79834 5.75H1.5C1.08579 5.75 0.75 5.41421 0.75 5C0.75 4.58579 1.08579 4.25 1.5 4.25H4.5H6.25V3.5C6.25 1.98122 7.48122 0.75 9 0.75H13C14.5188 0.75 15.75 1.98122 15.75 3.5ZM15 5.75H16.6983L15.8761 18.0831C15.8324 18.7398 15.287 19.25 14.6289 19.25H7.37111C6.71303 19.25 6.16765 18.7398 6.12387 18.0831L5.30166 5.75H7H15ZM8.75 8.5C8.75 8.08579 8.41421 7.75 8 7.75C7.58579 7.75 7.25 8.08579 7.25 8.5V16C7.25 16.4142 7.58579 16.75 8 16.75C8.41421 16.75 8.75 16.4142 8.75 16V8.5ZM11 7.75C11.4142 7.75 11.75 8.08579 11.75 8.5V16C11.75 16.4142 11.4142 16.75 11 16.75C10.5858 16.75 10.25 16.4142 10.25 16V8.5C10.25 8.08579 10.5858 7.75 11 7.75ZM14.75 8.5C14.75 8.08579 14.4142 7.75 14 7.75C13.5858 7.75 13.25 8.08579 13.25 8.5V16C13.25 16.4142 13.5858 16.75 14 16.75C14.4142 16.75 14.75 16.4142 14.75 16V8.5Z" fill="#F24840"/>
</svg>
