<svg width="17" height="24" viewBox="0 0 17 24" fill="none" xmlns="http://www.w3.org/2000/svg">
  <path d="M9.266 3.25A.758.758 0 0 0 8.5 2.5a.758.758 0 0 0-.766.75v4.497L5.945 6.189a.777.777 0 0 0-1.081.063.74.74 0 0 0 .063 1.059l3.064 2.666a.778.778 0 0 0 1.018 0l3.064-2.666a.74.74 0 0 0 .063-1.06.777.777 0 0 0-1.08-.062l-1.79 1.558V3.25Z" fill="#2c81fc"/>
  <path fill-rule="evenodd" clip-rule="evenodd" d="M2.117 6.25C2.117 2.798 4.975 0 8.5 0s6.383 2.798 6.383 6.25a6.118 6.118 0 0 1-.67 2.792c.492.215.928.465 1.284.75.558.447 1.003 1.056 1.003 1.809 0 .05-.002.1-.006.149h.006v8.083c0 .667-.339 1.233-.8 1.673-.46.437-1.084.797-1.793 1.083-1.422.573-3.335.91-5.407.91s-3.985-.337-5.407-.91c-.71-.286-1.334-.646-1.793-1.083-.461-.44-.8-1.006-.8-1.673V11.75h.006A1.877 1.877 0 0 1 .5 11.6c0-.752.445-1.36 1.003-1.808a5.703 5.703 0 0 1 1.285-.75 6.118 6.118 0 0 1-.67-2.792ZM8.5 1.5c-2.679 0-4.85 2.127-4.85 4.75S5.82 11 8.5 11c2.68 0 4.851-2.127 4.851-4.75S11.18 1.5 8.501 1.5Zm0 11c1.941 0 3.68-.848 4.85-2.187.506.199.9.418 1.176.64.368.295.442.52.442.648 0 .114-.056.3-.327.55-.272.25-.707.51-1.309.744-1.198.467-2.906.772-4.832.772-1.926 0-3.634-.305-4.832-.772-.602-.234-1.037-.494-1.309-.745-.27-.249-.327-.435-.327-.55 0-.128.074-.352.442-.648.276-.22.67-.44 1.176-.639A6.425 6.425 0 0 0 8.5 12.5Zm6.468 1.274a7.106 7.106 0 0 1-1.07.515c-1.42.553-3.328.878-5.398.878s-3.979-.325-5.398-.878a7.108 7.108 0 0 1-1.07-.515v.643c0 .048.033.213.322.474.279.252.722.521 1.326.768 1.203.492 2.909.841 4.82.841 1.911 0 3.617-.349 4.82-.84.604-.248 1.047-.518 1.326-.77.29-.26.322-.425.322-.473v-.643Zm0 2.744a7.599 7.599 0 0 1-1.057.525c-1.416.58-3.327.957-5.411.957-2.084 0-3.995-.378-5.41-.957a7.594 7.594 0 0 1-1.058-.525v.399c0 .436.4 1.024 1.65 1.54 1.189.492 2.89.793 4.818.793 1.929 0 3.63-.301 4.818-.792 1.25-.516 1.65-1.105 1.65-1.541v-.399Zm0 2.778a6.62 6.62 0 0 1-1.055.544c-1.43.59-3.347.91-5.413.91-2.066 0-3.983-.32-5.413-.91a6.62 6.62 0 0 1-1.055-.544v.537c0 .138.066.34.337.598.273.26.708.53 1.307.77C4.872 21.685 6.577 22 8.5 22s3.628-.316 4.824-.798c.6-.242 1.034-.51 1.307-.771.27-.258.337-.46.337-.598v-.537Z" fill="#2c81fc"/>
</svg>
