<svg width="20" height="20" viewBox="0 0 20 20" fill="none" xmlns="http://www.w3.org/2000/svg">
  <circle cx="10" cy="10" r="10" fill="#FFF"/>
  <g clip-path="url(#a)" fill="#FF007A">
    <path d="M8.706 5.686c-.15-.022-.157-.029-.086-.036.135-.022.45.007.67.058.514.122.977.44 1.469.997l.128.151.186-.029c.791-.13 1.604-.029 2.281.29.186.086.478.26.514.303a.71.71 0 0 1 .05.202c.05.34.028.592-.079.787-.057.109-.057.138-.021.232.028.072.114.122.192.122.171 0 .35-.274.435-.657l.036-.152.064.073c.364.411.649.982.692 1.387l.014.108-.064-.094a1.212 1.212 0 0 0-.342-.368c-.243-.167-.5-.217-1.177-.253-.613-.036-.962-.087-1.305-.203-.584-.195-.884-.447-1.575-1.38-.307-.411-.5-.635-.692-.823-.42-.412-.841-.628-1.39-.715Z"/>
    <path d="M14.018 6.603c.014-.274.05-.455.128-.62a.5.5 0 0 1 .064-.124c.007 0-.007.05-.028.109-.057.159-.065.383-.029.635.05.326.071.369.414.723.157.166.342.375.413.462l.121.16-.12-.116c-.15-.145-.493-.42-.571-.456-.05-.028-.057-.028-.093.008-.028.029-.036.072-.036.281-.007.325-.05.528-.156.737-.057.109-.065.087-.015-.036.036-.094.043-.137.043-.448 0-.628-.071-.78-.506-1.033a5.283 5.283 0 0 0-.4-.21c-.114-.05-.199-.093-.192-.093.014-.015.435.108.599.18.25.102.292.109.32.102.022-.022.037-.08.044-.26ZM8.998 7.68c-.3-.42-.492-1.07-.45-1.554l.015-.151.071.014c.129.022.35.108.457.173.285.174.413.412.535 1.005.035.173.085.375.107.44.035.109.17.361.285.52.078.116.028.174-.15.16-.271-.03-.635-.282-.87-.608ZM13.654 10.821c-1.412-.578-1.91-1.076-1.91-1.921 0-.123.006-.224.006-.224.007 0 .057.043.121.094.286.23.607.332 1.498.462.52.08.82.137 1.09.231.864.29 1.398.882 1.527 1.683.035.231.014.672-.043.903-.05.181-.193.513-.228.52-.008 0-.022-.036-.022-.093a1.18 1.18 0 0 0-.413-.817c-.3-.26-.685-.455-1.626-.838ZM12.656 11.06a1.741 1.741 0 0 0-.071-.303l-.036-.109.064.08c.093.108.164.238.228.419.05.137.05.18.05.404 0 .217-.007.268-.05.39a1.31 1.31 0 0 1-.3.484c-.256.268-.59.412-1.069.477-.085.008-.328.03-.541.044-.535.029-.892.086-1.213.202-.042.014-.085.029-.092.022-.015-.015.206-.145.385-.232.25-.122.506-.187 1.07-.289.277-.043.563-.1.634-.13.706-.223 1.055-.78.941-1.459Z"/>
    <path d="M13.305 12.223c-.186-.412-.228-.802-.129-1.17.015-.036.029-.073.043-.073.014 0 .057.022.1.051.086.058.264.159.72.412.578.318.906.563 1.134.845.2.246.32.527.378.874.035.195.014.665-.036.86-.157.614-.513 1.105-1.034 1.387a.983.983 0 0 1-.15.072.579.579 0 0 1 .065-.159c.17-.368.192-.722.064-1.12-.079-.245-.243-.541-.57-1.04-.393-.578-.485-.73-.585-.939ZM7.993 14.435c.527-.448 1.176-.766 1.775-.867.257-.044.684-.03.92.036.378.101.72.318.898.585.171.26.25.484.328.982.029.196.064.398.071.441.057.26.171.463.314.57.221.167.606.174.984.03.064-.022.121-.044.121-.036.014.014-.178.144-.306.21a1 1 0 0 1-.514.122c-.342 0-.634-.18-.87-.542a4.083 4.083 0 0 1-.235-.477c-.25-.585-.378-.758-.67-.953-.257-.166-.585-.202-.834-.08a.548.548 0 0 0-.186.846.726.726 0 0 0 .407.216.437.437 0 0 0 .492-.44c0-.174-.065-.275-.236-.354-.228-.102-.477.014-.47.238 0 .094.043.152.135.195.057.029.057.029.014.022-.206-.044-.256-.304-.092-.47.2-.202.62-.115.763.166.057.116.064.347.014.492-.121.317-.463.483-.813.39-.235-.065-.335-.13-.62-.427-.5-.52-.692-.62-1.405-.73l-.135-.02.15-.145Z"/>
    <path fill-rule="evenodd" clip-rule="evenodd" d="M4.242 2.81a767.713 767.713 0 0 1 4.35 5.397c.106.144.063.282-.115.383a1.08 1.08 0 0 1-.406.115.511.511 0 0 1-.343-.151c-.064-.065-.342-.477-.97-1.467a93.908 93.908 0 0 0-.89-1.394c-.03-.014-.03-.014.84 1.56.55.99.728 1.344.728 1.387 0 .094-.028.145-.143.275-.192.217-.278.462-.342.975-.071.57-.264.975-.813 1.662-.32.404-.37.476-.449.643-.1.202-.128.317-.142.577a1.83 1.83 0 0 0 .092.708c.072.232.15.383.343.68.164.26.263.455.263.527 0 .058.015.058.271 0 .613-.145 1.12-.39 1.398-.694.17-.188.214-.289.214-.549 0-.166-.007-.202-.05-.303-.072-.16-.207-.29-.5-.491-.384-.268-.548-.484-.591-.773-.036-.246.007-.412.22-.867.222-.47.279-.665.315-1.142.021-.303.057-.426.142-.52.093-.1.171-.137.392-.166.364-.05.6-.144.785-.325a.683.683 0 0 0 .242-.527l.007-.166-.092-.102C8.662 7.672 4.02 2.5 3.999 2.5c-.007 0 .107.137.243.31ZM6.43 13.084a.3.3 0 0 0-.093-.397c-.121-.08-.307-.044-.307.065 0 .029.015.058.057.072.065.036.072.072.022.152-.05.08-.05.151.014.202.1.08.235.036.307-.094ZM9.32 9.283c-.172.05-.336.239-.386.427-.028.115-.014.325.036.39.079.1.15.13.35.13.392 0 .727-.174.762-.383.036-.174-.114-.412-.32-.52a.716.716 0 0 0-.443-.044Zm.456.361c.057-.086.035-.18-.071-.245-.193-.123-.485-.022-.485.166 0 .094.15.195.292.195.093 0 .221-.058.264-.116Z"/>
  </g>
  <defs>
    <clipPath id="a">
      <path fill="#FFF" transform="translate(4 2.5)" d="M0 0h12v14H0z"/>
    </clipPath>
  </defs>
</svg>
