<svg width="100" height="100" viewBox="0 0 100 100" fill="none" xmlns="http://www.w3.org/2000/svg">
<path d="M2.32562 93.0234C1.04103 94.308 1.04122 96.3908 2.32606 97.6752C3.61039 98.959 5.69218 98.959 6.9765 97.6752L9.30304 95.3495L4.65128 90.6978L2.32562 93.0234Z" fill="#717679"/>
<path d="M97.2548 8.36512C98.5394 7.08053 98.5392 4.99772 97.2543 3.71337C95.97 2.42953 93.8882 2.42953 92.6039 3.71337L90.2773 6.03903L94.9291 10.6908L97.2548 8.36512Z" fill="#717679"/>
<path d="M97.1861 14.9128C98.1061 13.7301 97.9222 12.0307 96.7704 11.0721L88.3766 4.08697C87.4416 3.30884 86.109 3.22964 85.0884 3.89153L76.7432 9.30349L90.6965 23.2552L97.1861 14.9128Z" fill="#9EA7A9"/>
<path d="M82.1699 3.70244C81.7285 3.70244 81.2871 3.87139 80.951 4.20752C80.2768 4.88174 80.2768 5.97139 80.951 6.64541L84.8268 10.5212C85.501 11.1954 86.5906 11.1954 87.2646 10.5212C87.9389 9.84697 87.9389 8.75733 87.2646 8.0833L83.3889 4.20752C83.0527 3.87139 82.6113 3.70244 82.1699 3.70244Z" fill="#717679"/>
<path d="M90.6973 12.2288C90.2559 12.2288 89.8145 12.3978 89.4783 12.7339C88.8041 13.4081 88.8041 14.4978 89.4783 15.1718L93.3541 19.0476C94.0283 19.7218 95.118 19.7218 95.792 19.0476C96.4662 18.3733 96.4662 17.2837 95.792 16.6097L91.9162 12.7339C91.5801 12.3978 91.1387 12.2288 90.6973 12.2288Z" fill="#717679"/>
<path d="M89.8654 22.4257C89.8654 22.4257 80.9067 12.1573 78.4706 9.72273C76.0345 7.28816 71.2361 7.55328 68.6275 9.80328L51.1621 23.255L76.743 48.8361L90.1965 31.3707C92.4465 28.7619 92.3016 24.8603 89.8654 22.4257Z" fill="#717679"/>
<path d="M79.8607 27.0834C79.8607 27.0834 76.728 24.1382 74.3051 22.9231C70.1385 20.8334 66.1506 19.8955 63.1248 22.9231L56.9766 29.0696L70.9301 43.0231L77.0783 36.8748C80.1041 33.8489 82.8865 30.1092 79.8607 27.0834Z" fill="#9EA7A9"/>
<path d="M76.7441 48.8365L51.3882 22.2222C50.1037 20.9377 47.7958 21.9709 46.5113 23.2555C45.2267 24.54 45.2267 26.6227 46.5113 27.9072L72.0923 53.4881C73.3769 54.7727 75.4595 54.7727 76.7441 53.4881C78.0285 52.2037 78.0285 50.1209 76.7441 48.8365Z" fill="#4E5356"/>
<path d="M45.3467 63.953L49.9984 68.6047L61.626 56.9772C62.9105 55.6926 62.9105 53.61 61.626 52.3254C60.3414 51.0408 58.9224 51.4937 57.6378 52.7783L45.3467 63.953Z" fill="#9EA7A9"/>
<path d="M31.3936 49.9997L36.0436 54.6497L46.5262 43.0557C47.8108 41.7729 48.9574 39.6567 47.6728 38.3721C46.3883 37.0875 44.3057 37.0875 43.0211 38.3721L31.3936 49.9997Z" fill="#9EA7A9"/>
<path d="M2.75248 86.221C1.96912 87.3544 2.13499 88.8908 3.14222 89.8309L11.0586 97.22C12.0562 98.1511 13.5823 98.2198 14.6594 97.382L23.2554 90.6964L9.30185 76.7446L2.75248 86.221Z" fill="#9EA7A9"/>
<path d="M10.1324 77.5744L20.1381 89.583C22.5743 92.0175 28.7617 92.4469 31.3703 90.1969L48.8358 76.7451L23.2549 51.1641L9.80138 68.6295C7.55138 71.2383 7.6963 75.1398 10.1324 77.5744Z" fill="#717679"/>
<path d="M21.5258 73.6111C22.6788 75.4434 25.8791 77.0432 25.8791 77.0432C25.8791 77.0432 33.8619 80.0896 36.9067 77.0432L43.0221 70.9293L29.067 56.9775L22.9531 63.0896C19.9086 66.1365 19.3175 70.1015 21.5258 73.6111Z" fill="#9EA7A9"/>
<path d="M23.2543 51.163L47.9149 78.4721C49.1995 79.7566 52.2025 78.0287 53.4871 76.7441C54.7717 75.4595 54.7717 73.3769 53.4871 72.0923L27.9061 46.5113C26.6215 45.2267 24.5389 45.2267 23.2543 46.5113C21.9699 47.7958 21.9699 49.8787 23.2543 51.163Z" fill="#4E5356"/>
<path d="M13.9541 88.9729C13.5127 88.9729 13.0713 89.1419 12.7352 89.478C12.0609 90.1522 12.0609 91.2419 12.7352 91.9159L16.6109 95.7917C17.2852 96.4659 18.3748 96.4659 19.0488 95.7917C19.7229 95.1175 19.723 94.0278 19.0488 93.3538L15.173 89.478C14.8369 89.1419 14.3955 88.9729 13.9541 88.9729Z" fill="#717679"/>
<path d="M5.42676 80.4466C4.98535 80.4466 4.54395 80.6155 4.20781 80.9517C3.53359 81.6259 3.53359 82.7155 4.20781 83.3895L8.08359 87.2653C8.75781 87.9396 9.84746 87.9396 10.5215 87.2653C11.1957 86.5911 11.1957 85.5015 10.5215 84.8274L6.6457 80.9517C6.30957 80.6155 5.86816 80.4466 5.42676 80.4466Z" fill="#717679"/>
</svg>
