<svg width="24" height="24" viewBox="0 0 24 24" fill="none" xmlns="http://www.w3.org/2000/svg">
  <path d="M12 8.772A2.73 2.73 0 0 0 9.274 11.5a2.73 2.73 0 0 0 2.728 2.727 2.73 2.73 0 0 0 2.727-2.727 2.73 2.73 0 0 0-2.727-2.728Z" fill="#8E99A4"/>
  <path d="M12 4.682c-4.545 0-8.427 2.827-10 6.818 1.573 3.99 5.455 6.818 10 6.818 4.55 0 8.427-2.827 10-6.818-1.573-3.991-5.45-6.818-10-6.818Zm0 11.363A4.547 4.547 0 0 1 7.455 11.5 4.547 4.547 0 0 1 12 6.954a4.547 4.547 0 0 1 4.546 4.546A4.547 4.547 0 0 1 12 16.045Z" fill="#8E99A4"/>
</svg>
