<svg width="24" height="24" viewBox="0 0 24 24" fill="none" xmlns="http://www.w3.org/2000/svg">
  <path d="m11.848 8.832 2.863 2.863.013-.15a2.729 2.729 0 0 0-2.726-2.726l-.15.013Z" fill="#8E99A4"/>
  <path d="M11.998 7.001a4.546 4.546 0 0 1 4.544 4.545c0 .586-.118 1.145-.322 1.658l2.658 2.659A10.793 10.793 0 0 0 22 11.546c-1.577-3.99-5.453-6.817-10.002-6.817-1.273 0-2.49.227-3.622.636l1.963 1.959A4.567 4.567 0 0 1 11.998 7ZM2.909 4.525 4.98 6.597l.414.413A10.765 10.765 0 0 0 2 11.546c1.572 3.99 5.453 6.816 9.998 6.816 1.409 0 2.754-.272 3.985-.768l.386.387 2.65 2.653 1.159-1.154L4.068 3.366l-1.16 1.159Zm5.026 5.021 1.404 1.404a2.88 2.88 0 0 0-.068.596 2.729 2.729 0 0 0 2.727 2.726c.204 0 .4-.027.59-.068l1.405 1.404c-.605.3-1.277.482-1.995.482a4.546 4.546 0 0 1-4.545-4.544c0-.718.182-1.39.482-2Z" fill="#8E99A4"/>
</svg>
