<svg width="20" height="20" viewBox="0 0 20 20" fill="none" xmlns="http://www.w3.org/2000/svg">
  <path d="m8.922 9.458 1.618 1.618.732.732.809.809a.517.517 0 1 1-.731.73l-.027-.025-1.592 1.592c-.62.62-1.446.963-2.323.963-.703 0-1.372-.22-1.93-.626l-2.095 2.096a.515.515 0 0 1-.732 0 .517.517 0 0 1 0-.731l2.097-2.096a3.29 3.29 0 0 1 .336-4.253l1.593-1.592-.026-.026a.517.517 0 0 1 .73-.731l.392.392.418.417.731.731ZM17.347 2.651a.517.517 0 0 0-.731 0L14.52 4.747a3.262 3.262 0 0 0-1.93-.625c-.877 0-1.702.342-2.323.962L8.675 6.677 8.65 6.65a.517.517 0 0 0-.731.73l4.699 4.7a.516.516 0 0 0 .73 0 .517.517 0 0 0 0-.732l-.025-.026 1.592-1.592a3.29 3.29 0 0 0 .337-4.252l2.096-2.096a.517.517 0 0 0 0-.732Z" fill="#54C06E"/>
</svg>
