<svg width="20" height="20" viewBox="0 0 20 20" fill="none" xmlns="http://www.w3.org/2000/svg">
  <path d="M11.085 11.134a.488.488 0 0 0-.69 0L9.26 12.268 7.732 10.74l1.134-1.134a.488.488 0 1 0-.69-.69l-1.134 1.133-.395-.394-.37-.37a.488.488 0 0 0-.69.69l.025.025-1.504 1.504a3.108 3.108 0 0 0-.318 4.016L1.81 17.5a.488.488 0 0 0 .69.69l1.98-1.979a3.08 3.08 0 0 0 1.822.59c.829 0 1.608-.322 2.194-.908L10 14.389l.025.025a.487.487 0 0 0 .69 0c.191-.191.191-.5 0-.69l-.764-.765 1.134-1.134c.19-.19.19-.5 0-.69ZM18.19 1.81a.488.488 0 0 0-.69 0l-1.98 1.98a3.08 3.08 0 0 0-1.822-.591c-.83 0-1.608.323-2.194.909L10 5.612l-.025-.025a.488.488 0 0 0-.69.69l4.437 4.438a.487.487 0 0 0 .69 0c.192-.19.192-.5 0-.69L14.389 10l1.504-1.503a3.108 3.108 0 0 0 .318-4.017l1.98-1.98c.19-.19.19-.5 0-.69Z" fill="#8E99A4"/>
</svg>
