<?xml version="1.0" standalone="no"?>
<!DOCTYPE svg PUBLIC "-//W3C//DTD SVG 20010904//EN"
 "http://www.w3.org/TR/2001/REC-SVG-20010904/DTD/svg10.dtd">
<svg version="1.0" xmlns="http://www.w3.org/2000/svg"
 width="512.000000pt" height="512.000000pt" viewBox="0 0 512.000000 512.000000"
 preserveAspectRatio="xMidYMid meet">
<metadata>
Created by potrace 1.11, written by Peter Selinger 2001-2013
</metadata>
<g transform="translate(0.000000,512.000000) scale(0.100000,-0.100000)"
fill="#000000" stroke="none">
<path d="M2385 5110 c-3 -5 -30 -10 -58 -10 -107 -1 -390 -58 -547 -110 -409
-138 -721 -330 -1021 -629 -300 -301 -490 -609 -630 -1023 -50 -150 -108 -440
-109 -543 0 -28 -5 -56 -10 -61 -13 -13 -7 -315 8 -444 104 -896 624 -1640
1424 -2037 218 -108 422 -173 718 -230 140 -27 668 -26 820 0 391 69 760 220
1055 431 508 364 859 868 1010 1451 63 245 69 304 70 645 0 326 -3 361 -51
575 -168 745 -678 1387 -1369 1725 -249 121 -436 182 -710 230 -183 32 -586
53 -600 30z m343 -1480 c86 -24 180 -50 207 -58 28 -8 73 -20 100 -27 224 -59
328 -98 460 -176 376 -221 596 -669 546 -1110 -12 -103 -33 -198 -51 -231 -6
-10 -10 -22 -10 -28 0 -16 -76 -171 -117 -237 -86 -140 -203 -250 -672 -632
-25 -20 -58 -48 -75 -62 -38 -32 -424 -350 -488 -402 -25 -20 -49 -37 -52 -37
-3 0 -7 183 -8 407 l-3 407 -140 38 c-77 21 -165 46 -195 54 -30 9 -102 29
-160 44 -314 85 -461 163 -634 334 -125 125 -208 254 -272 423 -84 224 -90
510 -14 743 65 201 217 423 381 556 44 35 285 234 539 444 103 85 218 180 255
210 37 30 106 87 154 127 l86 71 3 -407 2 -408 158 -43z"/>
<path d="M2444 3567 c-121 -99 -163 -134 -384 -314 -80 -65 -168 -142 -197
-171 -130 -134 -173 -341 -110 -527 25 -76 57 -127 116 -189 86 -90 124 -107
416 -186 105 -29 211 -59 238 -67 l47 -15 0 -324 c0 -178 2 -324 5 -324 3 0
83 63 178 141 94 77 201 164 236 192 35 29 71 59 81 67 10 8 59 48 108 89 100
82 134 119 180 201 45 80 64 167 59 264 -8 151 -49 249 -148 346 -82 80 -84
82 -139 104 -43 17 -427 127 -517 148 l-43 10 0 324 c0 178 -3 324 -7 324 -5
0 -58 -42 -119 -93z"/>
</g>
</svg>
